<?xml version="1.0" encoding="UTF-8"?>
<svg xmlns="http://www.w3.org/2000/svg" width="64" height="64" viewBox="0 0 1850 1850">
<g>
    <path d="M -482 -82 L -466 -82 L -457 -77 L -442 -67 L -430 -59 L -420 -52 L -402 -40 L -390 -32 L -373 -21 L -360 -12 L -345 -2 L -330 8 L -318 16 L -308 23 L -301 27 L -288 36 L -270 48 L -258 56 L -241 67 L -228 76 L -211 87 L -203 93 L -198 96 L -186 104 L -176 111 L -171 114 L -159 122 L -149 129 L -142 133 L -129 142 L -118 149 L -110 155 L -105 158 L -93 166 L -80 174 L -80 176 L -75 178 L -60 188 L -43 199 L -30 208 L -13 219 L -2 226 L 7 234 L 11 240 L 12 243 L 12 258 L 10 263 L 2 272 L -8 277 L -21 277 L -32 271 L -40 265 L -46 262 L -54 256 L -59 253 L -69 246 L -73 245 L -81 251 L -84 252 L -87 255 L -99 264 L -111 273 L -115 277 L -120 278 L -120 280 L -126 284 L -135 291 L -148 301 L -161 311 L -171 318 L -173 318 L -173 320 L -179 324 L -188 331 L -204 343 L -211 348 L -213 348 L -214 351 L -220 355 L -225 358 L -228 361 L -240 370 L -252 379 L -262 387 L -267 390 L -276 397 L -279 400 L -284 403 L -288 406 L -290 406 L -290 408 L -301 415 L -304 418 L -315 427 L -320 430 L -328 436 L -342 447 L -354 456 L -359 459 L -363 463 L -376 472 L -381 476 L -386 480 L -395 487 L -403 493 L -406 494 L -409 497 L -417 503 L -419 503 L -420 506 L -425 509 L -433 515 L -446 525 L -457 533 L -466 540 L -474 546 L -486 555 L -498 564 L -510 573 L -522 582 L -527 586 L -543 598 L -555 607 L -561 612 L -566 615 L -579 625 L -586 630 L -588 630 L -589 633 L -600 640 L -603 643 L -615 652 L -627 661 L -637 669 L -640 670 L -644 674 L -654 682 L -659 685 L -668 692 L -684 704 L -696 713 L -697 715 L -692 717 L -686 721 L -675 728 L -670 732 L -661 737 L -656 741 L -647 747 L -633 756 L -625 762 L -620 765 L -609 772 L -607 773 L -607 775 L -601 777 L -590 785 L -581 791 L -567 800 L -559 806 L -554 809 L -547 813 L -547 815 L -541 817 L -531 824 L -518 833 L -514 835 L -514 837 L -508 839 L -507 841 L -501 844 L -493 850 L -488 853 L -481 857 L -481 859 L -473 860 L -462 853 L -455 849 L -454 847 L -448 844 L -443 841 L -441 841 L -441 839 L -429 832 L -420 825 L -415 824 L -414 821 L -409 818 L -395 809 L -387 803 L -380 799 L -374 795 L -368 791 L -356 783 L -348 777 L -342 774 L -334 768 L -329 765 L -320 759 L -308 751 L -296 743 L -288 737 L -283 735 L -282 733 L -277 730 L -263 721 L -258 718 L -256 718 L -256 716 L -250 712 L -242 707 L -230 699 L -220 692 L -217 691 L -214 688 L -203 681 L -192 674 L -190 674 L -190 672 L -182 667 L -175 662 L -170 659 L -158 651 L -154 648 L -151 647 L -150 645 L -143 641 L -131 633 L -123 627 L -116 623 L -111 621 L -111 619 L -105 616 L -95 609 L -88 604 L -85 603 L -84 601 L -77 597 L -65 589 L -60 586 L -58 586 L -57 583 L -51 580 L -41 573 L -31 566 L -20 559 L -16 556 L -7 552 L 0 552 L 11 556 L 20 564 L 25 574 L 25 583 L 21 593 L 14 601 L 10 604 L 8 604 L 8 606 L 2 609 L -1 612 L -10 617 L -15 621 L -26 628 L -38 636 L -46 642 L -51 644 L -54 647 L -65 654 L -73 660 L -78 663 L -89 670 L -104 680 L -112 686 L -119 690 L -124 692 L -124 694 L -132 699 L -138 703 L -144 707 L -153 713 L -158 716 L -170 724 L -178 730 L -183 733 L -194 740 L -199 744 L -204 747 L -210 750 L -213 753 L -218 756 L -226 762 L -235 767 L -240 771 L -248 776 L -250 776 L -250 778 L -262 785 L -265 788 L -270 791 L -276 795 L -287 802 L -292 806 L -301 811 L -306 815 L -313 819 L -326 828 L -337 836 L -342 839 L -353 846 L -358 850 L -367 855 L -372 859 L -375 859 L -376 862 L -383 866 L -395 874 L -403 880 L -408 883 L -413 886 L -415 886 L -415 888 L -421 891 L -424 894 L -433 899 L -438 903 L -446 908 L -447 1675 L -442 1673 L -432 1666 L -428 1665 L -428 1663 L -420 1658 L -414 1654 L -408 1650 L -396 1642 L -392 1639 L -389 1638 L -388 1636 L -382 1633 L -372 1626 L -364 1621 L -362 1621 L -362 1619 L -354 1614 L -347 1609 L -342 1606 L -330 1598 L -326 1595 L -323 1594 L -322 1592 L -316 1589 L -308 1583 L -303 1580 L -298 1577 L -296 1577 L -296 1575 L -288 1570 L -282 1566 L -270 1558 L -261 1552 L -257 1550 L -256 1548 L -249 1544 L -237 1536 L -229 1530 L -223 1527 L -215 1521 L -210 1518 L -198 1510 L -194 1507 L -189 1504 L -183 1500 L -171 1492 L -161 1485 L -156 1481 L -152 1479 L -149 1476 L -146 1475 L -143 1472 L -130 1463 L -120 1456 L -108 1448 L -104 1445 L -102 1445 L -102 1443 L -94 1438 L -88 1433 L -83 1430 L -75 1424 L -70 1421 L -62 1415 L -57 1412 L -47 1405 L -37 1398 L -32 1396 L -31 1393 L -26 1390 L -18 1384 L -13 1381 L -7 1377 L 1 1371 L 6 1368 L 14 1362 L 17 1361 L 20 1358 L 33 1349 L 46 1340 L 57 1332 L 63 1328 L 71 1322 L 74 1321 L 77 1318 L 88 1310 L 93 1307 L 103 1300 L 113 1293 L 125 1285 L 137 1276 L 142 1273 L 144 1273 L 145 1270 L 150 1267 L 160 1260 L 170 1253 L 176 1249 L 186 1242 L 199 1233 L 202 1230 L 207 1227 L 211 1226 L 212 758 L 218 749 L 223 744 L 227 741 L 235 738 L 245 738 L 254 743 L 262 752 L 266 763 L 266 1242 L 262 1252 L 258 1254 L 256 1258 L 248 1264 L 235 1273 L 222 1282 L 204 1295 L 191 1304 L 178 1313 L 165 1322 L 150 1333 L 139 1340 L 128 1348 L 117 1356 L 106 1363 L 98 1369 L 81 1381 L 73 1387 L 68 1390 L 58 1397 L 41 1409 L 28 1418 L 17 1426 L 5 1434 L -1 1439 L -7 1441 L -7 1443 L -19 1451 L -29 1458 L -45 1469 L -61 1480 L -72 1488 L -85 1497 L -95 1504 L -112 1516 L -125 1525 L -136 1533 L -151 1543 L -161 1550 L -176 1560 L -191 1570 L -209 1582 L -220 1589 L -233 1598 L -246 1607 L -257 1614 L -275 1626 L -284 1632 L -296 1640 L -311 1650 L -323 1658 L -338 1668 L -350 1676 L -374 1692 L -389 1702 L -399 1709 L -410 1716 L -422 1724 L -437 1734 L -449 1742 L -464 1752 L -476 1754 L -485 1752 L -496 1744 L -507 1737 L -519 1729 L -534 1719 L -546 1711 L -557 1704 L -562 1700 L -573 1693 L -585 1685 L -595 1678 L -606 1671 L -618 1663 L -633 1653 L -645 1645 L -653 1639 L -660 1635 L -672 1627 L -684 1619 L -694 1612 L -705 1605 L -717 1597 L -727 1590 L -738 1583 L -750 1575 L -760 1568 L -771 1561 L -783 1553 L -793 1546 L -811 1534 L -823 1526 L -837 1517 L -847 1510 L -862 1500 L -877 1490 L -900 1475 L -916 1464 L -928 1456 L -942 1447 L -958 1436 L -969 1429 L -985 1418 L -996 1411 L -1012 1400 L -1029 1389 L -1048 1376 L -1062 1367 L -1078 1356 L -1092 1347 L -1102 1340 L -1114 1332 L -1129 1322 L -1140 1315 L -1150 1308 L -1165 1298 L -1174 1292 L -1185 1285 L -1201 1274 L -1210 1265 L -1214 1256 L -1215 1244 L -1215 441 L -1214 414 L -1209 404 L -1200 394 L -1189 386 L -1177 378 L -1167 371 L -1161 367 L -1159 367 L -1159 365 L -1148 358 L -1135 349 L -1122 340 L -1107 330 L -1097 323 L -1080 312 L -1070 305 L -1054 294 L -1040 285 L -1028 277 L -1017 270 L -1007 263 L -995 255 L -974 241 L -962 233 L -947 223 L -935 215 L -921 206 L -907 196 L -900 192 L -889 185 L -879 178 L -862 167 L -852 160 L -841 153 L -829 145 L -815 136 L -805 129 L -794 122 L -778 111 L -762 101 L -747 91 L -735 83 L -721 74 L -709 66 L -694 56 L -682 48 L -668 39 L -653 29 L -642 22 L -626 11 L -617 6 L -604 -3 L -596 -8 L -594 -8 L -594 -10 L -581 -18 L -567 -27 L -557 -34 L -537 -47 L -520 -58 L -502 -70 L -491 -77 Z M -475 -24 L -481 -21 L -495 -12 L -503 -6 L -508 -3 L -516 2 L -529 10 L -529 12 L -534 13 L -539 17 L -550 24 L -557 29 L -562 32 L -569 36 L -569 38 L -574 40 L -588 49 L -596 55 L -602 58 L -610 64 L -617 68 L -629 76 L -636 80 L -636 82 L -642 84 L -652 91 L -657 95 L -663 98 L -670 103 L -670 105 L -675 106 L -683 111 L -684 113 L -690 116 L -701 123 L -703 124 L -703 126 L -709 128 L -720 136 L -734 145 L -744 152 L -750 155 L -750 157 L -756 159 L -766 166 L -777 174 L -784 178 L -796 186 L -801 189 L -811 196 L -824 204 L -824 206 L -829 207 L -834 211 L -849 221 L -854 224 L -863 230 L -864 232 L -869 234 L -879 241 L -890 248 L -902 256 L -907 259 L -918 267 L -923 270 L -934 277 L -944 284 L -950 288 L -957 293 L -962 296 L -976 305 L -984 311 L -989 314 L -1001 322 L -1015 331 L -1025 338 L -1036 345 L -1048 353 L -1058 360 L -1063 364 L -1068 367 L -1074 371 L -1083 377 L -1090 382 L -1095 385 L -1107 393 L -1117 400 L -1127 407 L -1133 411 L -1141 417 L -1141 419 L -1135 421 L -1135 423 L -1123 430 L -1120 433 L -1115 436 L -1109 440 L -1098 447 L -1093 451 L -1084 456 L -1079 460 L -1068 467 L -1056 475 L -1048 481 L -1043 484 L -1032 491 L -1027 495 L -1018 500 L -1007 508 L -1003 509 L -1003 511 L -991 518 L -988 521 L -983 524 L -977 528 L -963 537 L -954 543 L -941 552 L -937 553 L -937 555 L -925 562 L -922 563 L -916 559 L -906 552 L -901 548 L -890 540 L -886 538 L -883 535 L -871 526 L -866 522 L -861 519 L -853 513 L -841 504 L -827 494 L -824 491 L -819 488 L -811 482 L -797 472 L -792 468 L -789 465 L -784 462 L -774 455 L -769 451 L -758 443 L -754 441 L -751 438 L -739 429 L -730 423 L -727 420 L -722 416 L -717 413 L -709 407 L -699 399 L -694 396 L -683 388 L -672 380 L -669 377 L -664 374 L -657 368 L -652 365 L -641 357 L -629 348 L -619 341 L -607 332 L -595 323 L -590 319 L -585 316 L -577 310 L -566 302 L -555 294 L -547 288 L -538 282 L -537 280 L -532 277 L -526 273 L -525 271 L -520 268 L -510 261 L -505 257 L -491 247 L -484 242 L -484 240 L -479 238 L -467 229 L -457 222 L -445 213 L -435 205 L -430 202 L -424 198 L -424 196 L -419 194 L -406 184 L -400 180 L -392 174 L -388 172 L -385 169 L -373 160 L -363 153 L -355 147 L -343 138 L -327 126 L -321 122 L -313 116 L -308 112 L -304 110 L -304 108 L -299 106 L -291 100 L -291 96 L -296 94 L -306 87 L -316 80 L -322 78 L -323 75 L -329 72 L -339 65 L -353 56 L -355 56 L -355 54 L -361 51 L -364 48 L -370 44 L -381 37 L -385 34 L -388 34 L -389 31 L -395 28 L -405 21 L -410 17 L -415 14 L -423 9 L -429 5 L -441 -3 L -455 -13 L -462 -17 L -471 -23 Z M -245 131 L -257 140 L -268 148 L -274 153 L -279 156 L -287 162 L -301 172 L -309 178 L -309 180 L -314 181 L -317 184 L -327 192 L -332 195 L -344 204 L -355 212 L -366 220 L -368 221 L -368 223 L -373 225 L -384 233 L -386 234 L -386 236 L -391 238 L -400 245 L -408 251 L -419 259 L -428 265 L -428 267 L -433 269 L -440 274 L -440 276 L -446 278 L -447 280 L -452 283 L -458 287 L -461 290 L -475 300 L -482 305 L -482 307 L -487 309 L -503 321 L -518 331 L -518 333 L -523 335 L -532 342 L -542 349 L -542 351 L -547 353 L -558 361 L -561 364 L -566 367 L -572 371 L -572 373 L -577 375 L -588 383 L -593 387 L -603 394 L -611 400 L -614 402 L -614 404 L -618 405 L -631 415 L -641 422 L -650 429 L -658 435 L -662 437 L -662 439 L -667 441 L -680 451 L -686 455 L -692 459 L -693 461 L -698 464 L -709 472 L -717 478 L -725 484 L -736 492 L -745 498 L -746 500 L -751 503 L -761 510 L -766 514 L -776 521 L -776 523 L -781 525 L -790 532 L -794 534 L -794 536 L -799 538 L -812 548 L -823 556 L -833 563 L -845 572 L -847 573 L -847 575 L -852 577 L -855 580 L -860 583 L -868 589 L -874 593 L -873 597 L -858 607 L -850 613 L -845 616 L -840 619 L -838 619 L -838 621 L -832 624 L -829 627 L -824 630 L -818 634 L -812 637 L -809 640 L -798 647 L -788 654 L -779 660 L -765 669 L -757 675 L -752 678 L -744 682 L -738 678 L -731 673 L -731 671 L -727 670 L -717 662 L -701 650 L -695 645 L -690 642 L -683 636 L -678 633 L -670 627 L -658 618 L -655 616 L -655 614 L -650 612 L -644 608 L -643 606 L -638 603 L -629 596 L -621 591 L -617 587 L -607 579 L -603 577 L -603 575 L -598 573 L -595 570 L -590 567 L -579 558 L -568 550 L -556 541 L -545 533 L -536 526 L -524 517 L -510 506 L -500 499 L -491 492 L -486 489 L -485 487 L -480 484 L -474 480 L -474 478 L -469 476 L -462 471 L -462 469 L -457 467 L -452 463 L -450 462 L -450 460 L -445 458 L -436 451 L -427 445 L -424 442 L -414 434 L -410 432 L -407 429 L -404 427 L -404 425 L -399 423 L -387 414 L -380 409 L -380 407 L -375 405 L -362 395 L -356 391 L -345 382 L -339 378 L -334 375 L -331 372 L -322 366 L -319 363 L -309 355 L -304 352 L -304 350 L -299 348 L -286 338 L -278 332 L -269 326 L -268 324 L -263 321 L -254 314 L -245 307 L -237 301 L -228 295 L -228 293 L -223 291 L -214 284 L -211 282 L -211 280 L -206 278 L -201 274 L -199 273 L -199 271 L -194 269 L -186 262 L -181 259 L -173 253 L -163 246 L -163 244 L -158 242 L -149 235 L -136 225 L -125 217 L -120 213 L -121 210 L -131 204 L -141 197 L -146 193 L -155 188 L -160 184 L -167 180 L -180 171 L -190 164 L -204 155 L -216 147 L -226 140 L -229 139 L -232 136 L -240 131 Z M -1160 470 L -1161 475 L -1161 1234 L -1159 1239 L -1150 1244 L -1145 1248 L -1142 1249 L -1139 1252 L -1135 1253 L -1134 1256 L -1128 1259 L -1118 1266 L -1108 1273 L -1096 1281 L -1088 1287 L -1083 1290 L -1071 1297 L -1066 1301 L -1056 1308 L -1044 1315 L -1039 1319 L -1024 1329 L -1019 1332 L -1014 1336 L -1009 1339 L -1003 1343 L -994 1349 L -990 1350 L -990 1352 L -978 1359 L -973 1363 L -959 1372 L -957 1372 L -956 1375 L -950 1378 L -942 1384 L -937 1387 L -925 1395 L -911 1404 L -903 1410 L -898 1413 L -893 1416 L -883 1423 L -877 1427 L -871 1431 L -860 1438 L -858 1438 L -858 1440 L -850 1445 L -844 1449 L -832 1457 L -827 1460 L -825 1460 L -824 1463 L -818 1466 L -810 1472 L -805 1475 L -794 1482 L -792 1482 L -792 1484 L -784 1489 L -778 1493 L -766 1501 L -752 1510 L -744 1516 L -739 1519 L -734 1522 L -732 1522 L -732 1524 L -726 1526 L -726 1528 L -718 1533 L -712 1537 L -700 1545 L -687 1553 L -684 1556 L -674 1562 L -664 1569 L -657 1574 L -652 1577 L -646 1581 L -634 1589 L -630 1592 L -621 1597 L -616 1601 L -607 1607 L -602 1610 L -600 1610 L -600 1612 L -592 1617 L -586 1621 L -580 1625 L -571 1631 L -560 1638 L -550 1645 L -541 1651 L -536 1654 L -534 1654 L -534 1656 L -528 1658 L -527 1661 L -521 1664 L -511 1671 L -506 1675 L -501 1674 L -502 908 L -508 903 L -515 899 L -527 891 L -535 885 L -541 882 L -545 879 L -547 879 L -547 877 L -555 872 L -566 865 L -574 859 L -580 856 L -590 849 L -605 839 L -620 829 L -632 821 L -636 818 L -639 818 L -640 815 L -647 811 L -659 803 L -667 797 L -673 794 L -678 791 L -681 788 L -687 784 L -698 777 L -702 774 L -709 770 L -713 766 L -717 767 L -717 1000 L -721 1011 L -729 1020 L -739 1024 L -749 1024 L -758 1020 L -761 1017 L -765 1015 L -768 1012 L -778 1005 L -786 999 L -802 987 L -806 985 L -809 982 L -820 974 L -828 968 L -835 963 L -837 963 L -838 960 L -843 957 L -848 954 L -851 951 L -862 943 L -867 941 L -868 938 L -879 931 L -888 924 L -899 916 L -906 911 L -908 911 L -909 908 L -915 906 L -916 903 L -920 901 L -923 898 L -927 897 L -928 894 L -934 890 L -942 883 L -946 877 L -949 863 L -949 613 L -951 608 L -962 601 L -969 597 L -972 594 L -983 587 L -994 580 L -996 580 L -997 577 L -1002 575 L -1005 572 L -1016 565 L -1028 557 L -1032 554 L -1041 549 L -1046 545 L -1056 538 L -1062 536 L -1063 533 L -1070 529 L -1076 525 L -1084 519 L -1093 514 L -1098 510 L -1101 509 L -1104 506 L -1110 502 L -1121 495 L -1131 488 L -1142 481 L -1150 475 L -1155 472 Z M -895 647 L -896 650 L -895 854 L -889 858 L -880 865 L -875 869 L -869 873 L -863 878 L -858 881 L -850 887 L -834 899 L -828 903 L -820 909 L -809 917 L -801 923 L -799 923 L -799 925 L -793 929 L -782 937 L -776 941 L -773 944 L -770 943 L -770 731 L -775 726 L -788 717 L -793 713 L -798 712 L -798 710 L -806 705 L -812 701 L -824 693 L -834 686 L -837 686 L -838 683 L -850 676 L -860 669 L -865 665 L -872 661 L -884 653 L -892 647 Z" fill="#825a43" transform="translate(1227,89)"/>
    <path d="M -482 -82 L -462 -82 L -438 -81 L -423 -79 L -417 -77 L -401 -74 L -388 -70 L -373 -65 L -360 -60 L -344 -53 L -329 -45 L -315 -36 L -299 -25 L -282 -11 L -274 -4 L -254 16 L -243 30 L -233 43 L -219 65 L -210 82 L -201 102 L -194 121 L -188 143 L -185 157 L -181 189 L -180 203 L -180 221 L -182 241 L -185 264 L -189 284 L -192 292 L -197 309 L -207 333 L -220 358 L -227 368 L -234 379 L -238 385 L -240 385 L -242 390 L -250 399 L -257 407 L -266 417 L -271 421 L -276 426 L -286 436 L -294 442 L -308 452 L -323 462 L -333 468 L -349 476 L -368 484 L -377 487 L -385 490 L -398 494 L -411 497 L -418 499 L -439 502 L -445 503 L -504 503 L -518 500 L -530 499 L -540 496 L -552 494 L -559 491 L -567 489 L -575 486 L -584 482 L -590 480 L -602 474 L -608 471 L -618 466 L -630 459 L -633 456 L -638 453 L -646 447 L -651 444 L -664 433 L -672 426 L -680 419 L -685 414 L -685 412 L -689 410 L -694 403 L -699 398 L -710 385 L -717 374 L -724 364 L -729 355 L -733 349 L -735 344 L -740 334 L -745 324 L -749 313 L -753 301 L -759 283 L -762 267 L -763 264 L -767 231 L -767 189 L -764 166 L -762 153 L -760 145 L -758 134 L -755 125 L -750 109 L -747 103 L -744 96 L -737 81 L -728 64 L -717 47 L -711 39 L -705 30 L -700 25 L -689 13 L -680 3 L -671 -6 L -665 -11 L -663 -11 L -663 -13 L -650 -23 L -636 -33 L -623 -41 L -602 -53 L -582 -62 L -552 -72 L -536 -76 L -514 -80 L -505 -81 Z M -488 -30 L -505 -28 L -528 -24 L -532 -22 L -543 -20 L -558 -15 L -566 -12 L -571 -9 L -579 -6 L -588 -1 L -594 2 L -603 8 L -609 12 L -621 20 L -632 29 L -637 34 L -638 37 L -642 39 L -642 41 L -646 43 L -646 45 L -650 47 L -659 57 L -669 70 L -677 82 L -683 94 L -689 103 L -693 112 L -699 126 L -704 142 L -706 151 L -708 156 L -711 175 L -713 188 L -713 232 L -711 246 L -707 267 L -705 272 L -703 282 L -700 289 L -698 296 L -695 304 L -686 323 L -682 329 L -677 338 L -667 353 L -663 359 L -658 364 L -647 376 L -642 382 L -634 389 L -629 394 L -624 396 L -623 399 L -617 403 L -609 409 L -606 409 L -606 411 L -596 417 L -584 423 L -580 426 L -573 429 L -563 433 L -554 436 L -548 439 L -536 442 L -529 444 L -518 446 L -509 448 L -491 449 L -454 449 L -438 448 L -426 445 L -414 443 L -405 440 L -395 437 L -389 435 L -376 430 L -371 427 L -364 424 L -354 418 L -342 412 L -339 409 L -335 407 L -335 405 L -330 403 L -323 398 L -323 396 L -318 394 L -313 389 L -292 368 L -281 354 L -274 344 L -271 339 L -266 332 L -264 327 L -259 318 L -255 310 L -252 303 L -248 293 L -245 284 L -241 270 L -239 263 L -237 252 L -235 239 L -234 221 L -234 202 L -235 177 L -238 165 L -240 153 L -243 143 L -250 122 L -254 113 L -258 103 L -263 94 L -269 85 L -272 79 L -279 69 L -287 59 L -290 55 L -292 55 L -294 50 L -299 45 L -301 45 L -303 41 L -312 32 L -320 25 L -333 15 L -337 13 L -340 10 L -349 5 L -355 1 L -367 -5 L -377 -10 L -389 -15 L -402 -19 L -408 -21 L -423 -25 L -447 -29 L -460 -30 Z" fill="#a86e43" transform="translate(2026,281)"/>
    <path d="M -482 -82 L -464 -82 L -455 -76 L -449 -69 L -446 -64 L -446 156 L -451 165 L -463 175 L -470 179 L -482 187 L -490 193 L -497 197 L -503 201 L -512 207 L -517 210 L -523 214 L -535 222 L -540 225 L -550 232 L -556 236 L -565 242 L -570 245 L -577 250 L -582 252 L -585 255 L -589 257 L -590 259 L -596 262 L -604 268 L -609 271 L -614 274 L -616 274 L -616 276 L -628 283 L -638 290 L -649 297 L -654 300 L -667 309 L -682 319 L -696 328 L -707 335 L -717 342 L -729 350 L -734 353 L -736 353 L -736 355 L -744 360 L -757 368 L -773 379 L -784 386 L -796 394 L -806 401 L -815 406 L -820 410 L -823 410 L -824 413 L -831 417 L -843 425 L -854 432 L -859 436 L -864 439 L -870 443 L -882 450 L -887 454 L -898 461 L -906 466 L -918 467 L -925 465 L -932 461 L -937 455 L -941 449 L -942 441 L -941 214 L -935 205 L -927 199 L -917 193 L -916 191 L -910 188 L -901 182 L -894 178 L -883 171 L -870 163 L -861 157 L -847 149 L -837 142 L -833 141 L -832 138 L -827 136 L -823 133 L -818 130 L -805 122 L -800 119 L -798 119 L -797 116 L -791 113 L -783 108 L -774 102 L -769 99 L -763 95 L -749 87 L -739 80 L -730 75 L -728 75 L -728 73 L -714 65 L -704 58 L -699 55 L -690 49 L -681 44 L -679 44 L -678 41 L -672 38 L -663 32 L -658 29 L -646 22 L -643 19 L -637 16 L -628 10 L -623 7 L -611 0 L -601 -7 L -589 -14 L -585 -17 L -582 -18 L -581 -20 L -575 -23 L -567 -29 L -561 -32 L -556 -35 L -548 -40 L -546 -40 L -546 -42 L -540 -45 L -535 -48 L -525 -55 L -513 -62 L -509 -65 L -504 -68 L -497 -73 L -491 -76 L -486 -79 Z M -504 -5 L -514 2 L -526 9 L -530 12 L -535 15 L -542 20 L -548 23 L -553 26 L -567 35 L -577 42 L -584 46 L -596 53 L -599 56 L -605 59 L -612 64 L -618 67 L -626 73 L -632 76 L -641 82 L -649 87 L -654 90 L -660 94 L -668 99 L -674 102 L -674 104 L -680 106 L -688 111 L -688 113 L -694 115 L -704 122 L -709 125 L -721 132 L -731 139 L -737 142 L -742 145 L -745 148 L -751 151 L -762 158 L -768 162 L -772 164 L -772 166 L -778 168 L -783 171 L -793 177 L -793 179 L -799 181 L -809 188 L -818 193 L -823 197 L -828 200 L -838 206 L -842 208 L -842 210 L -848 212 L -853 215 L -858 219 L -869 225 L -879 232 L -885 236 L -888 239 L -889 387 L -888 389 L -883 388 L -880 385 L -871 380 L -866 376 L -863 375 L -860 372 L -849 365 L -841 359 L -836 356 L -827 350 L -822 347 L -810 339 L -796 330 L -788 324 L -783 322 L -783 320 L -777 318 L -774 315 L -763 309 L -760 306 L -755 303 L -743 295 L -735 290 L -735 288 L -731 287 L -721 280 L -716 277 L -702 268 L -691 261 L -676 251 L -671 248 L -668 245 L -661 241 L -654 236 L -648 233 L -648 231 L -642 229 L -633 222 L -624 217 L -619 213 L -608 206 L -602 202 L -593 196 L -588 193 L -576 185 L -566 178 L -561 175 L -554 170 L -549 167 L -541 162 L -541 160 L -536 159 L -526 152 L -520 148 L -515 145 L -515 143 L -510 142 L -505 138 L -500 133 L -500 -5 Z" fill="#584444" transform="translate(1803,1124)"/>
    <path d="M -482 -82 L -473 -81 L -464 -75 L -456 -68 L -451 -62 L -443 -55 L -437 -48 L -430 -42 L -424 -35 L -417 -29 L -411 -22 L -403 -15 L -398 -9 L -391 -3 L -386 -4 L -372 -18 L -366 -25 L -361 -30 L -359 -30 L -357 -34 L -351 -39 L -344 -47 L -337 -53 L -331 -60 L -324 -66 L -318 -73 L -308 -80 L -306 -81 L -290 -81 L -285 -78 L -277 -71 L -272 -63 L -272 -45 L -278 -36 L -285 -30 L -287 -27 L -289 -27 L -291 -23 L -294 -22 L -296 -18 L -301 -13 L -307 -8 L -314 0 L -320 5 L -327 13 L -334 19 L -340 26 L -347 32 L -350 35 L -350 39 L -342 46 L -336 53 L -332 56 L -332 58 L -328 60 L -323 66 L -315 73 L -309 80 L -302 86 L -296 93 L -289 99 L -283 106 L -276 112 L -272 119 L -272 138 L -277 146 L -279 146 L -281 150 L -288 154 L -292 155 L -304 155 L -310 153 L -318 147 L -389 76 L -392 77 L -397 83 L -404 89 L -410 96 L -417 102 L -424 110 L -431 116 L -432 118 L -434 118 L -436 122 L -444 129 L -450 136 L -457 142 L -460 146 L -462 146 L -463 149 L -471 154 L -476 155 L -487 155 L -493 153 L -500 148 L -500 146 L -503 145 L -507 138 L -508 134 L -508 124 L -506 118 L -503 112 L -496 106 L -490 99 L -482 92 L -477 86 L -470 80 L -463 72 L -456 66 L -450 59 L -443 53 L -437 46 L -429 39 L -430 35 L -503 -38 L -508 -48 L -508 -60 L -506 -65 L -500 -73 L -494 -78 L -488 -81 Z" fill="#a96e44" transform="translate(1942,454)"/>
    <path d="M -482 -82 L -467 -82 L -458 -77 L -451 -70 L -447 -61 L -447 -49 L -452 -39 L -454 -39 L -455 -36 L -467 -27 L -473 -24 L -481 -18 L -487 -15 L -500 -7 L -505 -4 L -515 3 L -527 10 L -537 17 L -543 20 L -551 26 L -557 29 L -565 35 L -576 41 L -581 44 L -586 48 L -592 51 L -600 57 L -611 63 L -621 70 L -626 71 L -627 74 L -634 78 L -646 85 L -649 88 L -660 94 L -670 101 L -679 106 L -684 110 L -695 116 L -705 123 L -716 130 L -730 138 L -734 141 L -742 144 L -749 144 L -760 140 L -766 135 L -770 130 L -773 120 L -773 112 L -769 102 L -767 102 L -765 97 L -763 97 L -763 95 L -757 91 L -743 83 L -735 77 L -728 73 L -722 69 L -717 66 L -715 66 L -715 64 L -707 60 L -690 49 L -681 43 L -673 38 L -660 30 L -653 26 L -652 24 L -645 22 L -645 20 L -639 17 L -633 13 L -631 13 L -631 11 L -625 8 L -620 5 L -617 2 L -611 -1 L -600 -8 L -595 -11 L -589 -15 L -577 -22 L -574 -25 L -568 -28 L -559 -34 L -554 -37 L -549 -40 L -547 -40 L -547 -42 L -541 -45 L -533 -51 L -527 -54 L -522 -57 L -510 -65 L -505 -68 L -498 -73 L -492 -76 Z" fill="#6a4e45" transform="translate(1610,1093)"/>
</g>
</svg>
