<?xml version="1.0" encoding="UTF-8"?>
<svg width="64" height="64" viewBox="0 0 2250 2250"  xmlns="http://www.w3.org/2000/svg">
<g>
    <path d="M -245 76 C -244.2 76 -243.3 76 -242.5 76 C -241.6 76 -240.7 76 -239.7 76 C -238.3 76 -238.3 76 -236.8 76 C -233.7 76 -230.5 76 -227.3 76 C -225.1 76 -222.9 76 -220.7 76 C -216.1 76 -211.5 76 -206.8 76 C -200.9 76 -195 76 -189.1 76 C -184.5 76 -180 76 -175.4 76 C -173.2 76 -171 76 -168.8 76 C -165.8 76 -162.7 76 -159.7 76 C -158.8 76 -157.9 76 -156.9 76 C -156.1 76 -155.3 76 -154.4 76 C -153.7 76 -153 76 -152.2 76 C -150.1 76.1 -148.3 76.6 -146.2 77.1 C -144.3 77.3 -142.4 77.4 -140.5 77.4 C -132.9 78 -125.6 79.6 -118.2 81.5 C -116 82 -113.7 82.5 -111.5 83.1 C -104.9 84.6 -98.5 86.2 -92.2 88.5 C -88.5 89.7 -84.7 90.6 -81 91.5 C -70.3 94.3 -60.3 97.9 -50.5 103 C -48.4 104 -46.4 104.8 -44.1 105.4 C -37.5 107.5 -31.4 110.9 -25.3 114.1 C -23.3 115.1 -21.4 116 -19.5 117 C -12 120.6 -5.1 124.5 1.8 129.1 C 2.9 129.9 4.1 130.6 5.2 131.4 C 17.9 139.7 30.7 148.2 42.2 158.2 C 45.5 161.1 48.8 163.6 52.3 166.1 C 59.5 171.3 65.6 177.7 71.8 184 C 76.7 189.1 76.7 189.1 82.1 193.8 C 85.4 196.7 87.7 199.8 90.2 203.4 C 93.2 207.7 96 211.6 99.8 215.2 C 104.9 220 108.6 225.7 112.6 231.4 C 114.3 233.9 116.1 236.2 117.8 238.6 C 125.2 248.7 131.4 258.9 136.8 270.1 C 137.7 272 138.7 273.8 139.6 275.7 C 141.3 279.2 143.1 282.6 144.8 286.1 C 145.2 286.9 145.5 287.7 145.9 288.5 C 151.1 298.8 155.5 309 158.8 320.1 C 159 320.8 159.2 321.6 159.4 322.3 C 162.8 333.4 165.8 344.6 168.6 355.8 C 168.9 357.3 169.3 358.7 169.6 360.1 C 171.9 368.8 173.2 377.1 173.6 386 C 173.7 389 173.7 389 174.3 391.1 C 174.8 393.2 174.9 395 174.9 397.2 C 174.9 398.4 174.9 398.4 174.9 399.6 C 174.9 400.5 174.9 401.3 174.9 402.2 C 174.9 403.2 174.9 404.1 174.9 405 C 174.9 408.1 174.9 411.1 174.9 414.2 C 174.9 416.3 174.9 418.4 174.9 420.5 C 174.9 424.9 174.9 429.4 174.9 433.8 C 174.9 439.5 174.9 445.2 174.9 450.8 C 174.9 455.2 174.9 459.6 174.9 463.9 C 174.9 466 174.9 468.1 174.9 470.2 C 174.9 473.2 174.9 476.1 174.9 479 C 174.9 480.3 174.9 480.3 174.9 481.6 C 174.9 482.4 174.9 483.2 174.9 484.1 C 174.9 484.8 174.9 485.4 174.9 486.2 C 174.8 488.3 174.3 490.1 173.8 492.1 C 173.7 493.9 173.6 495.7 173.5 497.6 C 173.2 504.3 172.5 510.4 170.7 516.8 C 169.8 520 169.2 523.1 168.6 526.3 C 166.6 537 164 547.5 161.3 558 C 161.2 558.7 161 559.5 160.8 560.3 C 157.5 573.2 153.6 585.5 147.9 597.6 C 146.6 600.6 145.6 603.6 144.7 606.8 C 143.9 608.9 142.9 610.8 141.9 612.9 C 139.8 617 138.3 621.1 136.9 625.5 C 134.9 631.3 132.8 636.3 129.4 641.5 C 127.3 644.9 125.6 648.3 123.8 651.9 C 123.5 652.6 123.2 653.2 122.8 653.9 C 121.2 657.3 119.5 660.7 117.9 664 C 115.3 669.4 112.7 674.6 109 679.3 C 107.4 681.7 106.2 684.3 104.9 686.9 C 102 692.8 98.6 697.9 94.8 703.1 C 92.9 705.8 90.9 708.5 89 711.3 C 88.5 712 88 712.7 87.5 713.5 C 84.5 717.7 81.5 721.9 78.6 726.2 C 74.4 732.5 70 738.6 65.5 744.7 C 64.8 745.7 64.8 745.7 64 746.6 C 61.7 749.7 59.3 752.8 56.7 755.7 C 54 758.8 51.7 762 49.4 765.4 C 48.6 766.5 47.9 767.7 47.1 768.8 C 46.7 769.4 46.3 769.9 45.9 770.5 C 43.6 773.9 41.2 777.1 38.7 780.4 C 37.4 782.2 36.1 784.1 34.8 785.9 C 31.4 790.6 28 795.2 24.3 799.6 C 18.5 806.7 13.1 814 8.3 821.8 C 5.5 826.2 2.3 830.1 -1.2 834 C -7.2 840.5 -12.1 847.7 -17 855 C -19.3 858.2 -21.7 861.1 -24.2 864.1 C -25.5 865.8 -26.7 867.4 -27.9 869.1 C -28.6 870.1 -29.3 871 -30 872 C -31.6 874.2 -33.1 876.4 -34.7 878.7 C -42.1 889.1 -42.1 889.1 -45.7 893.1 C -50.2 897.9 -53.6 903.5 -57.2 909 C -59.2 912.1 -59.2 912.1 -60.2 913.1 C -59.1 913.7 -59.1 913.7 -58.1 914.4 C -45 922.2 -39.3 930.8 -35.6 945.4 C -33.7 953.6 -33.7 961.6 -33.7 970 C -33.7 971.7 -33.7 973.5 -33.7 975.3 C -33.7 980.1 -33.7 984.9 -33.7 989.7 C -33.7 994.9 -33.7 1000.1 -33.7 1005.3 C -33.7 1014.5 -33.7 1023.6 -33.7 1032.8 C -33.7 1046.4 -33.7 1060 -33.7 1073.7 C -33.7 1096.6 -33.7 1119.5 -33.7 1142.4 C -33.7 1143.1 -33.7 1143.8 -33.7 1144.5 C -33.7 1145.2 -33.7 1145.9 -33.7 1146.6 C -33.7 1167.9 -33.7 1189.2 -33.7 1210.5 C -33.7 1211.9 -33.7 1213.3 -33.7 1214.7 C -33.7 1220.5 -33.7 1226.2 -33.7 1231.9 C -33.7 1248 -33.7 1264 -33.7 1280 C -33.7 1280.7 -33.7 1281.5 -33.7 1282.2 C -33.7 1305.4 -33.7 1328.7 -33.7 1351.9 C -33.7 1353.1 -33.7 1353.1 -33.7 1354.2 C -33.7 1366.4 -33.7 1378.7 -33.7 1390.9 C -33.7 1439.4 -33.7 1488 -33.7 1536.5 C -33.7 1548.7 -33.7 1561 -33.7 1573.2 C -33.7 1573.9 -33.7 1574.7 -33.7 1575.5 C -33.7 1598.7 -33.7 1621.9 -33.7 1645.1 C -33.7 1646.2 -33.7 1646.2 -33.7 1647.3 C -33.7 1663.3 -33.7 1679.3 -33.7 1695.3 C -33.7 1701.1 -33.7 1706.8 -33.7 1712.5 C -33.7 1713.9 -33.7 1715.4 -33.7 1716.8 C -33.7 1738.1 -33.7 1759.3 -33.7 1780.6 C -33.7 1781.7 -33.7 1781.7 -33.7 1782.7 C -33.7 1783.8 -33.7 1783.8 -33.7 1784.8 C -33.7 1808.3 -33.7 1831.8 -33.7 1855.3 C -33.7 1868.8 -33.7 1882.4 -33.7 1895.9 C -33.7 1904.9 -33.7 1914 -33.7 1923 C -33.7 1928.2 -33.7 1933.3 -33.7 1938.5 C -33.7 1943.2 -33.7 1947.9 -33.7 1952.5 C -33.7 1954.2 -33.7 1955.9 -33.7 1957.6 C -33.6 1974.1 -35.3 1990.7 -47.2 2003.2 C -62.6 2017.4 -82.4 2016.7 -102.1 2016.6 C -104.6 2016.6 -107.1 2016.6 -109.6 2016.6 C -115.1 2016.7 -120.5 2016.7 -126 2016.6 C -134.2 2016.6 -142.3 2016.6 -150.5 2016.7 C -164.4 2016.7 -178.3 2016.7 -192.2 2016.7 C -206.3 2016.6 -220.4 2016.6 -234.5 2016.7 C -235.4 2016.7 -236.3 2016.7 -237.2 2016.7 C -240.8 2016.7 -244.4 2016.7 -248.1 2016.7 C -281.9 2016.7 -315.6 2016.7 -349.4 2016.7 C -350.4 2016.7 -351.4 2016.7 -352.5 2016.7 C -353.5 2016.7 -354.5 2016.7 -355.5 2016.7 C -386 2016.7 -416.6 2016.7 -447.1 2016.7 C -449.2 2016.7 -451.2 2016.7 -453.2 2016.7 C -461.5 2016.7 -469.7 2016.7 -477.9 2016.7 C -500.9 2016.7 -523.8 2016.7 -546.8 2016.7 C -548.4 2016.7 -548.4 2016.7 -550 2016.7 C -583.3 2016.7 -616.7 2016.7 -650 2016.7 C -651.1 2016.7 -652.1 2016.7 -653.3 2016.7 C -670.8 2016.7 -688.4 2016.7 -705.9 2016.6 C -775.6 2016.6 -845.2 2016.6 -914.8 2016.6 C -932.3 2016.7 -949.9 2016.7 -967.4 2016.7 C -968.5 2016.7 -969.6 2016.7 -970.7 2016.7 C -1004 2016.7 -1037.3 2016.7 -1070.6 2016.7 C -1071.7 2016.7 -1072.7 2016.7 -1073.8 2016.7 C -1096.7 2016.7 -1119.7 2016.7 -1142.6 2016.7 C -1150.8 2016.7 -1159 2016.7 -1167.3 2016.7 C -1169.3 2016.7 -1171.3 2016.7 -1173.4 2016.7 C -1203.9 2016.7 -1234.4 2016.7 -1265 2016.7 C -1266 2016.7 -1267 2016.7 -1268 2016.7 C -1269 2016.7 -1270 2016.7 -1271 2016.7 C -1304.7 2016.7 -1338.4 2016.7 -1372.1 2016.7 C -1375.7 2016.7 -1379.3 2016.7 -1382.9 2016.7 C -1383.8 2016.7 -1384.7 2016.7 -1385.6 2016.7 C -1399.7 2016.6 -1413.7 2016.6 -1427.8 2016.7 C -1441.6 2016.7 -1455.4 2016.7 -1469.3 2016.6 C -1477.4 2016.6 -1485.5 2016.6 -1493.6 2016.7 C -1499.6 2016.7 -1505.6 2016.7 -1511.6 2016.6 C -1514 2016.6 -1516.5 2016.6 -1518.9 2016.6 C -1555.2 2016.8 -1555.2 2016.8 -1569.2 2003.1 C -1581.6 1990.4 -1581.8 1972.9 -1581.7 1956.1 C -1581.7 1954.2 -1581.7 1952.4 -1581.7 1950.5 C -1581.7 1945.4 -1581.7 1940.3 -1581.7 1935.1 C -1581.7 1929.6 -1581.7 1924 -1581.7 1918.4 C -1581.8 1908.7 -1581.8 1898.9 -1581.7 1889.1 C -1581.7 1875.3 -1581.7 1861.5 -1581.7 1847.6 C -1581.8 1822.6 -1581.8 1797.5 -1581.8 1772.4 C -1581.8 1771.6 -1581.8 1770.9 -1581.8 1770.1 C -1581.8 1769.4 -1581.8 1768.6 -1581.8 1767.9 C -1581.7 1745.2 -1581.7 1722.5 -1581.7 1699.8 C -1581.7 1698.3 -1581.7 1696.8 -1581.7 1695.2 C -1581.7 1689.1 -1581.8 1683 -1581.8 1676.9 C -1581.8 1659.8 -1581.8 1642.8 -1581.8 1625.7 C -1581.8 1624.9 -1581.8 1624.1 -1581.8 1623.3 C -1581.8 1598.6 -1581.8 1573.8 -1581.7 1549 C -1581.7 1548.2 -1581.7 1547.4 -1581.7 1546.6 C -1581.7 1533.6 -1581.7 1520.5 -1581.7 1507.5 C -1581.7 1455.8 -1581.7 1404 -1581.7 1352.3 C -1581.7 1339.3 -1581.7 1326.2 -1581.7 1313.2 C -1581.7 1312 -1581.7 1312 -1581.7 1310.8 C -1581.8 1286 -1581.8 1261.3 -1581.8 1236.6 C -1581.8 1235.8 -1581.8 1235 -1581.8 1234.2 C -1581.8 1217.1 -1581.8 1200.1 -1581.8 1183 C -1581.8 1176.9 -1581.7 1170.8 -1581.7 1164.7 C -1581.7 1163.2 -1581.7 1161.7 -1581.7 1160.2 C -1581.7 1137.5 -1581.7 1114.8 -1581.8 1092.1 C -1581.8 1091.4 -1581.8 1090.7 -1581.8 1089.9 C -1581.8 1089.2 -1581.8 1088.4 -1581.8 1087.7 C -1581.8 1062.6 -1581.8 1037.6 -1581.7 1012.6 C -1581.7 998.1 -1581.7 983.7 -1581.7 969.3 C -1581.8 959.7 -1581.8 950 -1581.7 940.4 C -1581.7 934.9 -1581.7 929.4 -1581.7 923.9 C -1581.7 918.9 -1581.7 913.9 -1581.7 908.9 C -1581.7 907.1 -1581.7 905.3 -1581.7 903.5 C -1581.8 886.7 -1580.4 869.6 -1568.1 856.9 C -1562.8 852.1 -1562.8 852.1 -1560.2 852.1 C -1560.6 850.6 -1560.6 850.6 -1561.1 849.1 C -1561.5 847.7 -1561.8 846.4 -1562.2 845.1 C -1562.4 844.4 -1562.6 843.8 -1562.8 843.1 C -1565.9 832 -1563.4 819.2 -1558.1 809 C -1556.2 805.8 -1554 802.8 -1551.8 799.8 C -1549.1 796.1 -1547 792.2 -1544.9 788.2 C -1542.6 783.7 -1540.2 779.4 -1537.5 775.2 C -1535.8 772.5 -1534.3 769.6 -1532.8 766.8 C -1530.7 762.7 -1528.5 759 -1525.8 755.3 C -1522.2 750.4 -1519.6 745.2 -1517.1 739.7 C -1515.1 735.8 -1513 732.6 -1510.2 729.1 C -1509.2 727.3 -1508.3 725.4 -1507.4 723.4 C -1505.5 719.5 -1503.5 716 -1500.8 712.4 C -1497.6 708.1 -1495.4 703.5 -1493.2 698.6 C -1490.6 692.8 -1487.8 687.7 -1483.9 682.5 C -1479.8 676.7 -1476.2 670.4 -1473.2 663.9 C -1471.8 661.1 -1470.2 658.6 -1468.4 656 C -1465.8 652.2 -1463.8 648.3 -1461.8 644.2 C -1459.2 638.9 -1456.3 634.3 -1452.9 629.6 C -1451 626.9 -1449.6 624.1 -1448.2 621.1 C -1446.4 617.3 -1444.4 613.8 -1441.8 610.4 C -1438.3 605.6 -1435.8 600.5 -1433.3 595.2 C -1430.5 589.6 -1427.4 584.5 -1424.1 579.2 C -1422.2 576.2 -1420.7 573.1 -1419.2 569.9 C -1417.3 566.1 -1415.3 562.8 -1412.8 559.4 C -1409.3 554.5 -1406.7 549.3 -1404.1 543.9 C -1402 539.5 -1399.7 535.8 -1396.6 532.1 C -1394.2 528.7 -1392.6 524.9 -1390.8 521.1 C -1389.3 518.3 -1387.7 516 -1385.8 513.4 C -1382.6 509.1 -1380.4 504.5 -1378.2 499.6 C -1375.7 494 -1373 489 -1369.2 484.1 C -1365.8 479 -1362.9 473.5 -1360 468.1 C -1359.6 467.2 -1359.1 466.4 -1358.7 465.5 C -1358.1 464.4 -1358.1 464.4 -1357.5 463.3 C -1356.2 461.1 -1354.7 459.1 -1353.2 457.1 C -1352.3 455.3 -1351.3 453.4 -1350.5 451.5 C -1347.6 445.6 -1344.1 440.4 -1340.2 435.1 C -1339.6 434.2 -1339 433.3 -1338.3 432.4 C -1328.2 417.7 -1317.4 411.2 -1300.4 407.5 C -1294.5 406.5 -1288.7 406.6 -1282.8 406.6 C -1281.3 406.6 -1279.8 406.6 -1278.3 406.6 C -1274.3 406.6 -1270.3 406.6 -1266.3 406.6 C -1261.9 406.6 -1257.6 406.6 -1253.2 406.6 C -1244.7 406.5 -1236.2 406.5 -1227.7 406.6 C -1220.8 406.6 -1213.8 406.6 -1206.9 406.6 C -1205.9 406.6 -1204.9 406.6 -1203.9 406.6 C -1201.9 406.5 -1199.9 406.5 -1197.9 406.5 C -1179.1 406.5 -1160.3 406.5 -1141.5 406.6 C -1124.3 406.6 -1107.1 406.6 -1089.9 406.5 C -1072.3 406.5 -1054.6 406.5 -1036.9 406.5 C -1034.9 406.5 -1032.9 406.5 -1030.9 406.5 C -1029.9 406.5 -1029 406.5 -1027.9 406.5 C -1021 406.5 -1014.1 406.5 -1007.2 406.5 C -998.8 406.5 -990.4 406.5 -981.9 406.5 C -977.6 406.5 -973.3 406.5 -969 406.5 C -929.4 406.3 -929.4 406.3 -913.2 416.1 C -912.4 415.5 -911.5 414.9 -910.7 414.3 C -895.1 404 -873.3 406.4 -855.4 406.5 C -851.1 406.5 -846.9 406.5 -842.6 406.4 C -835.5 406.4 -828.3 406.5 -821.2 406.5 C -813 406.5 -804.7 406.5 -796.5 406.5 C -789.4 406.4 -782.3 406.4 -775.2 406.5 C -771 406.5 -766.8 406.5 -762.5 406.4 C -721.5 406.3 -721.5 406.3 -707.2 416.1 C -704.2 415.9 -702.7 414.8 -700 413.3 C -686.3 406.5 -671.8 406.6 -656.9 406.7 C -654.8 406.7 -652.7 406.7 -650.6 406.7 C -646.2 406.7 -641.8 406.7 -637.4 406.7 C -631.8 406.7 -626.1 406.8 -620.5 406.8 C -616.2 406.8 -611.8 406.8 -607.5 406.8 C -605.4 406.8 -603.3 406.8 -601.2 406.8 C -598.4 406.8 -595.5 406.8 -592.6 406.8 C -591.7 406.8 -590.9 406.8 -590 406.8 C -585 406.9 -580.9 407.5 -576.2 409.1 C -576.2 408 -576.3 406.9 -576.3 405.7 C -576.5 396.9 -576.1 389.1 -574 380.6 C -573.2 377.1 -572.8 373.7 -572.5 370.1 C -571.7 361.9 -569.5 354 -567.4 346 C -567.1 344.8 -566.7 343.5 -566.4 342.2 C -563.4 331.1 -559.6 320.3 -555.2 309.6 C -554.1 306.8 -553.2 304 -552.3 301.1 C -550.4 295.5 -548 290.4 -545.2 285.1 C -544.3 283.3 -543.4 281.5 -542.5 279.7 C -541.4 277.5 -540.3 275.3 -539.2 273.1 C -538.8 272.4 -538.5 271.7 -538.1 270.9 C -533.7 262.2 -529.4 253.7 -523.4 246 C -521.2 243.1 -519.1 240.1 -517 237.1 C -514.4 233.4 -511.8 229.8 -509.2 226.1 C -508.7 225.4 -508.2 224.7 -507.7 224 C -501.7 215.6 -495.4 207.9 -487.9 200.8 C -486 198.9 -484.3 197.1 -482.6 195 C -480.7 192.7 -478.8 190.8 -476.5 188.9 C -470.5 183.7 -464.7 178.3 -459.8 172.1 C -457.2 169.1 -454.6 166.9 -451.4 164.6 C -446.9 161.2 -442.5 157.7 -438.1 154.1 C -432.3 149.3 -426.5 144.8 -420 140.9 C -416.6 138.7 -413.2 136.5 -409.8 134.2 C -397.5 125.9 -384.9 118.7 -371.3 112.6 C -367.6 110.8 -363.9 108.9 -360.2 107.1 C -354.3 104.1 -348.4 101.5 -342.2 99.1 C -340.6 98.5 -339 97.8 -337.4 97.1 C -327.6 93.2 -317.5 90.6 -307.2 88.1 C -303.5 87.2 -299.7 86.2 -296 85.2 C -294.1 84.7 -292.2 84.2 -290.3 83.7 C -288.8 83.3 -287.3 82.9 -285.9 82.5 C -275.9 79.8 -266.5 77.6 -256.2 77.3 C -253.4 77.2 -253.4 77.2 -251.3 76.6 C -249.1 76.1 -247.2 76 -245 76 Z M -225 121.4 C -230.1 123.1 -235.6 122.9 -241 123.2 C -243.4 123.3 -245.7 123.5 -248.1 123.6 C -249.2 123.7 -250.2 123.7 -251.3 123.8 C -254.3 124.1 -256.5 125 -259.2 126.1 C -261.3 126.3 -263.3 126.4 -265.4 126.5 C -270.8 126.8 -275 127.9 -279.9 130.1 C -282.1 131.1 -284.2 131.7 -286.5 132.3 C -290.1 133 -290.1 133 -292.8 134.2 C -295.2 135.1 -295.2 135.1 -298.9 135.6 C -302.3 135.8 -302.3 135.8 -304.2 138.1 C -306.8 138.7 -309.3 139.1 -311.9 139.6 C -314.4 140 -314.4 140 -316.2 142.1 C -318.1 142.8 -318.1 142.8 -320.3 143.5 C -324.3 144.8 -328.2 146.4 -332 148.2 C -334.1 149.1 -336.2 149.9 -338.3 150.6 C -343.2 152.4 -348.4 154.4 -352.2 158.1 C -353 158.3 -353.8 158.4 -354.7 158.6 C -357.6 159.2 -358.2 160 -360.2 162.1 C -360.9 162.3 -361.6 162.5 -362.3 162.6 C -363.3 162.9 -363.3 162.9 -364.2 163.1 C -364.5 164.1 -364.9 165.1 -365.2 166.1 C -366.2 166.1 -367.1 166 -368.1 165.9 C -369.6 166 -369.6 166 -371.2 166.1 C -371.9 167.1 -372.5 168.1 -373.2 169.1 C -376.7 171.5 -380.4 173.3 -384.2 175.1 C -384.2 175.8 -384.2 176.4 -384.2 177.1 C -385.4 177.6 -385.4 177.6 -386.5 178 C -389.4 179.1 -389.4 179.1 -392.2 181.1 C -393.2 181.5 -394.2 181.8 -395.2 182.1 C -397 183.7 -398.5 185.5 -400.2 187.3 C -402.3 189.2 -403.4 189.6 -406.2 190.1 C -406.5 190.8 -406.9 191.4 -407.2 192.1 C -409.3 193.3 -409.3 193.3 -411.2 194.1 C -411.2 194.8 -411.2 195.4 -411.2 196.1 C -411.8 196.4 -412.3 196.6 -412.9 196.8 C -415.8 198.4 -418 200.4 -420.5 202.6 C -421.4 203.4 -422.2 204.2 -423.2 205 C -425.4 206.9 -425.4 206.9 -425.2 209.1 C -425.8 209.2 -426.4 209.3 -427 209.4 C -429.9 210.3 -431.2 211.8 -433.2 214.1 C -433.2 214.8 -433.2 215.4 -433.2 216.1 C -433.8 216.2 -434.3 216.2 -434.9 216.3 C -438.4 217.6 -439.9 220.3 -442.2 223.1 C -443.2 223.8 -444.2 224.4 -445.2 225.1 C -445.2 226.1 -445.2 227.1 -445.2 228.1 C -446.7 228.6 -446.7 228.6 -448.2 229.1 C -450.9 231.5 -452.1 232.7 -453.2 236.1 C -454.8 237.8 -456.5 239.5 -458.2 241.1 C -463.7 246.8 -468.5 252.2 -472.2 259.1 C -473.5 260.5 -474.9 261.8 -476.2 263.1 C -476.2 264.1 -476.2 265.1 -476.2 266.1 C -477.2 266.5 -478.2 266.8 -479.2 267.1 C -479.6 268.5 -479.9 269.8 -480.2 271.1 C -481.2 272.1 -482.2 273.1 -483.2 274.1 C -483.9 276.2 -483.9 276.2 -484.2 278.1 C -484.9 278.1 -485.5 278.1 -486.2 278.1 C -486.7 279.1 -487.1 280 -487.6 281 C -489.2 284.1 -489.2 284.1 -491.2 286.1 C -491.9 287.8 -492.6 289.5 -493.2 291.1 C -494.2 293 -495.1 294.8 -496.2 296.6 C -496.7 297.5 -497.2 298.5 -497.8 299.5 C -498.8 301.4 -499.9 303.4 -501 305.4 C -502.4 308.6 -502.9 311.6 -503.2 315.1 C -504.2 315.5 -505.2 315.8 -506.2 316.1 C -506.7 317.7 -507.2 319.3 -507.6 321 C -508.3 323.5 -509.2 325.8 -510.2 328.2 C -511.7 331.8 -513 335.4 -514.2 339.1 C -514.5 340.1 -514.9 341.1 -515.2 342.1 C -516.3 345.4 -517.3 348.8 -518.2 352.1 C -518.5 353.2 -518.9 354.4 -519.2 355.5 C -520.6 360.5 -521.7 365.6 -522.7 370.7 C -522.9 371.5 -523.1 372.3 -523.3 373.1 C -523.5 374.2 -523.5 374.2 -523.7 375.4 C -524.2 377.1 -524.2 377.1 -525.2 378.1 C -525.4 379.6 -525.6 381.1 -525.7 382.6 C -525.8 383.5 -525.8 384.4 -525.9 385.3 C -526.1 387.3 -526.2 389.2 -526.4 391.1 C -526.5 392 -526.5 392.9 -526.6 393.9 C -526.7 394.7 -526.7 395.6 -526.8 396.4 C -527.2 399.1 -527.2 399.1 -528.2 402.4 C -529.2 406.1 -529.5 409.2 -529.5 413.1 C -529.5 414 -529.5 414 -529.5 415 C -529.5 417.2 -529.5 419.3 -529.5 421.4 C -529.5 422.9 -529.5 424.4 -529.5 425.9 C -529.5 429.1 -529.5 432.2 -529.5 435.3 C -529.5 439.3 -529.5 443.3 -529.5 447.3 C -529.5 450.4 -529.5 453.5 -529.5 456.6 C -529.5 458.1 -529.5 459.5 -529.5 461 C -529.5 463.1 -529.5 465.1 -529.5 467.2 C -529.5 468.4 -529.5 469.5 -529.5 470.8 C -529.2 474.4 -528.3 477.6 -527.2 481.1 C -527 482.9 -526.8 484.7 -526.7 486.5 C -526.5 487.9 -526.5 487.9 -526.4 489.4 C -526.3 491.3 -526.1 493.3 -526 495.3 C -525.9 496.2 -525.9 497.2 -525.8 498.2 C -525.7 499 -525.7 499.9 -525.6 500.8 C -525.2 503.2 -524.4 504.9 -523.2 507.1 C -522.6 510.9 -522.2 514.8 -521.8 518.6 C -521.3 521.7 -520.6 523.4 -519.2 526.1 C -518.8 528.2 -518.5 530.3 -518.3 532.4 C -517.5 537.6 -516.4 541.5 -514.2 546.1 C -513.2 549.4 -512.3 552.6 -511.5 555.9 C -511.1 557.4 -511.1 557.4 -510.7 558.9 C -510.5 559.8 -510.2 560.7 -510 561.7 C -509.3 564.3 -509.3 564.3 -507.2 567.1 C -507.1 568.3 -506.9 569.4 -506.8 570.6 C -506.5 574.1 -506.5 574.1 -504.7 576.1 C -502.6 578.9 -502.7 581.7 -502.2 585.1 C -500.8 587.8 -500.8 587.8 -499.2 590.1 C -498.5 591.8 -497.9 593.5 -497.2 595.1 C -496.6 596.7 -495.9 598.2 -495.2 599.8 C -494.9 600.5 -494.6 601.3 -494.2 602 C -493.2 604.3 -493.2 604.3 -491.2 607.1 C -490.5 609.1 -489.9 611.1 -489.2 613.1 C -488.3 615.6 -487.4 617.8 -486.2 620.1 C -485.2 620.5 -484.2 620.8 -483.2 621.1 C -483.3 622.1 -483.3 623 -483.4 624 C -483.3 625 -483.3 626.1 -483.2 627.1 C -482.2 627.8 -481.2 628.4 -480.2 629.1 C -479.5 631.1 -478.8 633.1 -478.2 635.1 C -477.6 635.8 -476.9 636.4 -476.2 637.1 C -475.5 639.1 -474.9 641.1 -474.2 643.1 C -473.6 643.8 -472.9 644.4 -472.2 645.1 C -471.5 646.8 -470.9 648.5 -470.2 650.1 C -469.1 652.2 -468 654.3 -466.8 656.4 C -465.9 658 -465.9 658 -465 659.6 C -463.4 662.4 -463.4 662.4 -460.2 663.1 C -460.2 664.8 -460.2 666.4 -460.2 668.1 C -459.2 668.5 -458.2 668.8 -457.2 669.1 C -456.5 671.1 -455.8 673.1 -455.2 675.1 C -454.6 675.5 -453.9 675.8 -453.2 676.1 C -452.5 677.8 -451.8 679.4 -451.2 681.1 C -450.6 681.1 -449.9 681.1 -449.2 681.1 C -449.1 681.8 -449 682.4 -448.9 683.1 C -448.7 683.7 -448.4 684.4 -448.2 685.1 C -447.2 685.5 -446.2 685.8 -445.2 686.1 C -444.5 688.1 -443.8 690.1 -443.2 692.1 C -441.1 696 -438.8 698.7 -435.6 701.6 C -434 703.4 -433.8 704.8 -433.2 707.1 C -431.9 708.7 -431.9 708.7 -430.2 710.1 C -427.3 712.8 -426 714.3 -425.2 718.1 C -424.6 718.5 -423.9 718.8 -423.2 719.1 C -422.5 720.5 -421.9 721.8 -421.2 723.1 C -419.8 724.7 -418.3 726 -416.8 727.4 C -414.4 730 -413.1 733.1 -411.5 736.2 C -410.3 738.4 -410.3 738.4 -407.2 739.1 C -406.5 740.4 -405.9 741.8 -405.2 743.1 C -404.4 744.3 -403.6 745.5 -402.7 746.6 C -401.3 748.5 -400.2 750.1 -399.2 752.3 C -398.2 754.3 -398.2 754.3 -396 756.3 C -393.5 758.8 -392 761 -390.2 764.1 C -387.9 768.1 -385.8 771.2 -382.2 774.1 C -381.6 774.1 -380.9 774.1 -380.2 774.1 C -380 775 -379.7 775.9 -379.5 776.8 C -378.1 780.3 -376.6 782.6 -374.2 785.5 C -373.5 786.4 -372.8 787.2 -372.1 788.2 C -371.5 788.8 -370.9 789.5 -370.2 790.1 C -369.6 790.1 -368.9 790.1 -368.2 790.1 C -368.1 790.8 -368 791.6 -368 792.3 C -367 795.7 -365.5 797.6 -363.3 800.4 C -362.6 801.2 -361.9 802.1 -361.1 803 C -359.4 805.2 -359.4 805.2 -357.2 806.1 C -356.5 807.8 -355.9 809.5 -355.2 811.1 C -354.1 812.8 -352.9 814.3 -351.7 815.9 C -350.8 817 -350.8 817 -349.9 818.2 C -348.3 820.2 -348.3 820.2 -346.2 821.1 C -345.5 822.8 -344.8 824.4 -344.2 826.1 C -343.6 826.1 -342.9 826.1 -342.2 826.1 C -341.6 827.8 -340.9 829.4 -340.2 831.1 C -339.6 831.1 -338.9 831.1 -338.2 831.1 C -337.9 831.7 -337.6 832.4 -337.3 833 C -336.3 835.3 -336.3 835.3 -334.2 837.1 C -333.5 838.8 -332.8 840.4 -332.2 842.1 C -331.6 842.1 -330.9 842.1 -330.2 842.1 C -330.2 842.7 -330.1 843.2 -330 843.8 C -329.3 846.4 -329.3 846.4 -326.8 848.5 C -324.1 851.2 -322.8 853.6 -321.2 857.1 C -320.6 857.1 -319.9 857.1 -319.2 857.1 C -319 857.8 -318.8 858.6 -318.5 859.3 C -316.9 862.7 -315 864.7 -312.2 867.1 C -311.6 867.1 -310.9 867.1 -310.2 867.1 C -310.3 867.9 -310.3 868.7 -310.4 869.4 C -310.2 872.7 -309.5 873 -307.2 875.1 C -305.7 877 -304.1 878.8 -302.6 880.7 C -302.2 881.2 -301.7 881.6 -301.2 882.1 C -300.6 882.1 -299.9 882.1 -299.2 882.1 C -299.3 882.8 -299.4 883.6 -299.5 884.3 C -299.1 888.3 -297.1 889.4 -294.2 892.1 C -291.9 895 -289.8 897.9 -288.2 901.3 C -287.2 903.4 -287.2 903.4 -284.9 905.4 C -280.9 909.4 -277.5 913.9 -275.2 919.1 C -274.6 919.1 -273.9 919.1 -273.2 919.1 C -272.9 919.7 -272.7 920.3 -272.4 920.9 C -269 927.4 -264.6 934.1 -259.2 939.1 C -258.6 939.1 -257.9 939.1 -257.2 939.1 C -257 939.9 -256.8 940.7 -256.7 941.6 C -254.7 946.5 -251.2 952.7 -246.2 955.1 C -245.5 956.8 -244.9 958.5 -244.2 960.1 C -242.6 962.5 -242.6 962.5 -240.8 964.8 C -240.2 965.6 -239.6 966.3 -239 967.1 C -237.2 969.3 -237.2 969.3 -234.2 971.1 C -233.5 972.8 -232.9 974.5 -232.2 976.1 C -231.1 977.8 -229.9 979.3 -228.7 980.9 C -228.1 981.7 -227.5 982.4 -226.9 983.2 C -225.3 985.2 -225.3 985.2 -223.2 986.1 C -222.5 987.8 -221.8 989.4 -221.2 991.1 C -220.6 991.1 -219.9 991.1 -219.2 991.1 C -219.1 991.8 -219 992.4 -218.9 993.1 C -218.7 993.7 -218.4 994.4 -218.2 995.1 C -217.2 995.5 -216.2 995.8 -215.2 996.1 C -214.2 997.9 -214.2 997.9 -213.2 1000.1 C -212.9 1000.8 -212.5 1001.5 -212.2 1002.3 C -211.5 1003.5 -210.9 1004.8 -210.2 1006.1 C -209.6 1006.1 -208.9 1006.1 -208.2 1006.1 C -207.9 1006.9 -207.7 1007.7 -207.4 1008.4 C -206.2 1011.1 -205.3 1012.2 -203.2 1014.1 C -202.6 1015.1 -201.9 1016.1 -201.2 1017.1 C -200.2 1016.8 -199.2 1016.5 -198.2 1016.1 C -198.2 1015.5 -198.2 1014.8 -198.2 1014.1 C -197.2 1013.8 -196.2 1013.5 -195.2 1013.1 C -195.2 1011.8 -195.2 1010.5 -195.2 1009.1 C -193.8 1007.6 -193.8 1007.6 -191.8 1006.1 C -189 1004 -187.7 1002.3 -186.2 999.1 C -185.6 998.8 -184.9 998.5 -184.2 998.1 C -184.2 996.5 -184.2 994.8 -184.2 993.1 C -183.6 992.9 -183 992.6 -182.4 992.3 C -180 991 -178.8 989.8 -177.2 987.7 C -175.7 985.9 -174.3 984.2 -172.7 982.6 C -170.1 980 -167.2 976.8 -167.2 973.1 C -166.2 972.8 -165.2 972.5 -164.2 972.1 C -164 971.5 -163.9 970.8 -163.7 970.1 C -163.5 969.5 -163.4 968.8 -163.2 968.1 C -162.2 967.8 -161.2 967.5 -160.2 967.1 C -158.9 965.1 -158.9 965.1 -157.7 962.8 C -156.2 959.7 -154.6 957.5 -152.2 955.1 C -152.2 954.5 -152.2 953.8 -152.2 953.1 C -151.2 952.8 -150.2 952.5 -149.2 952.1 C -147.8 950.3 -147.8 950.3 -146.5 948.2 C -146.1 947.5 -145.7 946.8 -145.2 946 C -144.1 944.2 -144.1 944.2 -144.2 942.1 C -143.2 941.8 -142.2 941.5 -141.2 941.1 C -138.8 938.5 -137.1 935.9 -135.4 932.8 C -133.4 929.1 -130.8 926.2 -127.9 923.1 C -126.1 921.1 -126.1 921.1 -124.8 918.7 C -122.4 914.8 -119.3 911.4 -116.4 907.8 C -114.4 905.4 -112.8 902.9 -111.2 900.1 C -109.2 897.6 -107.2 895.1 -105.2 892.6 C -103.2 890.2 -103.2 890.2 -101.7 887.7 C -99.4 883.7 -96.3 880.4 -93.4 876.8 C -91.4 874.4 -89.8 871.9 -88.2 869.1 C -86.2 866.4 -84 863.9 -81.5 861.6 C -80 860.1 -80 860.1 -79.3 857.8 C -77.8 854.1 -75.6 851.4 -72.8 848.8 C -71 846.9 -69.7 844.9 -68.3 842.8 C -66.6 840 -65 837.9 -62.7 835.6 C -59.8 832.7 -58.2 829.8 -56.4 826.2 C -55.2 824.1 -53.9 822.8 -52.2 821.1 C -52.2 820.5 -52.2 819.8 -52.2 819.1 C -51.2 818.8 -50.2 818.5 -49.2 818.1 C -47.9 816.2 -47.9 816.2 -46.8 813.8 C -44.9 810.3 -43.1 807.8 -40.2 805.1 C -40.2 804.5 -40.2 803.8 -40.2 803.1 C -39.2 802.8 -38.2 802.5 -37.2 802.1 C -35.2 799.5 -33.2 796.5 -33.2 793.1 C -32.2 792.8 -31.2 792.5 -30.2 792.1 C -30 791.5 -29.9 790.8 -29.7 790.1 C -29.5 789.5 -29.4 788.8 -29.2 788.1 C -28.2 787.8 -27.2 787.5 -26.2 787.1 C -25.3 785.5 -24.4 783.9 -23.5 782.2 C -22 779.8 -20.2 777.8 -18.2 775.6 C -15.8 773 -13.8 770.7 -12.2 767.6 C -10.5 764.6 -9 762.6 -6.7 760.1 C -4.5 757.7 -2.7 755.5 -1.2 752.6 C 0.7 749 3.3 746.2 6 743.2 C 8.4 740.4 10.3 737.4 12.3 734.3 C 14.1 731.6 16.2 729.2 18.4 726.8 C 19.9 725.1 19.9 725.1 21.2 722.7 C 23.4 719.1 26.1 715.9 28.8 712.6 C 30.7 710.2 32.2 707.7 33.8 705.1 C 34.7 704 35.7 702.8 36.7 701.8 C 41.8 696.1 41.8 696.1 43.8 689.1 C 44.8 688.8 45.8 688.5 46.8 688.1 C 47.1 687.1 47.4 686.1 47.8 685.1 C 48.4 684.8 49.1 684.5 49.8 684.1 C 50.4 682.8 50.4 682.8 51.1 681.4 C 52.8 678.1 52.8 678.1 55.3 675.1 C 57.6 672.4 58.6 670.4 59.8 667.1 C 60.4 666.5 61.1 665.8 61.8 665.1 C 62.5 663.5 63.1 661.8 63.8 660.1 C 64.7 658.6 65.7 657.1 66.7 655.6 C 70.1 650.6 73.1 645.6 75.8 640.1 C 76.5 638.8 77.1 637.5 77.8 636.1 C 78.9 633.8 80.1 631.5 81.2 629.2 C 82.5 626.7 83.9 624.2 85.3 621.8 C 87.2 618.3 88.7 614.8 90 611.1 C 91.1 608.3 92.4 605.8 93.8 603.2 C 98.4 593.9 102.3 584.3 105.1 574.3 C 105.8 572.1 105.8 572.1 107.8 569.1 C 107.9 568 108.1 566.9 108.2 565.8 C 108.8 562.1 108.8 562.1 110.2 559.8 C 112.1 556.6 112.6 553.8 113.3 550.3 C 113.8 548.1 113.8 548.1 114.8 545 C 115.9 542 115.9 542 116.3 538.4 C 116.8 535.1 116.8 535.1 118.8 532.1 C 119.4 529.4 119.9 526.7 120.3 524 C 121.7 516.3 121.7 516.3 122.8 515.1 C 123.2 511.6 123.6 508.1 123.9 504.6 C 124 503.8 124.1 503.1 124.2 502.3 C 124.3 501.3 124.3 501.3 124.4 500.2 C 124.8 498.1 124.8 498.1 125.8 495.7 C 126.9 492.8 127.1 490.3 127.3 487.1 C 127.4 486 127.5 484.8 127.5 483.6 C 127.6 481.8 127.6 481.8 127.7 479.9 C 128.2 471.8 128.8 463.9 130.4 456 C 132.9 443.5 132.4 431.9 129.6 419.6 C 128.1 412.5 128 405.2 127.6 398 C 127.2 391.3 126.3 385.2 124.5 378.8 C 123.8 376.2 123.5 373.7 123.2 371.1 C 123.1 367.1 123.1 367.1 120.8 364.1 C 120.2 361.1 119.8 358 119.3 354.9 C 118.9 351.9 118.9 351.9 116.8 349.1 C 116.2 346.9 115.8 344.6 115.3 342.3 C 114.8 339.9 114.8 339.9 112.8 337.1 C 112.6 336 112.5 334.9 112.3 333.7 C 111.8 330 111 329 108.8 326.1 C 108.1 323.8 107.4 321.5 106.8 319.1 C 106.1 318.1 105.5 317.1 104.8 316.1 C 104.1 314.1 103.5 312.1 102.8 310.1 C 100.6 304.7 98.1 299.8 94.9 294.9 C 93.6 292.8 92.7 290.5 91.8 288.1 C 91.1 287.5 90.5 286.8 89.8 286.1 C 89.1 284.5 88.4 282.8 87.8 281.1 C 85.8 277.7 83.7 274.6 81.5 271.4 C 78.6 267.3 75.9 263.3 73.1 259.1 C 71.1 256.1 71.1 256.1 68.8 253.1 C 68.1 253.1 67.5 253.1 66.8 253.1 C 66.5 252.4 66.3 251.7 66 250.9 C 63.8 245.7 61 241.9 56.8 238.1 C 56.1 238.1 55.5 238.1 54.8 238.1 C 54.5 237.6 54.3 237 54.1 236.4 C 52.5 233.7 50.7 231.9 48.5 229.8 C 45.9 227.3 43.4 224.8 41.2 222 C 38.7 219 35.9 216.6 32.9 214 C 29.9 211.4 27.2 208.5 24.5 205.6 C 22.9 203.9 22.9 203.9 20.8 204.1 C 20.5 203.5 20.3 203 20 202.4 C 17.2 197.2 12.9 194.8 7.8 192.1 C 7.1 192.1 6.5 192.1 5.8 192.1 C 5.5 191.1 5.1 190.1 4.8 189.1 C 3.8 188.8 2.8 188.5 1.8 188.1 C 1.4 187.5 1 186.9 0.6 186.3 C -1.7 183.6 -4 182.6 -7.3 181.2 C -9.2 180.1 -9.2 180.1 -10.8 178.5 C -12.2 176.8 -12.2 176.8 -15.2 177.1 C -15.5 176.1 -15.9 175.1 -16.2 174.1 C -17.9 173.4 -19.5 172.8 -21.2 172.1 C -21.9 171.1 -22.5 170.1 -23.2 169.1 C -25.8 168.9 -25.8 168.9 -28.2 169.1 C -28.2 168.5 -28.2 167.8 -28.2 167.1 C -29.2 166.7 -30.1 166.2 -31.1 165.8 C -34.2 164.1 -34.2 164.1 -36.2 162.1 C -37.5 161.6 -37.5 161.6 -38.7 161.1 C -41.2 160.1 -41.2 160.1 -43.2 158.1 C -45.2 157.4 -47.2 156.8 -49.2 156.1 C -51.5 155.1 -53.4 154 -55.5 152.6 C -58.8 150.8 -61.6 150.5 -65.2 150.1 C -65.2 149.5 -65.2 148.8 -65.2 148.1 C -65.8 147.9 -66.5 147.7 -67.1 147.5 C -67.9 147.3 -68.7 147 -69.6 146.8 C -70.4 146.5 -71.2 146.2 -72 146 C -74.2 145.1 -74.2 145.1 -76.2 143.1 C -77.3 143 -78.4 142.8 -79.6 142.7 C -83.2 142.1 -83.2 142.1 -85.1 140.7 C -87.9 138.6 -90.7 138.3 -94.2 137.7 C -96.2 137.1 -96.2 137.1 -98.2 135.1 C -100.3 134.7 -100.3 134.7 -102.7 134.6 C -106.2 134.4 -107.2 134.2 -110.2 132.1 C -112.1 131.8 -114 131.4 -116 131.2 C -119.6 130.6 -122.3 130.1 -125.7 128.6 C -130.2 126.7 -134.4 126.6 -139.2 126.4 C -142.2 126.1 -142.2 126.1 -144 125.1 C -146.8 123.8 -149.2 123.7 -152.2 123.6 C -153.4 123.5 -154.6 123.4 -155.8 123.3 C -157 123.3 -158.2 123.2 -159.5 123.1 C -177.3 122.1 -177.3 122.1 -183.2 119.1 C -185.7 119 -188.2 118.9 -190.7 118.9 C -191.9 118.9 -191.9 118.9 -193 118.9 C -194.6 118.9 -196.2 118.9 -197.8 118.9 C -200.2 118.9 -202.7 118.8 -205.1 118.8 C -215.2 118.7 -215.2 118.7 -225 121.4 Z M -1298.2 459.1 C -1299 462.7 -1299 462.7 -1299.2 466.1 C -1300.2 466.1 -1301.2 466.1 -1302.2 466.1 C -1302.5 468.4 -1302.9 470.7 -1303.2 473.1 C -1304.2 473.1 -1305.2 473.1 -1306.2 473.1 C -1306.5 475.1 -1306.9 477.1 -1307.2 479.1 C -1308.2 479.5 -1309.2 479.8 -1310.2 480.1 C -1311.3 482.5 -1311.3 482.5 -1312.2 485.1 C -1313.2 486.6 -1313.2 486.6 -1314.2 488.1 C -1314.2 489.4 -1314.2 490.8 -1314.2 492.1 C -1315.2 492.5 -1316.2 492.8 -1317.2 493.1 C -1317.9 495.1 -1318.6 497.1 -1319.2 499.1 C -1320.2 500.1 -1321.2 501.1 -1322.2 502.1 C -1322.4 502.8 -1322.5 503.5 -1322.7 504.2 C -1323.2 506.1 -1323.2 506.1 -1326.2 508.1 C -1326.2 509.4 -1326.2 510.8 -1326.2 512.1 C -1327.2 512.5 -1328.2 512.8 -1329.2 513.1 C -1329.3 513.9 -1329.4 514.7 -1329.5 515.5 C -1330.2 518.1 -1330.2 518.1 -1333.2 520.1 C -1333.5 523.2 -1333.5 523.2 -1333.2 526.1 C -1334.5 526.5 -1335.9 526.8 -1337.2 527.1 C -1337.4 528.1 -1337.4 528.1 -1337.6 529.1 C -1337.8 529.7 -1338 530.4 -1338.2 531.1 C -1339.2 531.6 -1339.2 531.6 -1340.2 532.1 C -1340.5 533.1 -1340.9 534.1 -1341.2 535.1 C -1342.2 538.1 -1342.2 538.1 -1344.2 539.1 C -1344.6 541.4 -1345 543.8 -1345.2 546.1 C -1346.2 546.1 -1347.2 546.1 -1348.2 546.1 C -1348.5 548.1 -1348.9 550.1 -1349.2 552.1 C -1350.2 552.5 -1351.2 552.8 -1352.2 553.1 C -1353.8 555.9 -1353.8 555.9 -1355.2 559.1 C -1356 560.6 -1356 560.6 -1356.7 562.1 C -1357.8 564.3 -1358.8 566.5 -1359.7 568.8 C -1361.1 571.8 -1362 573 -1364.2 575.1 C -1364.4 575.8 -1364.5 576.5 -1364.7 577.2 C -1365.2 579.1 -1365.2 579.1 -1368.2 581.1 C -1368.2 582.4 -1368.2 583.8 -1368.2 585.1 C -1369.2 585.5 -1370.2 585.8 -1371.2 586.1 C -1371.5 588.1 -1371.9 590.1 -1372.2 592.1 C -1373.2 592.5 -1374.2 592.8 -1375.2 593.1 C -1375.5 594.8 -1375.9 596.4 -1376.2 598.1 C -1377.2 598.5 -1378.2 598.8 -1379.2 599.1 C -1380.8 602.4 -1382 605.6 -1383.3 609 C -1384.2 611.1 -1384.2 611.1 -1386.2 612.1 C -1386.5 613.1 -1386.9 614.1 -1387.2 615.1 C -1388.2 618.1 -1388.2 618.1 -1390.2 619.1 C -1390.6 621.4 -1391 623.8 -1391.2 626.1 C -1392.2 626.1 -1393.2 626.1 -1394.2 626.1 C -1394.8 627.3 -1394.8 627.3 -1395.4 628.6 C -1397.2 632.1 -1399.2 635.5 -1401.2 639 C -1402.5 641.3 -1402.5 641.3 -1402.2 645.1 C -1403.5 645.5 -1404.9 645.8 -1406.2 646.1 C -1406.2 647.8 -1406.2 649.4 -1406.2 651.1 C -1407.1 651.5 -1407.1 651.5 -1408.1 651.8 C -1410.9 653.5 -1411.2 655.1 -1412.2 658.1 C -1412.6 658.8 -1413 659.5 -1413.3 660.3 C -1414.4 662.2 -1414.4 662.2 -1414.2 665.1 C -1415.2 665.5 -1416.2 665.8 -1417.2 666.1 C -1417.3 666.9 -1417.4 667.7 -1417.5 668.5 C -1418.2 671.1 -1418.2 671.1 -1421.2 673.1 C -1421.5 676.2 -1421.5 676.2 -1421.2 679.1 C -1422.5 679.5 -1423.9 679.8 -1425.2 680.1 C -1425.4 681.1 -1425.4 681.1 -1425.6 682.1 C -1425.9 683.1 -1425.9 683.1 -1426.2 684.1 C -1426.9 684.5 -1427.5 684.8 -1428.2 685.1 C -1428.5 686.1 -1428.9 687.1 -1429.2 688.1 C -1430.2 691.1 -1430.2 691.1 -1432.2 692.1 C -1432.5 693.1 -1432.8 694.1 -1433.2 695.1 C -1434.2 698.1 -1434.2 698.1 -1437.2 700.1 C -1437.9 701.8 -1438.6 703.4 -1439.2 705.1 C -1440.4 707.4 -1441.5 709.6 -1442.7 711.9 C -1443.3 713 -1443.9 714.2 -1444.6 715.4 C -1446.2 718.1 -1446.2 718.1 -1448.2 719.1 C -1448.2 721.1 -1448.2 723.1 -1448.2 725.1 C -1448.8 725.2 -1449.5 725.3 -1450.1 725.3 C -1452.5 725.9 -1452.5 725.9 -1453.3 728.5 C -1453.6 729.4 -1453.9 730.2 -1454.2 731.1 C -1454.9 732.1 -1455.5 733.1 -1456.2 734.1 C -1456.2 735.4 -1456.2 736.8 -1456.2 738.1 C -1457.2 738.5 -1458.2 738.8 -1459.2 739.1 C -1459.5 741.1 -1459.9 743.1 -1460.2 745.1 C -1461.2 745.5 -1462.2 745.8 -1463.2 746.1 C -1463.2 748.1 -1463.2 750.1 -1463.2 752.1 C -1464.5 752.5 -1465.9 752.8 -1467.2 753.1 C -1467.5 754.8 -1467.9 756.4 -1468.2 758.1 C -1468.9 758.1 -1469.5 758.1 -1470.2 758.1 C -1470.5 759.1 -1470.8 760.1 -1471.1 761.1 C -1472.2 764.1 -1472.2 764.1 -1474.2 765.1 C -1474.6 767.4 -1475 769.8 -1475.2 772.1 C -1476.2 772.1 -1477.2 772.1 -1478.2 772.1 C -1478.3 773.1 -1478.4 774 -1478.5 775 C -1478.7 776 -1479 777.1 -1479.2 778.1 C -1481.2 779.2 -1481.2 779.2 -1483.2 780.1 C -1484.4 782.5 -1484.4 782.5 -1485.2 785.1 C -1486.9 789.9 -1486.9 789.9 -1490.2 792.1 C -1490.5 795.2 -1490.5 795.2 -1490.2 798.1 C -1491.1 798.2 -1491.1 798.2 -1492.1 798.3 C -1492.8 798.6 -1493.5 798.9 -1494.2 799.1 C -1494.9 800.8 -1495.6 802.4 -1496.2 804.1 C -1497.8 807 -1499.4 809.8 -1501 812.6 C -1502.4 815.1 -1502.4 815.1 -1502.2 818.1 C -1503.2 818.1 -1504.2 818.1 -1505.2 818.1 C -1505.5 820.1 -1505.9 822.1 -1506.2 824.1 C -1507.2 824.5 -1508.2 824.8 -1509.2 825.1 C -1509.5 826.8 -1509.9 828.4 -1510.2 830.1 C -1511.2 830.5 -1512.2 830.8 -1513.2 831.1 C -1512.7 832.6 -1512.7 832.6 -1512.2 834.1 C -1467.4 834.1 -1422.6 834.2 -1377.8 834.2 C -1377.2 834.2 -1376.5 834.2 -1375.8 834.2 C -1361.4 834.2 -1347 834.2 -1332.6 834.2 C -1325.6 834.2 -1318.5 834.2 -1311.5 834.2 C -1310.4 834.2 -1310.4 834.2 -1309.3 834.2 C -1286.5 834.2 -1263.8 834.2 -1241 834.2 C -1216.9 834.2 -1192.8 834.2 -1168.8 834.2 C -1154.3 834.2 -1139.9 834.2 -1125.5 834.2 C -1115.6 834.2 -1105.7 834.2 -1095.8 834.2 C -1090.1 834.2 -1084.4 834.2 -1078.7 834.2 C -1073.5 834.3 -1068.3 834.3 -1063 834.2 C -1061.1 834.2 -1059.3 834.2 -1057.4 834.3 C -1054.8 834.3 -1052.2 834.3 -1049.7 834.3 C -1048.9 834.3 -1048.2 834.3 -1047.4 834.3 C -1044 834.5 -1044 834.5 -1041.2 833.1 C -1041 831.1 -1040.8 829.1 -1040.6 827 C -1040.2 825.1 -1040.2 825.1 -1038.2 823.1 C -1037.8 821 -1037.5 818.8 -1037.2 816.6 C -1036.4 810.3 -1036.4 810.3 -1034.2 808.1 C -1033.8 806 -1033.5 803.8 -1033.2 801.7 C -1032.4 795.5 -1032.4 795.5 -1030.2 792.1 C -1029.8 790.2 -1029.5 788.2 -1029.2 786.2 C -1028.7 782.4 -1028 779.5 -1026.2 776.1 C -1025.8 774.5 -1025.5 772.9 -1025.2 771.3 C -1024.6 768.3 -1024 765.4 -1023.2 762.4 C -1022.1 759.1 -1022.1 759.1 -1021.7 755.3 C -1021.2 752.1 -1021.2 752.1 -1019.2 750.1 C -1018.8 748 -1018.5 745.8 -1018.2 743.7 C -1017.4 737.5 -1017.4 737.5 -1015.2 734.1 C -1014.8 732.1 -1014.5 730.1 -1014.2 728.1 C -1013.7 724.3 -1013.4 722.4 -1011.2 719.1 C -1010.8 717.1 -1010.5 715.1 -1010.2 713.1 C -1009.7 709.3 -1009.4 707.4 -1007.2 704.1 C -1006.8 702 -1006.5 699.8 -1006.2 697.6 C -1005.4 691.5 -1005.4 691.5 -1003.2 688.1 C -1002.8 686 -1002.8 686 -1002.7 683.7 C -1002.5 680.3 -1001.7 678.2 -1000.2 675.1 C -999.6 672.3 -999.2 669.5 -998.8 666.7 C -998.2 664.1 -998.2 664.1 -996.2 661.1 C -995.8 659.1 -995.5 657.1 -995.2 655.1 C -994.7 651.3 -994.4 649.4 -992.2 646.1 C -991.6 642.8 -991.2 639.4 -990.8 636.1 C -990.2 633.1 -990.2 633.1 -988.2 631.1 C -987.8 629 -987.5 626.8 -987.2 624.7 C -986.4 618.5 -986.4 618.5 -984.2 615.1 C -983.8 613.1 -983.5 611.1 -983.2 609.1 C -982.7 605.3 -982.4 603.4 -980.2 600.1 C -979.8 597.7 -979.8 597.7 -979.7 595.1 C -979.5 591.5 -979.3 590.3 -977.2 587.1 C -976.8 585.1 -976.5 583.1 -976.2 581.1 C -975.7 577.3 -975.4 575.4 -973.2 572.1 C -972.6 569 -972.2 566 -971.8 562.8 C -971.2 560.1 -971.2 560.1 -969.2 558.1 C -968.8 556 -968.5 553.8 -968.2 551.7 C -967.4 545.5 -967.4 545.5 -965.2 542.1 C -964.8 540.1 -964.5 538.1 -964.2 536.1 C -963.7 532.3 -963.4 530.4 -961.2 527.1 C -960.9 524.8 -960.9 524.8 -960.8 522.3 C -960.4 517.9 -959.2 515.1 -957.2 511.1 C -956.9 508.8 -956.7 506.6 -956.5 504.3 C -956.2 502.1 -956.2 502.1 -955.2 500.2 C -953.5 496.7 -953.3 492.8 -952.8 488.9 C -952.2 486.1 -952.2 486.1 -950.2 483.1 C -949.8 481.3 -949.5 479.5 -949.2 477.6 C -948.7 474 -948.3 472.3 -946.2 469.1 C -945.7 466.4 -945.7 466.4 -945.5 463.5 C -945.4 462.5 -945.4 461.5 -945.3 460.5 C -945.2 459.7 -945.2 458.9 -945.2 458.1 C -947 456.4 -949.4 457 -951.8 457 C -953 457 -954.2 457 -955.4 457 C -956.8 457 -958.2 457 -959.5 457 C -961 457 -962.4 457 -963.8 457 C -967.8 457 -971.7 457 -975.7 457 C -980 457 -984.2 457 -988.5 457 C -996.8 457 -1005.2 457 -1013.5 457 C -1020.3 457 -1027.1 457 -1033.9 457 C -1053.1 456.9 -1072.4 456.9 -1091.6 456.9 C -1093.2 456.9 -1093.2 456.9 -1094.7 456.9 C -1095.8 456.9 -1096.8 456.9 -1097.9 456.9 C -1114.7 456.9 -1131.6 456.9 -1148.4 456.9 C -1165.7 456.9 -1183 456.9 -1200.3 456.9 C -1210 456.9 -1219.7 456.9 -1229.4 456.9 C -1237.6 456.9 -1245.9 456.9 -1254.2 456.9 C -1258.4 456.9 -1262.6 456.9 -1266.8 456.9 C -1270.7 456.9 -1274.5 456.9 -1278.4 456.9 C -1279.8 456.9 -1281.2 456.9 -1282.6 456.9 C -1284.5 456.9 -1286.4 456.9 -1288.3 456.9 C -1289.3 456.9 -1290.4 456.9 -1291.5 456.9 C -1294.3 457.1 -1295.9 457.5 -1298.2 459.1 Z M -885.2 460.1 C -886.1 462.9 -886.1 462.9 -886.3 466 C -886.8 470.1 -887.7 473.3 -889.2 477.1 C -889.5 479.5 -889.7 481.8 -889.9 484.1 C -890.2 486.1 -890.2 486.1 -892.2 488.1 C -892.6 490.3 -892.9 492.5 -893.2 494.6 C -894 500.9 -894 500.9 -896.2 503.1 C -896.5 505.5 -896.7 507.9 -896.8 510.3 C -896.9 511.5 -897 512.8 -897.1 514.1 C -897.1 515.6 -897.1 515.6 -897.2 517.1 C -897.9 517.1 -898.5 517.1 -899.2 517.1 C -899.4 518 -899.4 518 -899.6 518.8 C -902.5 532.4 -902.5 532.4 -904.2 534.1 C -904.8 537.4 -905.2 540.7 -905.6 544 C -906.2 547.1 -906.2 547.1 -908.2 550.1 C -908.6 552.2 -909 554.2 -909.3 556.3 C -910.1 562 -910.1 562 -911.2 563.1 C -911.5 564.8 -911.8 566.5 -912.1 568.3 C -912.7 571.8 -913.4 574.4 -914.8 577.8 C -916.3 581.4 -916.7 584.3 -916.9 588.2 C -917.2 590.1 -917.2 590.1 -919.2 592.1 C -919.6 594.3 -919.9 596.5 -920.2 598.6 C -921 604.9 -921 604.9 -923.2 607.1 C -923.6 609.3 -923.9 611.4 -924.2 613.6 C -925 619.8 -925 619.8 -927.2 623.1 C -927.6 625.1 -927.9 627 -928.2 629 C -928.8 633 -929.7 636.4 -931.2 640.1 C -931.6 641.9 -931.9 643.7 -932.2 645.5 C -933.1 650.5 -934.2 655.3 -935.9 660.2 C -937.7 665.3 -938.9 670.3 -939.7 675.7 C -940.2 678.1 -940.2 678.1 -942.2 681.1 C -942.8 684.5 -943.2 687.8 -943.7 691.2 C -944.2 694.1 -944.2 694.1 -946.2 696.1 C -946.6 698.3 -946.9 700.5 -947.2 702.6 C -948 708.9 -948 708.9 -950.2 711.1 C -950.6 713.2 -950.9 715.2 -951.2 717.3 C -951.9 722.1 -952.8 726.5 -954.2 731.1 C -954.6 732.6 -954.9 734 -955.3 735.5 C -956.2 739.1 -956.2 739.1 -957.2 740.1 C -957.8 743.4 -958.2 746.7 -958.6 750 C -959.2 753.1 -959.2 753.1 -961.2 756.1 C -961.8 758.9 -962.2 761.8 -962.7 764.6 C -963.2 767.1 -963.2 767.1 -965.2 769.1 C -965.6 771.3 -965.9 773.4 -966.2 775.6 C -967 781.8 -967 781.8 -969.2 785.1 C -969.7 788.3 -969.7 788.3 -969.8 791.8 C -969.9 793 -970 794.2 -970.1 795.4 C -970.1 796.3 -970.2 797.2 -970.2 798.1 C -970.9 798.1 -971.5 798.1 -972.2 798.1 C -972.4 799.1 -972.6 800.2 -972.8 801.2 C -973.1 802.5 -973.3 803.9 -973.6 805.3 C -973.8 806.2 -973.8 806.2 -974 807.3 C -974.8 811.4 -975.9 815.2 -977.2 819.1 C -977.6 820.6 -977.9 822.2 -978.2 823.7 C -978.9 827 -979.8 830 -981.2 833.1 C -980.2 834.4 -980.2 834.4 -977.9 834.3 C -976.9 834.3 -975.8 834.3 -974.7 834.3 C -973.6 834.3 -972.4 834.3 -971.1 834.3 C -969.8 834.3 -968.4 834.3 -967.1 834.2 C -965.7 834.2 -964.3 834.2 -962.9 834.2 C -959 834.3 -955.1 834.2 -951.2 834.2 C -947 834.2 -942.8 834.2 -938.6 834.2 C -931.3 834.2 -924 834.2 -916.8 834.2 C -906.3 834.2 -895.7 834.2 -885.2 834.2 C -868.1 834.2 -851.1 834.2 -834 834.2 C -817.4 834.2 -800.9 834.2 -784.3 834.2 C -783.3 834.2 -782.2 834.2 -781.2 834.2 C -776.1 834.2 -770.9 834.2 -765.8 834.2 C -723.3 834.2 -680.7 834.1 -638.2 834.1 C -637.9 833.5 -637.6 832.8 -637.2 832.1 C -637.6 831 -637.6 831 -638.1 829.9 C -639.2 827.1 -639.2 827.1 -639.7 823.6 C -640 820.3 -640 820.3 -641.2 818.3 C -642.4 815.7 -642.8 813.5 -643.2 810.7 C -643.7 807.8 -644.1 805.3 -645.2 802.6 C -646.2 800.1 -646.5 798.3 -646.7 795.8 C -647.1 791.4 -648.5 788.1 -650.2 784.1 C -650.8 781.6 -651.3 779.1 -651.7 776.5 C -652.4 773.3 -653.3 770.3 -654.2 767.1 C -654.6 765.8 -654.9 764.4 -655.2 763 C -655.8 760.7 -656.4 758.8 -657.3 756.6 C -658.2 754.3 -658.5 752.5 -658.7 750 C -658.9 746.1 -658.9 746.1 -661.2 743.1 C -661.6 741.2 -661.9 739.2 -662.2 737.2 C -662.7 733.4 -663.5 730.5 -665.2 727.1 C -665.5 725 -665.5 725 -665.7 722.8 C -666 718.4 -667.4 715.2 -669.2 711.1 C -669.8 708.6 -670.3 706 -670.7 703.5 C -671.2 701 -671.2 701 -672.3 698 C -673.1 695.5 -673.4 693.5 -673.7 690.9 C -673.8 687.1 -673.8 687.1 -676.2 685.1 C -676.6 683 -676.9 680.8 -677.2 678.7 C -677.8 673.6 -677.8 673.6 -680.2 669.1 C -680.8 666.1 -681.2 663 -681.7 659.9 C -682.1 656.9 -682.1 656.9 -684.2 654.1 C -684.7 652.1 -685 650 -685.3 647.9 C -685.5 646.9 -685.7 645.8 -685.8 644.6 C -686 643.8 -686.1 643 -686.2 642.1 C -686.9 642.1 -687.5 642.1 -688.2 642.1 C -688.2 641.3 -688.3 640.6 -688.3 639.7 C -688.7 633.5 -689.6 628.9 -692.2 623.1 C -692.6 620.8 -692.8 618.5 -692.9 616.1 C -693.1 613.8 -693.1 613.8 -695.2 611.1 C -695.8 608.1 -696.2 605 -696.7 601.9 C -697.1 598.9 -697.1 598.9 -699.2 596.1 C -699.8 592.8 -700.2 589.4 -700.7 586.1 C -700.9 583 -700.9 583 -703.2 581.1 C -703.6 579 -703.9 576.8 -704.2 574.7 C -704.8 569.6 -704.8 569.6 -707.2 565.1 C -707.5 563.1 -707.5 563.1 -707.7 560.8 C -707.9 557.7 -708.3 556 -709.7 553.1 C -711.4 549.7 -711.6 547.1 -711.9 543.3 C -712.2 540.8 -712.2 540.8 -713.7 537.6 C -715.3 533.9 -715.7 531 -715.9 527 C -716.1 524.9 -716.1 524.9 -718.2 523.1 C -718.6 521 -718.9 518.8 -719.2 516.7 C -719.8 511.6 -719.8 511.6 -722.2 507.1 C -722.8 504.1 -723.2 501 -723.7 497.9 C -724.1 494.9 -724.1 494.9 -726.2 492.1 C -726.6 490.2 -726.9 488.2 -727.2 486.2 C -727.7 482.3 -728.5 479.6 -730.2 476.1 C -730.8 473.2 -731.2 470.3 -731.6 467.3 C -732.1 464.7 -732.7 462.8 -733.8 460.4 C -734.2 459.3 -734.7 458.2 -735.2 457.1 C -754.2 457.1 -773.1 457 -792.1 457 C -800.9 457 -809.7 456.9 -818.5 456.9 C -826.2 456.9 -833.9 456.9 -841.6 456.8 C -845.6 456.8 -849.7 456.8 -853.8 456.8 C -857.6 456.8 -861.4 456.8 -865.2 456.8 C -866.6 456.8 -868 456.8 -869.4 456.8 C -871.4 456.8 -873.3 456.8 -875.2 456.8 C -876.3 456.8 -877.3 456.8 -878.4 456.8 C -881.6 457.2 -883 457.9 -885.2 460.1 Z M -674.2 457.1 C -674.5 458.1 -674.9 459.1 -675.2 460.1 C -674.8 461 -674.3 461.9 -673.8 462.8 C -672.4 465.8 -672 467.4 -671.7 470.6 C -671.5 473.7 -671.1 475.3 -669.7 478.1 C -668.3 481 -668 482.5 -667.7 485.6 C -667.4 489.9 -666 493.1 -664.2 497.1 C -663.6 499.7 -663.1 502.2 -662.7 504.8 C -662.2 507.3 -662.2 507.3 -661.2 510.3 C -660.3 512.8 -660 514.8 -659.7 517.4 C -659.6 521.1 -659.6 521.1 -657.2 523.1 C -656.6 526.5 -656.2 529.8 -655.8 533.2 C -655.5 536.2 -655.5 536.2 -653.2 538.1 C -652.8 540.3 -652.5 542.4 -652.2 544.6 C -651.6 549.7 -651.6 549.7 -649.2 554.1 C -648.6 557.2 -648.2 560.2 -647.8 563.3 C -647.4 566.3 -647.4 566.3 -645.2 569.1 C -644.8 571.7 -644.7 574.3 -644.6 576.8 C -644.4 579.3 -644.4 579.3 -642.2 581.1 C -641.6 584.5 -641.2 587.8 -640.8 591.2 C -640.5 594.2 -640.5 594.2 -638.2 596.1 C -637.8 598.3 -637.5 600.4 -637.2 602.6 C -636.6 607.7 -636.6 607.7 -634.2 612.1 C -633.6 615.2 -633.2 618.2 -632.8 621.3 C -632.4 624.3 -632.4 624.3 -630.2 627.1 C -629.6 630.2 -629.2 633.2 -628.8 636.3 C -628.4 639.3 -628.4 639.3 -626.2 642.1 C -625.9 644.4 -625.9 644.4 -625.8 646.9 C -625.4 651.4 -624.2 654.2 -622.2 658.1 C -621.9 660.4 -621.7 662.6 -621.5 664.9 C -621.1 668.2 -619.6 671.1 -618.2 674.1 C -618 675.5 -617.8 677 -617.7 678.4 C -617.5 682.2 -617.5 682.2 -615.2 685.1 C -614.6 688.2 -614.2 691.2 -613.8 694.3 C -613.4 697.3 -613.4 697.3 -611.2 700.1 C -610.6 703.2 -610.2 706.2 -609.8 709.3 C -609.4 712.3 -609.4 712.3 -607.2 715.1 C -606.6 718.4 -606.2 721.8 -605.8 725.1 C -605.4 728.3 -605.4 728.3 -603.2 731.1 C -602.9 733.4 -602.9 733.4 -602.8 735.9 C -602.4 740.4 -601.2 743.2 -599.2 747.1 C -599 748.6 -598.8 750.1 -598.7 751.6 C -598.5 754.7 -598.1 756.3 -596.7 759.1 C -595 762.5 -594.8 765.2 -594.5 768.9 C -594.1 772.2 -592.6 775.1 -591.2 778.1 C -591 779.5 -590.8 781 -590.7 782.4 C -590.5 786.2 -590.5 786.2 -588.2 789.1 C -587.6 792.2 -587.2 795.2 -586.8 798.3 C -586.4 801.3 -586.4 801.3 -584.2 804.1 C -583.9 806.4 -583.9 806.4 -583.8 808.9 C -583.4 813.4 -582.2 816.2 -580.2 820.1 C -579.9 822.4 -579.7 824.7 -579.5 827 C -579.2 829.4 -578.5 831 -577.2 833.1 C -574.3 834.6 -571.9 834.2 -568.7 834.2 C -567.7 834.2 -567.7 834.2 -566.7 834.2 C -564.4 834.3 -562.1 834.2 -559.8 834.2 C -558.2 834.2 -556.6 834.2 -555 834.2 C -550.5 834.2 -546.1 834.2 -541.7 834.2 C -537.1 834.2 -532.5 834.2 -527.8 834.2 C -519.1 834.2 -510.3 834.2 -501.6 834.2 C -491.6 834.2 -481.7 834.2 -471.7 834.2 C -451.2 834.2 -430.7 834.1 -410.2 834.1 C -410.6 833.7 -411 833.2 -411.5 832.7 C -412.3 831.8 -412.3 831.8 -413.1 830.8 C -413.6 830.2 -414.2 829.6 -414.7 828.9 C -416.2 827.1 -416.2 827.1 -418 824.2 C -418.4 823.5 -418.8 822.8 -419.2 822.1 C -419.9 822.1 -420.5 822.1 -421.2 822.1 C -421.2 820.8 -421.2 819.5 -421.2 818.1 C -422.4 816.9 -423.5 815.8 -424.7 814.7 C -426.5 812.9 -427.7 810.9 -429.1 808.8 C -431.6 804.8 -434.5 801.4 -437.7 797.9 C -440 795.2 -441.7 792.4 -443.1 789.1 C -444.3 786.9 -445.9 785.5 -447.7 783.8 C -450.5 780.7 -452.8 777.2 -455.3 773.8 C -456.8 771.7 -458.3 769.7 -460 767.8 C -462.2 765.1 -462.2 765.1 -463.6 762.8 C -465.4 759.9 -467.4 757.4 -469.7 754.8 C -474.5 748.9 -474.5 748.9 -476.3 745.4 C -478.4 741.8 -480.8 739 -483.6 736 C -485.5 733.8 -486.8 731.6 -488.2 729.1 C -489.4 727.7 -490.7 726.3 -491.9 724.9 C -494 722.1 -495.5 719.1 -497 716 C -498.2 713.8 -498.2 713.8 -501.2 713.1 C -501.9 711.1 -502.6 709.1 -503.2 707.1 C -505 703.4 -505 703.4 -508.2 701.1 C -508.9 699.1 -509.6 697.1 -510.2 695.1 C -510.9 695.1 -511.5 695.1 -512.2 695.1 C -512.6 694 -512.6 694 -513.1 692.8 C -514.1 690 -514.1 690 -516.2 688.1 C -516.9 686.5 -517.6 684.8 -518.2 683.1 C -519.7 678.3 -519.7 678.3 -523.2 675.1 C -524.3 673.2 -525.3 671.1 -526.2 669.1 C -528.3 664.8 -530.5 660.6 -532.8 656.4 C -534.6 653.4 -536 650.4 -537.2 647.1 C -537.8 645.9 -538.5 644.6 -539.1 643.4 C -542 637.6 -544.7 631.7 -546.8 625.6 C -547.8 622.1 -547.8 622.1 -550.2 621.1 C -550.8 619.3 -550.8 619.3 -551.2 617.2 C -551.8 614.2 -552 613.3 -554.2 611.1 C -554.4 610 -554.5 608.9 -554.7 607.8 C -555.2 603.9 -556 603.1 -558.2 600.1 C -558.8 598.1 -559.3 596.1 -559.7 594 C -560.2 591.8 -560.2 591.8 -562.2 589.1 C -562.9 586.8 -563.6 584.5 -564.2 582.1 C -564.6 581.3 -564.9 580.5 -565.3 579.6 C -566.2 577.1 -566.2 577.1 -566.7 573.4 C -566.9 570.1 -566.9 570.1 -569.2 568.1 C -569.8 565.1 -570.2 562 -570.7 558.9 C -571 556 -571 556 -573.2 554.1 C -573.6 552 -573.9 549.9 -574.2 547.8 C -574.7 543.7 -575.4 540.7 -577.2 537.1 C -577.6 534.3 -577.7 531.5 -577.9 528.7 C -578.1 525.9 -578.1 525.9 -580.2 523.1 C -580.6 521.1 -580.6 521.1 -580.8 518.9 C -580.9 517.6 -580.9 517.6 -581 516.4 C -581.1 515.5 -581.1 514.6 -581.2 513.8 C -581.6 508.5 -582 504 -584.2 499.1 C -585.2 493.6 -585.2 488 -585.1 482.3 C -585 473.9 -585.8 466.3 -588.2 458.1 C -590 456.3 -592.4 457 -594.7 457 C -595.5 457 -596.3 457 -597.1 457 C -598 457 -598.8 457 -599.6 457 C -602.4 457 -605.1 457 -607.9 457 C -609.8 457 -611.7 457 -613.6 457 C -618.6 457 -623.7 457 -628.7 457.1 C -633.8 457.1 -638.9 457.1 -644 457.1 C -654.1 457.1 -664.2 457.1 -674.2 457.1 Z M -1059 892 C -1060.1 892 -1060.1 892 -1061.2 892 C -1063.5 892 -1065.9 892 -1068.3 892 C -1070 892 -1071.7 892 -1073.4 892 C -1078.1 892.1 -1082.9 892.1 -1087.6 892.1 C -1092.7 892.1 -1097.7 892.1 -1102.8 892.1 C -1112.8 892.1 -1122.8 892.2 -1132.8 892.2 C -1140.9 892.2 -1149.1 892.2 -1157.2 892.2 C -1158.4 892.2 -1159.5 892.3 -1160.7 892.3 C -1163.1 892.3 -1165.4 892.3 -1167.8 892.3 C -1189.9 892.3 -1212.1 892.4 -1234.3 892.4 C -1253.1 892.5 -1272 892.5 -1290.9 892.6 C -1312.9 892.6 -1334.9 892.7 -1356.9 892.7 C -1359.3 892.7 -1361.6 892.7 -1364 892.7 C -1365.2 892.7 -1366.3 892.7 -1367.5 892.7 C -1375.6 892.8 -1383.7 892.8 -1391.8 892.8 C -1438.9 892.9 -1486.1 893 -1533.2 894.1 C -1534.4 897.6 -1534.3 900.7 -1534.3 904.4 C -1534.3 905.1 -1534.3 905.9 -1534.3 906.6 C -1534.3 909.2 -1534.3 911.7 -1534.3 914.2 C -1534.3 916.1 -1534.3 917.9 -1534.3 919.7 C -1534.3 924.8 -1534.3 929.9 -1534.3 934.9 C -1534.3 940.5 -1534.3 946 -1534.3 951.5 C -1534.3 961.1 -1534.3 970.8 -1534.3 980.4 C -1534.2 994.8 -1534.2 1009.2 -1534.2 1023.5 C -1534.2 1047.7 -1534.2 1071.8 -1534.1 1096 C -1534.1 1119.9 -1534.1 1143.8 -1534.1 1167.8 C -1534.1 1168.5 -1534.1 1169.2 -1534.1 1170 C -1534 1176.8 -1534 1183.6 -1534 1190.3 C -1534 1207.2 -1534 1224.1 -1534 1240.9 C -1534 1241.7 -1534 1242.5 -1534 1243.3 C -1533.9 1280.6 -1533.9 1318 -1533.9 1355.4 C -1533.8 1368.3 -1533.8 1381.3 -1533.8 1394.3 C -1533.8 1395.1 -1533.8 1395.9 -1533.8 1396.7 C -1533.8 1434.1 -1533.7 1471.5 -1533.7 1508.9 C -1533.7 1511.3 -1533.7 1513.7 -1533.7 1516.1 C -1533.7 1532.2 -1533.7 1548.3 -1533.6 1564.4 C -1533.6 1596.4 -1533.6 1628.4 -1533.5 1660.4 C -1533.5 1661.9 -1533.5 1663.4 -1533.5 1664.9 C -1533.5 1746 -1533.4 1827.2 -1533.2 1969.1 C -1530.2 1970.1 -1528.3 1970.2 -1525.2 1970.2 C -1524.2 1970.2 -1523.2 1970.2 -1522.1 1970.2 C -1521 1970.2 -1519.9 1970.2 -1518.8 1970.2 C -1516.5 1970.1 -1514.1 1970.1 -1511.8 1970.1 C -1508.1 1970.1 -1504.5 1970.1 -1500.8 1970 C -1497.3 1970 -1493.7 1970 -1490.2 1970 C -1489.1 1970 -1488 1969.9 -1486.9 1969.9 C -1485.8 1969.9 -1484.8 1969.9 -1483.7 1969.9 C -1482.8 1969.9 -1481.9 1969.9 -1481 1969.9 C -1478.2 1970.1 -1478.2 1970.1 -1475.1 1971.1 C -1470.6 1972.5 -1466.2 1972.4 -1461.4 1972.4 C -1460.5 1972.4 -1459.5 1972.4 -1458.5 1972.4 C -1455.2 1972.4 -1452 1972.4 -1448.7 1972.4 C -1446.3 1972.4 -1443.9 1972.4 -1441.6 1972.4 C -1436.4 1972.4 -1431.2 1972.4 -1426 1972.4 C -1418.3 1972.4 -1410.5 1972.4 -1402.7 1972.4 C -1389.5 1972.4 -1376.3 1972.4 -1363.1 1972.4 C -1349.7 1972.4 -1336.2 1972.4 -1322.8 1972.5 C -1322 1972.5 -1321.1 1972.5 -1320.3 1972.5 C -1316 1972.5 -1311.6 1972.5 -1307.3 1972.5 C -1276.1 1972.5 -1244.8 1972.5 -1213.6 1972.5 C -1182.7 1972.5 -1151.7 1972.5 -1120.8 1972.6 C -1119.8 1972.6 -1118.9 1972.6 -1117.9 1972.6 C -1109.1 1972.6 -1100.3 1972.6 -1091.5 1972.6 C -1069.7 1972.6 -1047.9 1972.6 -1026.1 1972.6 C -1024.6 1972.6 -1024.6 1972.6 -1023.1 1972.6 C -974.8 1972.7 -926.4 1972.7 -878.1 1972.7 C -861.3 1972.7 -844.5 1972.7 -827.8 1972.7 C -826.2 1972.7 -826.2 1972.7 -824.6 1972.7 C -776.3 1972.8 -727.9 1972.8 -679.6 1972.8 C -676.4 1972.8 -673.2 1972.8 -670.1 1972.8 C -637.1 1972.8 -604.2 1972.9 -571.2 1972.9 C -570.3 1972.9 -569.3 1972.9 -568.3 1972.9 C -566.6 1972.9 -564.9 1972.9 -563.2 1972.9 C -403.5 1973 -243.9 1973 -84.2 1973.1 C -84.2 1638.8 -84.2 1304.5 -84.2 960.1 C -86.8 961.4 -87.2 962.8 -88.5 965.4 C -90.6 969.3 -93 972 -96.2 975.1 C -96.9 977.2 -96.9 977.2 -97.2 979.1 C -98.5 980.5 -98.5 980.5 -100.2 982.1 C -103.8 985.6 -103.8 985.6 -105.2 990.1 C -106.7 990.6 -106.7 990.6 -108.2 991.1 C -108.6 992.2 -108.6 992.2 -109 993.3 C -110.4 996.7 -112.5 998.9 -115 1001.6 C -116.4 1003.1 -116.4 1003.1 -116.2 1005.1 C -117.7 1005.6 -117.7 1005.6 -119.2 1006.1 C -119.9 1007.8 -120.6 1009.4 -121.2 1011.1 C -122.2 1012.1 -123.2 1013.2 -124.2 1014.1 C -124.2 1014.8 -124.2 1015.4 -124.2 1016.1 C -125.7 1016.6 -125.7 1016.6 -127.2 1017.1 C -127.4 1017.8 -127.5 1018.4 -127.7 1019.1 C -127.9 1019.8 -128 1020.4 -128.2 1021.1 C -129.2 1021.5 -130.2 1021.8 -131.2 1022.1 C -132.3 1024.5 -132.3 1024.5 -133.2 1027.1 C -134.2 1029.4 -134.2 1029.4 -135.2 1031.1 C -136.2 1031.5 -137.2 1031.8 -138.2 1032.1 C -138.4 1032.8 -138.5 1033.4 -138.7 1034.1 C -138.9 1034.8 -139 1035.4 -139.2 1036.1 C -140.2 1036.5 -141.2 1036.8 -142.2 1037.1 C -142.4 1037.7 -142.5 1038.3 -142.7 1038.9 C -143.4 1041.9 -145.1 1043.1 -147.2 1045.1 C -147.2 1045.8 -147.2 1046.4 -147.2 1047.1 C -148.2 1047.5 -149.2 1047.8 -150.2 1048.1 C -151.8 1050.2 -153.3 1052.3 -154.7 1054.5 C -158.9 1060.8 -158.9 1060.8 -161 1062.9 C -162.6 1064.2 -162.6 1064.2 -162.2 1067.1 C -163.2 1067.5 -164.2 1067.8 -165.2 1068.1 C -165.5 1069.8 -165.9 1071.4 -166.2 1073.1 C -167.2 1073.5 -168.2 1073.8 -169.2 1074.1 C -171 1076 -171 1076 -172.7 1078.4 C -173.3 1079.2 -173.9 1080 -174.6 1080.8 C -176.3 1083.2 -176.3 1083.2 -177.8 1086 C -179.5 1088.6 -181.5 1089.6 -184.2 1091.1 C -184.2 1091.8 -184.2 1092.4 -184.2 1093.1 C -185.6 1093.3 -185.6 1093.3 -187.1 1093.5 C -190.3 1093.8 -190.3 1093.8 -192.2 1096.1 C -194.1 1096.4 -194.1 1096.4 -196.3 1096.3 C -197.6 1096.3 -197.6 1096.3 -198.8 1096.3 C -199.6 1096.3 -200.5 1096.3 -201.3 1096.3 C -202.2 1096.2 -203 1096.2 -203.9 1096.2 C -206 1096.2 -208.1 1096.2 -210.2 1096.1 C -210.2 1095.5 -210.2 1094.8 -210.2 1094.1 C -211.3 1094 -212.4 1094 -213.6 1093.9 C -217.2 1093.1 -217.2 1093.1 -218.7 1091.1 C -218.8 1090.4 -219 1089.8 -219.2 1089.1 C -219.9 1089.1 -220.5 1089.1 -221.2 1089.1 C -221.9 1087.8 -222.5 1086.5 -223.2 1085.1 C -223.9 1085.1 -224.5 1085.1 -225.2 1085.1 C -225.9 1083.5 -226.5 1081.8 -227.2 1080.1 C -227.9 1080.1 -228.5 1080.1 -229.2 1080.1 C -229.4 1079.3 -229.6 1078.4 -229.8 1077.6 C -231.8 1072.7 -235 1069.2 -238.8 1065.6 C -240.7 1063.7 -241.3 1061.6 -242.2 1059.1 C -242.9 1059.1 -243.5 1059.1 -244.2 1059.1 C -244.3 1058.5 -244.4 1057.9 -244.5 1057.3 C -245.3 1054.8 -246.3 1053.9 -248.2 1052.1 C -248.9 1051.1 -249.5 1050.1 -250.2 1049.1 C -250.9 1049.1 -251.5 1049.1 -252.2 1049.1 C -252.4 1047.9 -252.4 1047.9 -252.6 1046.7 C -252.8 1045.8 -253 1045 -253.2 1044.1 C -253.9 1043.8 -254.5 1043.5 -255.2 1043.1 C -255.5 1042.5 -255.7 1042 -256 1041.4 C -257.2 1038.9 -257.2 1038.9 -259.7 1036.8 C -262.3 1034 -263.7 1031.6 -265.2 1028.1 C -265.9 1028.1 -266.5 1028.1 -267.2 1028.1 C -267.3 1027.6 -267.3 1027 -267.4 1026.4 C -268.1 1023.9 -268.1 1023.9 -270.6 1021.8 C -273.3 1019 -274.5 1016.6 -276.2 1013.1 C -277.9 1011.4 -279.5 1009.8 -281.2 1008.1 C -282.2 1006.5 -283.2 1004.8 -284.2 1003.1 C -284.9 1002.8 -285.5 1002.5 -286.2 1002.1 C -286.3 1001.5 -286.4 1001 -286.5 1000.4 C -287.1 997.9 -287.1 997.9 -289.4 995.9 C -291.8 993.6 -293.3 991.6 -295.1 988.8 C -297.6 984.8 -300.5 981.4 -303.7 977.9 C -306 975.2 -307.7 972.4 -309.1 969.1 C -310.3 966.9 -311.9 965.5 -313.7 963.8 C -316.5 960.7 -318.8 957.2 -321.3 953.8 C -322.8 951.7 -324.3 949.7 -326 947.8 C -328.2 945.1 -328.2 945.1 -329.6 942.8 C -331.4 939.9 -333.4 937.4 -335.7 934.8 C -340.5 928.9 -340.5 928.9 -342.3 925.4 C -344.4 921.8 -346.8 919.1 -349.6 916 C -351.5 913.8 -352.8 911.6 -354.2 909.1 C -355.7 906.9 -355.7 906.9 -357.2 905.1 C -357.9 905.1 -358.5 905.1 -359.2 905.1 C -359.6 904.1 -359.6 904.1 -360 903 C -362.5 897.1 -362.5 897.1 -367.3 893 C -371.1 891.9 -374.6 891.9 -378.4 891.9 C -379.6 891.9 -379.6 891.9 -380.9 891.9 C -383.6 891.9 -386.4 892 -389.1 892 C -391.1 892 -393.1 892 -395 892 C -400.4 892 -405.7 892.1 -411.1 892.1 C -416.7 892.1 -422.3 892.2 -427.8 892.2 C -437.2 892.2 -446.6 892.3 -456 892.3 C -466.8 892.4 -477.7 892.5 -488.6 892.5 C -500.1 892.6 -511.7 892.7 -523.2 892.7 C -526.5 892.7 -529.9 892.8 -533.2 892.8 C -538.5 892.8 -543.7 892.8 -548.9 892.9 C -550.8 892.9 -552.8 892.9 -554.7 892.9 C -557.3 892.9 -559.9 892.9 -562.5 893 C -563.3 893 -564.1 893 -564.9 893 C -568.3 892.7 -568.3 892.7 -571.2 894.1 C -571.3 896.8 -571.3 899.5 -571.3 902.2 C -571.3 903.1 -571.3 904 -571.3 904.9 C -571.3 907.8 -571.3 910.7 -571.3 913.7 C -571.3 915.8 -571.3 917.9 -571.3 920 C -571.3 925.9 -571.3 931.7 -571.3 937.5 C -571.3 943.8 -571.3 950.1 -571.3 956.4 C -571.3 967.3 -571.3 978.2 -571.3 989.1 C -571.3 1004.9 -571.3 1020.6 -571.3 1036.4 C -571.3 1043.7 -571.3 1051.1 -571.3 1058.4 C -571.3 1059.2 -571.3 1059.9 -571.3 1060.7 C -571.3 1078.2 -571.2 1095.7 -571.2 1113.2 C -571.2 1114 -571.2 1114.7 -571.2 1115.5 C -571.2 1128 -571.2 1140.4 -571.2 1152.8 C -571.2 1164.5 -571.2 1176.1 -571.2 1187.7 C -571.2 1188.5 -571.2 1189.3 -571.2 1190.1 C -571.2 1207.5 -571.2 1225 -571.2 1242.5 C -571.2 1243.2 -571.2 1243.9 -571.2 1244.7 C -571.2 1252 -571.2 1259.3 -571.2 1266.7 C -571.2 1282.4 -571.1 1298.2 -571.1 1313.9 C -571.1 1325.4 -571.1 1336.9 -571.1 1348.4 C -571.1 1354.6 -571.1 1360.8 -571.1 1367.1 C -571.1 1372.8 -571.1 1378.5 -571.1 1384.2 C -571.1 1386.2 -571.1 1388.3 -571.1 1390.3 C -571 1419.1 -571 1419.1 -575.8 1424.2 C -578.5 1426.8 -578.5 1426.8 -579.2 1430.1 C -579.8 1430.4 -580.5 1430.7 -581.1 1431 C -583.3 1432.1 -583.3 1432.1 -585.2 1434.1 C -591.8 1438 -598.8 1437.8 -606.2 1437.1 C -607.2 1436.5 -608.2 1435.8 -609.2 1435.1 C -610.2 1434.8 -611.2 1434.5 -612.2 1434.2 C -615.1 1433.2 -616.2 1432.4 -618.2 1430.1 C -618.9 1430.1 -619.5 1430.1 -620.2 1430.1 C -620.5 1429.1 -620.9 1428.1 -621.2 1427.1 C -623 1424.9 -623 1424.9 -625.2 1423.1 C -626.5 1423.1 -627.9 1423.1 -629.2 1423.1 C -629.5 1422.1 -629.9 1421.1 -630.2 1420.1 C -631.7 1418.6 -631.7 1418.6 -633.7 1417.1 C -638.1 1413.3 -642.1 1409.2 -646.1 1405.1 C -648 1402.9 -648 1402.9 -650.2 1403.1 C -650.4 1402.5 -650.7 1402 -650.9 1401.4 C -652.6 1398.5 -654.6 1397.2 -657.2 1395.1 C -658.2 1394 -659.2 1392.9 -660.2 1391.7 C -662.1 1389.3 -664.1 1387.3 -666.5 1385.3 C -669.2 1383.1 -669.2 1383.1 -670.2 1381.1 C -671.2 1381.1 -672.2 1381.1 -673.2 1381.1 C -673.5 1380.5 -673.7 1380 -674 1379.4 C -676.4 1375 -679.8 1372.4 -684.2 1370.1 C -684.9 1370.1 -685.5 1370.1 -686.2 1370.1 C -686.5 1369.5 -686.7 1368.9 -687 1368.3 C -688.3 1365.9 -689.6 1364.7 -691.8 1362.9 C -695.9 1359.5 -699.6 1355.7 -703.3 1351.8 C -705 1349.9 -705 1349.9 -707.2 1350.1 C -707.9 1348.8 -708.5 1347.5 -709.2 1346.1 C -709.9 1346.1 -710.5 1346.1 -711.2 1346.1 C -711.9 1344.8 -712.5 1343.5 -713.2 1342.1 C -713.9 1342.1 -714.5 1342.1 -715.2 1342.1 C -715.5 1341.1 -715.9 1340.1 -716.2 1339.1 C -717.7 1337.6 -717.7 1337.6 -719.5 1336.3 C -722.6 1333.7 -725.4 1331 -728.2 1328.1 C -729.7 1326.9 -731.1 1325.7 -732.6 1324.4 C -734.9 1322.6 -737.2 1320.6 -739.4 1318.7 C -740.6 1317.6 -741.8 1316.6 -743 1315.6 C -743.6 1315.1 -744.2 1314.6 -744.8 1314.1 C -745.4 1313.6 -745.9 1313.2 -746.4 1312.7 C -749.4 1310.1 -752.1 1307.2 -754.9 1304.4 C -756.7 1302.5 -758.6 1300.7 -760.4 1298.8 C -761 1298.2 -761.7 1297.5 -762.3 1296.9 C -763.2 1295.9 -763.2 1295.9 -764.1 1295 C -764.9 1294.2 -764.9 1294.2 -765.8 1293.3 C -767.2 1291.9 -767.2 1291.9 -769.2 1292.1 C -769.5 1291.1 -769.9 1290.1 -770.2 1289.1 C -771.6 1287.9 -773.1 1286.7 -774.5 1285.6 C -776.9 1283.5 -778.9 1281 -780.8 1278.5 C -782.2 1276.8 -782.2 1276.8 -785.2 1277.1 C -785.5 1276.1 -785.9 1275.1 -786.2 1274.1 C -787.2 1273.8 -788.2 1273.5 -789.2 1273.1 C -790.9 1271.5 -792.6 1269.8 -794.2 1268.1 C -795.9 1266.4 -797.5 1264.8 -799.2 1263.1 C -800 1262.2 -800.9 1261.4 -801.7 1260.5 C -804.1 1258.2 -806.6 1256.2 -809.2 1254.1 C -810.5 1254.8 -811.9 1255.4 -813.2 1256.1 C -813.2 1256.8 -813.2 1257.4 -813.2 1258.1 C -813.8 1258.4 -814.4 1258.6 -814.9 1258.9 C -817.4 1260.2 -819.3 1261.8 -821.5 1263.6 C -822.2 1264.2 -822.9 1264.8 -823.6 1265.5 C -825.4 1267 -825.4 1267 -825.2 1269.1 C -826.5 1269.8 -827.9 1270.4 -829.2 1271.1 C -829.2 1271.8 -829.2 1272.4 -829.2 1273.1 C -830.5 1273.8 -831.9 1274.4 -833.2 1275.1 C -833.2 1275.8 -833.2 1276.4 -833.2 1277.1 C -834.5 1277.8 -835.9 1278.4 -837.2 1279.1 C -837.2 1279.8 -837.2 1280.4 -837.2 1281.1 C -837.8 1281.4 -838.3 1281.6 -838.9 1281.8 C -841.8 1283.5 -843.7 1285.5 -846 1287.9 C -849 1291 -852 1293.9 -855.3 1296.6 C -856.8 1297.9 -856.8 1297.9 -858.2 1299.1 C -858.2 1299.8 -858.2 1300.4 -858.2 1301.1 C -859.5 1301.1 -860.9 1301.1 -862.2 1301.1 C -863.4 1302.6 -864.7 1304 -865.8 1305.5 C -867.3 1307.2 -868.8 1308.4 -870.7 1309.6 C -874.2 1312 -876.5 1314.8 -879.2 1318.1 C -880.4 1319.1 -881.5 1320.1 -882.7 1321.1 C -885 1323 -886.7 1324.7 -888.7 1327.1 C -891.2 1330.2 -894 1332.6 -897.1 1335.2 C -899.3 1337.2 -901.4 1339.3 -903.5 1341.5 C -907.8 1345.9 -912.5 1349.5 -917.5 1353.1 C -920 1355 -922.2 1356.8 -924.2 1359.1 C -924.2 1359.8 -924.2 1360.4 -924.2 1361.1 C -924.8 1361.4 -925.4 1361.7 -926 1361.9 C -932.2 1365.3 -936.8 1370.8 -941.2 1376.1 C -943.1 1377.7 -944.9 1379.3 -946.9 1380.8 C -947.3 1381.3 -947.8 1381.7 -948.2 1382.1 C -948.2 1382.8 -948.2 1383.4 -948.2 1384.1 C -948.8 1384.4 -949.3 1384.6 -949.9 1384.8 C -952.9 1386.5 -954.9 1388.7 -957.3 1391.1 C -959.9 1393.8 -962.1 1396.1 -965.2 1398.1 C -965.2 1398.8 -965.2 1399.4 -965.2 1400.1 C -966.5 1400.1 -967.9 1400.1 -969.2 1400.1 C -970.9 1401.6 -970.9 1401.6 -972.3 1403.5 C -974.2 1406 -975.5 1407.3 -978.2 1409.1 C -978.2 1409.8 -978.2 1410.4 -978.2 1411.1 C -979.5 1411.8 -980.9 1412.4 -982.2 1413.1 C -982.2 1413.8 -982.2 1414.4 -982.2 1415.1 C -982.8 1415.4 -983.4 1415.7 -984 1416 C -988.9 1418.6 -992.8 1422.5 -996.2 1426.8 C -1000.3 1431.7 -1005.3 1433.9 -1011.2 1436.1 C -1011.5 1436.5 -1011.9 1436.8 -1012.2 1437.1 C -1014.6 1437.3 -1017 1437.4 -1019.5 1437.4 C -1020.5 1437.4 -1020.5 1437.4 -1021.5 1437.4 C -1026 1437.5 -1028.6 1436.7 -1032.2 1434.1 C -1033.9 1433.2 -1033.9 1433.2 -1035.7 1432.3 C -1041.9 1428.8 -1044.7 1423.6 -1047.2 1417.1 C -1047.5 1416.5 -1047.9 1415.8 -1048.2 1415.1 C -1048.3 1412.3 -1048.4 1409.5 -1048.4 1406.7 C -1048.4 1405.8 -1048.4 1405 -1048.4 1404.1 C -1048.4 1401.1 -1048.4 1398.1 -1048.4 1395.1 C -1048.4 1392.9 -1048.4 1390.8 -1048.4 1388.6 C -1048.4 1382.7 -1048.4 1376.7 -1048.4 1370.8 C -1048.4 1364.4 -1048.4 1358 -1048.4 1351.6 C -1048.5 1340.4 -1048.5 1329.3 -1048.5 1318.2 C -1048.5 1306.6 -1048.5 1294.9 -1048.6 1283.3 C -1048.6 1282.6 -1048.6 1281.9 -1048.6 1281.1 C -1048.6 1277.4 -1048.6 1273.8 -1048.6 1270.1 C -1048.6 1244 -1048.7 1218 -1048.7 1192 C -1048.8 1166.6 -1048.8 1141.3 -1048.8 1116 C -1048.8 1115.3 -1048.8 1114.5 -1048.8 1113.7 C -1048.9 1105.8 -1048.9 1098 -1048.9 1090.2 C -1048.9 1074.2 -1048.9 1058.3 -1049 1042.3 C -1049 1041.6 -1049 1040.9 -1049 1040.1 C -1049.1 991.1 -1049.1 942.1 -1049.2 893.1 C -1052.7 892 -1055.4 892 -1059 892 Z M -989.2 894.1 C -989.2 1040.3 -989.2 1186.5 -989.2 1337.1 C -985.2 1335.1 -983.7 1333.7 -981.2 1330.1 C -981.2 1329.5 -981.2 1328.8 -981.2 1328.1 C -979.9 1327.5 -978.6 1326.8 -977.2 1326.1 C -977.2 1325.5 -977.2 1324.8 -977.2 1324.1 C -976.6 1324.1 -975.9 1324.1 -975.2 1324.1 C -973.5 1322.2 -971.8 1320.2 -970.2 1318.1 C -969.4 1318.5 -969.4 1318.5 -968.5 1318.9 C -966 1319.4 -966 1319.4 -963.5 1317.3 C -962.7 1316.6 -962 1315.9 -961.2 1315.1 C -961.2 1314.5 -961.2 1313.8 -961.2 1313.1 C -960.6 1312.9 -960.1 1312.6 -959.5 1312.4 C -956.8 1310.9 -955 1309.1 -952.9 1306.9 C -950.2 1304.1 -947.5 1301.4 -944.5 1298.9 C -942.2 1297.1 -940.3 1295.2 -938.5 1292.9 C -936.5 1290.5 -934.7 1289 -932.2 1287.1 C -932.2 1286.5 -932.2 1285.8 -932.2 1285.1 C -930.9 1284.5 -929.6 1283.8 -928.2 1283.1 C -928.2 1282.5 -928.2 1281.8 -928.2 1281.1 C -926.9 1280.5 -925.6 1279.8 -924.2 1279.1 C -924.2 1278.5 -924.2 1277.8 -924.2 1277.1 C -923.2 1276.8 -922.2 1276.5 -921.2 1276.1 C -920.9 1275.5 -920.6 1274.8 -920.2 1274.1 C -919.2 1273.8 -918.2 1273.5 -917.2 1273.1 C -916.9 1272.1 -916.6 1271.1 -916.2 1270.1 C -914.9 1270.1 -913.6 1270.1 -912.2 1270.1 C -909.4 1267.8 -909.4 1267.8 -907.2 1265.1 C -907.2 1264.5 -907.2 1263.8 -907.2 1263.1 C -906.7 1262.9 -906.1 1262.7 -905.6 1262.5 C -902.4 1260.7 -900.1 1258.2 -897.6 1255.7 C -896.8 1254.9 -896.8 1254.9 -896 1254 C -894.3 1252.3 -892.6 1250.6 -890.9 1248.9 C -888.7 1246.6 -886.5 1244.4 -884.2 1242.1 C -883.7 1241.6 -883.2 1241 -882.6 1240.5 C -879 1236.8 -875.2 1233.4 -871.2 1230.1 C -870.3 1229.1 -869.4 1228 -868.5 1226.9 C -866.2 1224.1 -866.2 1224.1 -863.2 1222.1 C -863.2 1221.5 -863.2 1220.8 -863.2 1220.1 C -862.1 1220 -862.1 1220 -861 1219.8 C -857.8 1219 -856.3 1217.9 -853.9 1215.7 C -853.2 1215.1 -852.5 1214.5 -851.8 1213.8 C -850 1212.3 -850 1212.3 -850.2 1210.1 C -849.6 1209.9 -849.1 1209.6 -848.5 1209.4 C -845.9 1207.9 -844.2 1206.3 -842.2 1204.1 C -841.4 1203.3 -840.6 1202.6 -839.9 1201.7 C -838.3 1200.1 -836.7 1198.4 -835.1 1196.8 C -827.8 1189.3 -820 1184.2 -809.2 1183.9 C -805.4 1184.1 -802.7 1184.8 -799.2 1186.1 C -798.5 1186.3 -797.7 1186.4 -797 1186.6 C -795.2 1187.1 -795.2 1187.1 -793.2 1190.1 C -792.2 1190.5 -791.2 1190.8 -790.2 1191.1 C -789.9 1191.8 -789.6 1192.4 -789.2 1193.1 C -788.6 1193.2 -788.1 1193.3 -787.5 1193.4 C -784.6 1194.3 -783.5 1196.1 -781.7 1198.4 C -780.1 1200.2 -778.5 1201.7 -776.6 1203.2 C -770.9 1208.2 -765.7 1213.6 -760.4 1219.1 C -759.2 1220.2 -759.2 1220.2 -758.1 1221.4 C -757.4 1222.1 -756.7 1222.9 -756 1223.6 C -754.4 1225.3 -754.4 1225.3 -752.2 1225.1 C -751.6 1226.4 -750.9 1227.8 -750.2 1229.1 C -749.6 1229.1 -748.9 1229.1 -748.2 1229.1 C -747.9 1230.1 -747.6 1231.1 -747.2 1232.1 C -745.5 1234 -745.5 1234 -743.4 1235.8 C -742.7 1236.4 -742 1237.1 -741.3 1237.7 C -739.1 1239.5 -739.1 1239.5 -735.2 1239.1 C -734.9 1240.1 -734.6 1241.1 -734.2 1242.1 C -732.8 1243.3 -731.4 1244.5 -730 1245.7 C -725.9 1249.1 -722.3 1253 -718.6 1256.8 C -716.2 1259.2 -713.8 1261.6 -711.4 1264 C -710.1 1265.3 -708.9 1266.6 -707.6 1267.9 C -705.8 1269.7 -704 1271.6 -702.1 1273.4 C -701.6 1274 -701 1274.5 -700.4 1275.1 C -699.1 1276.5 -697.6 1277.8 -696.2 1279.1 C -695.6 1279.1 -694.9 1279.1 -694.2 1279.1 C -693.9 1280.1 -693.6 1281.1 -693.2 1282.1 C -691.5 1284 -691.5 1284 -689.3 1285.8 C -688.6 1286.4 -687.9 1287.1 -687.2 1287.7 C -685.2 1289.4 -685.2 1289.4 -682.2 1289.1 C -681.9 1290.1 -681.6 1291.1 -681.2 1292.1 C -680.2 1292.5 -679.2 1292.8 -678.2 1293.1 C -676.9 1294.5 -676.9 1294.5 -675.5 1296.3 C -673.4 1298.8 -671.3 1301 -668.8 1303.1 C -665 1306.3 -661.5 1309.7 -658 1313.3 C -657.5 1313.8 -656.9 1314.4 -656.4 1314.9 C -654.1 1317.2 -651.9 1319.5 -649.6 1321.8 C -647.9 1323.5 -646.3 1325.2 -644.6 1326.9 C -644.1 1327.4 -643.6 1328 -643 1328.5 C -641.8 1329.7 -640.5 1330.9 -639.2 1332.1 C -638.6 1332.1 -637.9 1332.1 -637.2 1332.1 C -637 1332.7 -636.8 1333.3 -636.5 1333.9 C -634.9 1336.7 -632.9 1338.2 -630.2 1340.1 C -629.9 1340.1 -629.6 1340.1 -629.2 1340.1 C -628.5 1256.4 -628.1 1172.7 -628.1 1058.3 C -628.1 1045.1 -628.1 1031.9 -628.1 1018.7 C -628.1 1003.1 -628.1 987.4 -628.1 971.8 C -628.1 970.1 -628.1 968.5 -628.1 966.8 C -628.1 966 -628.1 965.2 -628.1 964.3 C -628.1 958.7 -628.1 953 -628.1 947.3 C -628.1 940.4 -628.1 933.6 -628.1 926.7 C -628.1 923.3 -628.1 919.8 -628.1 916.3 C -628.1 912.6 -628.1 908.8 -628.1 905.1 C -628.1 903.4 -628.1 903.4 -628.1 901.7 C -628.1 900.2 -628.1 900.2 -628.1 898.7 C -628.1 897.8 -628.1 897 -628.1 896.1 C -628 894.1 -628 894.1 -629.2 893.1 C -631 893 -632.8 893 -634.6 893 C -635.7 893 -636.9 893 -638.1 893 C -640 893 -640 893 -642 893 C -643.4 893 -644.8 893 -646.2 893 C -650 893 -653.8 893 -657.6 893 C -661.7 893 -665.8 893 -669.9 893 C -677.9 893 -686 893 -694 893 C -700.6 893 -707.1 893 -713.7 893 C -714.6 893 -715.6 893 -716.5 893 C -718.4 893 -720.3 893 -722.2 893 C -740 893 -757.8 893 -775.5 893 C -790.8 893 -806 893 -821.2 893 C -838.9 893 -856.6 893 -874.3 893 C -876.1 893 -878 893 -879.9 893 C -881.3 893 -881.3 893 -882.7 893 C -889.3 893 -895.8 893 -902.3 893 C -910.3 893 -918.3 893 -926.3 893 C -930.3 893 -934.4 893 -938.5 893 C -942.2 893 -945.9 893 -949.7 893 C -951.6 893 -953.6 893 -955.5 893 C -966.8 893 -977.9 893.6 -989.2 894.1 Z" fill="#835a41" transform="translate(1869.2,35.9)"/>
    <path d="M -245 76 C -237.8 76 -230.5 76 -223.3 76 C -199.4 76 -175.4 76 -151.4 76 C -150.2 76 -148.9 76 -147.6 76 C -146.3 76 -145 76 -143.7 76 C -122.8 76 -101.9 76 -81 76 C -59.4 75.9 -37.8 75.9 -16.3 75.9 C -4.2 75.9 7.9 75.9 19.9 75.9 C 30.2 75.9 40.4 75.9 50.6 75.9 C 55.9 75.9 61.1 75.9 66.3 75.9 C 71.1 75.9 75.8 75.9 80.6 75.9 C 82.3 75.9 84.1 75.9 85.8 75.9 C 88.1 75.9 90.5 75.9 92.8 75.9 C 94.8 75.9 94.8 75.9 96.8 75.9 C 100.3 76.2 103 76.8 106.3 78.2 C 108 81.5 107.4 85.3 107.4 89 C 107.4 90.4 107.4 90.4 107.4 91.8 C 107.4 95 107.4 98.1 107.4 101.2 C 107.4 103.5 107.4 105.7 107.5 108 C 107.5 114.1 107.5 120.2 107.5 126.2 C 107.5 130.1 107.5 133.9 107.5 137.7 C 107.5 148.2 107.5 158.7 107.5 169.3 C 107.5 169.9 107.5 170.6 107.5 171.3 C 107.5 172 107.5 172.7 107.5 173.3 C 107.5 174.7 107.5 176.1 107.5 177.5 C 107.5 178.1 107.5 178.8 107.5 179.5 C 107.5 190.5 107.5 201.5 107.6 212.5 C 107.6 223.8 107.6 235.1 107.6 246.4 C 107.6 252.8 107.6 259.1 107.6 265.5 C 107.6 271.4 107.6 277.4 107.6 283.4 C 107.6 285.6 107.6 287.8 107.6 290 C 107.7 292.9 107.7 295.9 107.6 298.9 C 107.7 300.2 107.7 300.2 107.7 301.6 C 107.6 306.7 107.1 310.3 103.3 314.2 C 100.7 314.3 98.1 314.3 95.5 314.3 C 94.6 314.3 93.8 314.3 93 314.3 C 90.1 314.3 87.3 314.3 84.5 314.3 C 82.5 314.3 80.4 314.3 78.4 314.3 C 72.8 314.3 67.2 314.3 61.6 314.3 C 55.6 314.3 49.5 314.3 43.5 314.3 C 31.7 314.3 19.8 314.3 8 314.3 C -1.6 314.3 -11.2 314.3 -20.8 314.3 C -23.6 314.3 -26.3 314.3 -29.1 314.3 C -30.1 314.3 -30.1 314.3 -31.2 314.3 C -50.5 314.3 -69.8 314.4 -89.1 314.4 C -89.9 314.4 -90.6 314.4 -91.4 314.4 C -95.1 314.4 -98.7 314.4 -102.4 314.4 C -103.2 314.4 -103.9 314.4 -104.7 314.4 C -106.2 314.4 -107.6 314.4 -109.1 314.4 C -132.2 314.4 -155.3 314.4 -178.4 314.4 C -204.4 314.4 -230.3 314.4 -256.2 314.4 C -259 314.4 -261.7 314.4 -264.5 314.4 C -265.2 314.4 -265.9 314.4 -266.6 314.4 C -277.5 314.4 -288.5 314.4 -299.5 314.4 C -310.5 314.4 -321.5 314.4 -332.5 314.4 C -338.5 314.4 -344.5 314.4 -350.4 314.4 C -355.9 314.4 -361.3 314.4 -366.8 314.4 C -368.8 314.4 -370.8 314.4 -372.8 314.4 C -375.4 314.4 -378.1 314.4 -380.8 314.4 C -382 314.4 -382 314.4 -383.2 314.4 C -388.5 314.4 -388.5 314.4 -390.7 312.2 C -390.9 309.1 -391 306.1 -391 303 C -391 302 -391 301.1 -391 300.1 C -391 296.9 -391 293.6 -390.9 290.4 C -390.9 288.1 -390.9 285.7 -390.9 283.4 C -391 277.1 -390.9 270.8 -390.9 264.5 C -390.9 257.9 -390.9 251.3 -390.9 244.8 C -390.9 233.7 -390.9 222.7 -390.9 211.6 C -390.9 200.2 -390.8 188.8 -390.8 177.5 C -390.8 176.8 -390.8 176.1 -390.8 175.3 C -390.8 171.8 -390.8 168.3 -390.8 164.8 C -390.8 135.6 -390.8 106.4 -390.7 77.2 C -342.2 75.8 -293.6 76 -245 76 Z M -342.7 124.2 C -342.7 170.4 -342.7 216.6 -342.7 264.2 C -210.7 264.2 -78.7 264.2 57.3 264.2 C 57.3 218 57.3 171.8 57.3 124.2 C -74.7 124.2 -206.7 124.2 -342.7 124.2 Z" fill="#2f2d3f" transform="translate(879.7,1565.8)"/>
    <path d="M -245 76 C -244 76 -242.9 76 -241.9 76 C -240.8 76 -239.7 76 -238.5 76 C -237.4 76 -236.3 76 -235.1 76 C -232.7 76 -230.3 76 -227.9 76 C -224.2 76 -220.5 76 -216.8 76 C -214.5 76 -212.1 76 -209.8 76 C -208.1 76 -208.1 76 -206.4 76 C -205.4 76 -204.4 76 -203.3 76 C -202.4 76 -201.5 76 -200.6 76 C -198 76.3 -196.4 77 -194.2 78.3 C -190.8 78.9 -187.4 79.3 -184.1 79.7 C -181.2 80.3 -181.2 80.3 -179.2 82.3 C -176.8 82.9 -176.8 82.9 -174.2 83.3 C -169.4 84 -169.4 84 -167.2 86.3 C -166 86.6 -164.9 86.9 -163.7 87.3 C -160.2 88.3 -160.2 88.3 -158.2 90.3 C -157.3 90.5 -156.4 90.8 -155.5 91.1 C -149.3 93.2 -144 96.2 -138.8 100.2 C -136.7 101.6 -134.5 102.4 -132.2 103.3 C -130.5 104.8 -130.5 104.8 -129.2 106.3 C -128.5 106.6 -127.8 106.9 -127.2 107.3 C -127.2 107.9 -127.2 108.6 -127.2 109.3 C -126.3 109.5 -125.4 109.7 -124.5 109.9 C -121 111.3 -119.7 112.7 -117.5 115.6 C -116 117.4 -114.5 118.8 -112.7 120.3 C -109.4 123 -106.9 125.9 -104.2 129.3 C -103.3 130.1 -102.4 130.9 -101.5 131.8 C -99 134.4 -97.7 137 -96.2 140.3 C -95.2 141.3 -94.2 142.3 -93.2 143.3 C -93.2 143.9 -93.2 144.6 -93.2 145.3 C -92.5 145.5 -91.9 145.8 -91.2 146 C -89.2 147.3 -89.2 147.3 -88.5 149.3 C -88.4 150 -88.3 150.6 -88.2 151.3 C -87.5 151.6 -86.8 151.9 -86.2 152.3 C -85.1 154.2 -84.1 156.2 -83.2 158.3 C -82.5 159.5 -81.9 160.8 -81.3 162 C -81 162.7 -80.6 163.4 -80.3 164.1 C -79.5 165.6 -78.7 167.2 -77.9 168.7 C -75.4 173.6 -73.5 178 -72.2 183.3 C -71.8 183.9 -71.5 184.5 -71.1 185.2 C -70.1 187.4 -69.9 189 -69.7 191.4 C -69.6 195.3 -69.6 195.3 -67.2 197.3 C -66.7 200 -66.4 202.8 -66.2 205.6 C -66 207.1 -65.9 208.6 -65.7 210.1 C -65.7 210.8 -65.6 211.5 -65.5 212.2 C -65.2 214.3 -65.2 214.3 -64.1 216.5 C -62.9 220 -62.9 223.3 -62.9 227 C -62.9 227.7 -62.9 228.5 -62.9 229.2 C -62.9 230.8 -62.9 232.3 -62.9 233.9 C -62.9 236.3 -62.9 238.6 -62.9 241 C -62.9 242.5 -62.9 244 -62.9 245.5 C -62.9 246.2 -62.9 246.9 -62.9 247.6 C -62.9 251.7 -63.5 254.6 -65.2 258.3 C -65.7 261.7 -66 265.1 -66.4 268.6 C -66.8 272.2 -67.1 274.2 -69.2 277.3 C -69.6 278.9 -69.9 280.6 -70.2 282.3 C -70.7 285.7 -71.2 287.3 -73.2 290.3 C -73.7 291.7 -74.2 293.1 -74.6 294.5 C -78.2 305.7 -83.7 315.5 -90.2 325.3 C -90.9 326.4 -90.9 326.4 -91.7 327.5 C -92.8 329.1 -94 330.7 -95.2 332.3 C -95.8 332.3 -96.5 332.3 -97.2 332.3 C -97.3 332.8 -97.4 333.4 -97.5 334 C -99.5 340.6 -105.9 347 -111.2 351.3 C -111.8 351.3 -112.5 351.3 -113.2 351.3 C -113.8 352.6 -114.5 353.9 -115.2 355.3 C -115.8 355.3 -116.5 355.3 -117.2 355.3 C -117.3 355.8 -117.5 356.4 -117.7 357 C -119.9 360.4 -122.6 361.5 -126.2 363.3 C -126.8 363.3 -127.5 363.3 -128.2 363.3 C -128.5 364.2 -128.8 365.2 -129.2 366.3 C -132.1 369.7 -135.1 371.3 -139.2 373.3 C -141.3 374.4 -143.4 375.5 -145.5 376.7 C -156.3 382.5 -166.8 387.6 -178.7 390.5 C -181.1 391.2 -181.1 391.2 -183.1 392.3 C -186.5 393.9 -189.9 393.7 -193.5 393.9 C -196.1 394.1 -196.1 394.1 -198.1 395.2 C -203.2 397.7 -209.3 397.4 -214.9 397.4 C -215.7 397.4 -216.4 397.4 -217.1 397.4 C -218.6 397.4 -220.2 397.4 -221.7 397.4 C -224 397.4 -226.3 397.5 -228.5 397.5 C -246.6 397.6 -246.6 397.6 -253.2 394.3 C -254.9 394.1 -256.6 394 -258.4 393.9 C -263.2 393.5 -266.8 392.3 -271.2 390.3 C -272.4 389.9 -273.7 389.6 -275 389.3 C -278.1 388.5 -281.1 387.7 -284.1 386.8 C -285.2 386.4 -285.2 386.4 -286.4 386 C -288.2 385.3 -288.2 385.3 -289.2 383.3 C -290.3 382.9 -291.5 382.6 -292.7 382.3 C -293.8 381.9 -295 381.6 -296.2 381.3 C -296.5 380.6 -296.8 379.9 -297.2 379.3 C -299.2 378.6 -301.2 377.9 -303.2 377.3 C -303.8 376.6 -304.5 375.9 -305.2 375.3 C -306 374.9 -306.9 374.6 -307.7 374.3 C -310.2 373.3 -310.2 373.3 -311.2 371.3 C -312.7 370.4 -314.3 369.7 -315.9 368.9 C -320.2 366.9 -323.2 365 -326.2 361.3 C -326.2 360.6 -326.2 359.9 -326.2 359.3 C -326.7 359.2 -327.3 359.2 -327.9 359.1 C -330.7 358 -332 356.3 -333.8 353.9 C -335.3 352 -335.3 352 -338.2 349.8 C -341.3 347.1 -343.7 344.6 -346.2 341.3 C -346.2 340.6 -346.2 339.9 -346.2 339.3 C -347.2 338.9 -348.1 338.6 -349.2 338.3 C -353.5 334.1 -356.7 329.7 -359.2 324.3 C -359.7 323.5 -360.3 322.8 -360.9 322.1 C -362.2 320.3 -362.2 320.3 -362.2 317.3 C -362.8 317.3 -363.5 317.3 -364.2 317.3 C -364.8 314.9 -365.5 312.6 -366.2 310.3 C -366.8 310.3 -367.5 310.3 -368.2 310.3 C -368.8 308.6 -368.8 308.6 -369.4 306.8 C -370.5 303.8 -371.8 300.8 -373.2 297.9 C -375 293.9 -376.3 289.8 -377.5 285.5 C -378.1 283.2 -378.1 283.2 -379.2 281.3 C -380.6 278.3 -380.6 275.6 -380.8 272.4 C -381.1 270 -381.1 270 -383.2 267.3 C -384.6 261.6 -384.3 255.8 -384.3 250 C -384.3 248.9 -384.3 247.8 -384.3 246.7 C -384.3 244.4 -384.3 242.1 -384.3 239.8 C -384.4 236.3 -384.4 232.8 -384.4 229.4 C -384.4 227.1 -384.4 224.9 -384.4 222.7 C -384.4 221.6 -384.4 220.6 -384.4 219.5 C -384.4 213.3 -384 207.9 -381.2 202.3 C -381 200.7 -380.9 199.1 -380.8 197.4 C -380.4 193.2 -379.5 190.8 -377.2 187.3 C -376.8 184.9 -376.5 182.6 -376.2 180.3 C -375.2 179.3 -375.2 179.3 -374.2 178.3 C -373.8 177.1 -373.5 175.9 -373.1 174.6 C -370.4 166 -365.1 158.2 -360.5 150.5 C -359 148.1 -359 148.1 -357.6 145 C -356.2 142.3 -356.2 142.3 -354.2 141.3 C -353.8 140.3 -353.5 139.3 -353.2 138.3 C -350.7 135.6 -350.7 135.6 -348.2 133.3 C -347.5 133.3 -346.8 133.3 -346.2 133.3 C -345.8 131.6 -345.5 130 -345.2 128.3 C -344.5 128.3 -343.8 128.3 -343.2 128.3 C -342.9 127.7 -342.6 127.1 -342.4 126.5 C -341.1 124.1 -339.7 122.6 -337.7 120.7 C -337.1 120.1 -336.5 119.5 -335.9 118.9 C -335 118.1 -335 118.1 -334.2 117.3 C -333.7 116.7 -333.2 116.1 -332.7 115.5 C -331.2 114.3 -331.2 114.3 -327.2 114.3 C -327 113.7 -326.8 113.1 -326.6 112.6 C -324.8 109.7 -322.7 108.3 -319.8 106.5 C -317.9 105.2 -317.9 105.2 -316.2 102.3 C -313.5 102.1 -313.5 102.1 -311.2 102.3 C -310.7 100.8 -310.7 100.8 -310.2 99.3 C -308.2 98.2 -306.2 97.2 -304.2 96.3 C -302.8 95.4 -301.5 94.6 -300.2 93.8 C -294.8 90.3 -289 88.2 -283 85.9 C -281.5 85.4 -280.1 84.8 -278.6 84.2 C -275.5 83 -272.4 82.2 -269.2 81.3 C -268.2 80.9 -267.3 80.6 -266.3 80.2 C -262.9 79.2 -259.8 78.8 -256.3 78.6 C -254.1 78.4 -254.1 78.4 -252.4 77.3 C -249.7 76.1 -247.9 76 -245 76 Z M -230.8 124.7 C -233.7 125.4 -236.5 125.4 -239.4 125.5 C -265.2 127.1 -290.2 141.8 -307.7 160.3 C -326.7 182.9 -339 212.4 -337.3 242.3 C -336.9 247.4 -335.5 252.3 -334.2 257.3 C -333.8 259 -333.5 260.7 -333.2 262.4 C -332.1 267.9 -330.2 273 -328.2 278.3 C -327.9 279 -327.6 279.8 -327.3 280.5 C -323.4 290.2 -316.7 298.6 -310.7 307 C -309.2 309.3 -309.2 309.3 -307.9 311.6 C -305.4 315.4 -302 317.9 -298.5 320.8 C -297.8 321.3 -297.1 321.9 -296.4 322.4 C -289.1 328.3 -281.5 332.7 -273.2 336.8 C -271.3 337.7 -269.5 338.6 -267.7 339.6 C -254.6 346.7 -241.5 347.9 -226.9 347.8 C -224.2 347.8 -221.4 347.9 -218.7 347.9 C -207.5 347.9 -198.5 346.6 -188.2 342.3 C -187.3 341.9 -186.5 341.6 -185.7 341.3 C -183.5 340.3 -181.3 339.3 -179.2 338.3 C -178.6 338 -178 337.7 -177.4 337.4 C -166.4 332.3 -157.3 326.7 -148.8 317.9 C -147.2 316.3 -145.5 314.9 -143.7 313.4 C -137.2 308 -132.3 301.5 -129.2 293.6 C -128 290.8 -126.4 288.5 -124.7 285.9 C -121 280.3 -118.9 274.8 -117.2 268.3 C -116.8 267 -116.4 265.8 -116 264.5 C -109.2 240 -111.9 213.3 -122.2 190.3 C -122.6 189.3 -123 188.3 -123.5 187.3 C -128.5 176.5 -135.7 167.2 -144.3 159.1 C -146.1 157.3 -147.7 155.4 -149.2 153.4 C -162.4 138.2 -186.5 128.1 -206.1 125.8 C -208.4 125.7 -210.8 125.5 -213.1 125.4 C -215.9 125.3 -218.3 124.8 -221 124.1 C -224.7 123.2 -227.2 123.6 -230.8 124.7 Z" fill="#cb7f3e" transform="translate(1893.2,249.7)"/>
    <path d="M -245 76 C -244.2 76 -243.5 76 -242.7 76 C -241.5 76 -241.5 76 -240.2 76 C -237.5 76 -234.8 76 -232 76 C -230.1 76 -228.1 76 -226.1 76 C -220.7 76 -215.2 76 -209.8 76 C -204 76 -198.1 76 -192.2 76 C -180.8 76 -169.3 76 -157.8 76 C -148.5 76 -139.1 76 -129.8 76 C -128.5 76 -127.1 76 -125.8 76 C -123.8 76 -121.8 76 -119.8 76 C -101 75.9 -82.2 75.9 -63.5 75.9 C -62.4 75.9 -62.4 75.9 -61.3 75.9 C -57.7 75.9 -54.1 76 -50.6 76 C -49.8 76 -49.1 76 -48.4 76 C -47 76 -45.5 76 -44.1 76 C -21.7 76 0.8 76 23.2 75.9 C 48.4 75.9 73.5 75.9 98.7 75.9 C 101.4 75.9 104.1 75.9 106.8 75.9 C 107.4 75.9 108.1 75.9 108.8 75.9 C 118.7 75.9 128.7 75.9 138.7 75.9 C 150.1 75.9 161.4 75.9 172.8 75.9 C 178.6 75.9 184.4 75.9 190.2 75.9 C 195.5 75.9 200.8 75.9 206.1 75.9 C 208 75.9 209.9 75.9 211.8 75.9 C 214.4 75.9 217 75.9 219.7 75.9 C 220.4 75.9 221.2 75.9 221.9 75.9 C 226.2 75.9 228.5 76.4 231.6 79.3 C 232.3 79.4 233 79.6 233.7 79.7 C 236.2 80.4 237 81.6 238.7 83.6 C 240.1 85.5 241.5 87.2 243.2 88.8 C 245.3 91 245.8 93.4 246.6 96.3 C 247 97.2 247.3 98.2 247.7 99.2 C 249.3 104.7 249 109.1 246.6 114.3 C 246.4 114.9 246.1 115.5 245.9 116.1 C 243.9 121.1 243.9 121.1 241.6 122.3 C 241 123.4 241 123.4 240.4 124.6 C 238.2 127.8 235.9 129.3 232.6 131.3 C 232.3 131.6 231.9 131.9 231.6 132.3 C 230.1 132.6 228.7 133 227.2 133.3 C 224.8 133.8 222.8 134.2 220.6 135.3 C 218.1 135.4 215.7 135.4 213.2 135.4 C 212 135.4 212 135.4 210.8 135.4 C 208.2 135.4 205.5 135.4 202.9 135.4 C 201 135.4 199.1 135.4 197.2 135.4 C 191.9 135.4 186.7 135.4 181.4 135.4 C 175.7 135.4 170.1 135.4 164.4 135.4 C 152.1 135.5 139.7 135.5 127.3 135.5 C 119.6 135.5 111.8 135.5 104.1 135.5 C 82.7 135.5 61.3 135.5 40 135.5 C 38.6 135.5 37.2 135.5 35.8 135.5 C 34.4 135.5 33 135.5 31.6 135.5 C 28.9 135.5 26.1 135.5 23.3 135.5 C 22.6 135.5 21.9 135.5 21.2 135.5 C -1.2 135.5 -23.5 135.5 -45.9 135.6 C -69.5 135.6 -93.1 135.6 -116.8 135.6 C -129.7 135.6 -142.6 135.6 -155.4 135.6 C -166.4 135.6 -177.4 135.6 -188.4 135.6 C -194 135.6 -199.6 135.6 -205.2 135.6 C -210.3 135.7 -215.4 135.7 -220.6 135.6 C -222.4 135.6 -224.3 135.6 -226.1 135.6 C -250.6 135.8 -250.6 135.8 -256 130.8 C -256.5 130.3 -256.9 129.8 -257.4 129.3 C -258.4 128.6 -259.4 127.9 -260.4 127.3 C -260.4 126.6 -260.4 125.9 -260.4 125.3 C -261.4 124.9 -262.4 124.6 -263.4 124.3 C -266.8 120.7 -268.3 117.4 -269.7 112.8 C -270.1 111.7 -270.4 110.6 -270.8 109.4 C -271.4 106.2 -271.3 104.3 -270.4 101.3 C -270.1 100.9 -269.7 100.6 -269.4 100.3 C -269.1 98.9 -268.9 97.5 -268.6 96.1 C -267.1 89.1 -263.3 84.3 -257.4 80.3 C -255.7 79.6 -254.1 78.9 -252.4 78.3 C -249.9 75.8 -248.4 76 -245 76 Z" fill="#2f2d3f" transform="translate(1436.4,1655.7)"/>
    <path d="M -245 76 C -243.1 76 -241.2 76 -239.3 76 C -234.1 76 -228.9 76 -223.7 76 C -218 76 -212.4 76 -206.8 76 C -195.7 76 -184.7 76 -173.7 76 C -164.8 76 -155.8 76 -146.8 76 C -145.6 76 -144.3 76 -143 76 C -140.4 76 -137.8 76 -135.2 76 C -111.6 76 -88 76 -64.4 76 C -42.9 76 -21.4 76 0.1 76 C 24.3 76 48.5 76 72.7 76 C 75.3 76 77.9 76 80.5 76 C 81.7 76 83 76 84.3 76 C 93.3 76 102.2 76 111.1 76 C 122 76 132.9 76 143.8 76 C 149.4 76 155 76 160.5 76 C 165.6 76 170.7 76 175.8 76 C 177.6 76 179.5 76 181.3 76 C 204.9 76 204.9 76 209.2 78.1 C 209.2 78.8 209.2 79.4 209.2 80.1 C 210 80.3 210.9 80.4 211.7 80.5 C 212.5 80.7 213.4 80.9 214.2 81.1 C 214.6 81.8 214.9 82.4 215.2 83.1 C 216.2 83.5 217.2 83.8 218.2 84.1 C 219.7 86.2 219.7 86.2 221.2 89.1 C 221.6 89.7 221.9 90.3 222.3 90.8 C 226.1 97.5 227 104.4 225.5 111.9 C 225.1 112.9 224.7 114 224.2 115.1 C 223.6 116.9 223.6 116.9 223 118.8 C 220.9 122.8 218.9 124.4 215.2 127.1 C 214.6 128.1 213.9 129.1 213.2 130.1 C 208.1 133.7 204.2 134.7 197.9 134.6 C 196.7 134.6 196.7 134.6 195.5 134.6 C 192.7 134.6 190 134.6 187.3 134.6 C 185.3 134.6 183.3 134.6 181.4 134.6 C 175.9 134.6 170.5 134.6 165.1 134.6 C 159.2 134.6 153.4 134.6 147.5 134.6 C 136.1 134.6 124.6 134.6 113.1 134.6 C 100.5 134.5 87.8 134.5 75.1 134.5 C 50.7 134.5 26.2 134.5 1.7 134.5 C -21.4 134.5 -44.5 134.4 -67.6 134.4 C -68.3 134.4 -69 134.4 -69.8 134.4 C -73.4 134.4 -76.9 134.4 -80.5 134.4 C -81.2 134.4 -81.9 134.4 -82.7 134.4 C -84.1 134.4 -85.5 134.4 -87 134.4 C -109.7 134.4 -132.4 134.4 -155.1 134.4 C -161.8 134.4 -168.4 134.4 -175.1 134.4 C -189 134.4 -203 134.3 -217 134.3 C -222.8 134.3 -228.6 134.3 -234.4 134.3 C -239.7 134.3 -245 134.3 -250.3 134.3 C -252.2 134.3 -254.1 134.3 -256 134.3 C -258.6 134.3 -261.2 134.3 -263.8 134.3 C -265 134.3 -265 134.3 -266.1 134.3 C -269.5 134.2 -272.5 134.2 -275.8 133.1 C -275.8 132.5 -275.8 131.8 -275.8 131.1 C -276.7 130.9 -277.7 130.6 -278.7 130.3 C -279.7 129.9 -280.7 129.5 -281.8 129.1 C -282.3 127.6 -282.3 127.6 -282.8 126.1 C -283.4 125.9 -284 125.6 -284.6 125.3 C -288.2 123.3 -290.1 120.1 -291.4 116.2 C -291.9 114.2 -292.4 112.2 -292.8 110.1 C -293 109.1 -293.3 108 -293.6 106.9 C -293.9 99.2 -290.7 91 -285.8 85.1 C -282.8 82.4 -282.8 82.4 -279.8 80.1 C -278.7 79.3 -278.7 79.3 -277.6 78.4 C -268.2 74.2 -255.2 76 -245 76 Z" fill="#3c3441" transform="translate(1458.8,1512.9)"/>
    <path d="M -245 76 C -244.1 76 -243.1 76 -242.1 76 C -240.7 76 -240.7 76 -239.1 76 C -235.8 76 -232.4 76 -229.1 76 C -226.7 76 -224.3 76 -221.9 76 C -215.4 76 -208.8 75.9 -202.3 75.9 C -198.2 75.9 -194.2 75.9 -190.1 75.9 C -178.8 75.9 -167.5 75.9 -156.3 75.9 C -155.6 75.9 -154.8 75.9 -154.1 75.9 C -153 75.9 -153 75.9 -151.9 75.9 C -150.4 75.9 -149 75.9 -147.5 75.9 C -146.8 75.9 -146 75.9 -145.3 75.9 C -133.5 75.9 -121.7 75.9 -109.9 75.9 C -97.8 75.8 -85.7 75.8 -73.7 75.8 C -66.9 75.8 -60.1 75.8 -53.3 75.8 C -46.9 75.8 -40.5 75.8 -34.1 75.8 C -31.8 75.8 -29.4 75.8 -27.1 75.8 C -23.9 75.8 -20.7 75.8 -17.5 75.8 C -16.1 75.8 -16.1 75.8 -14.6 75.8 C -9.5 75.8 -6 76.4 -1.5 79.1 C -0.8 79.5 -0.1 79.8 0.6 80.1 C 7.8 84.1 11.6 89.7 14.5 97.1 C 14.8 97.8 15.2 98.5 15.5 99.1 C 15.7 101.2 15.7 103.3 15.8 105.5 C 15.8 106.6 15.8 107.7 15.8 108.9 C 15.5 112.5 14.5 114.2 12.5 117.1 C 12.2 118.2 11.9 119.3 11.5 120.4 C 11.2 121.3 10.9 122.2 10.5 123.1 C 9 123.6 9 123.6 7.5 124.1 C 7.2 124.7 6.9 125.3 6.6 126 C 5.1 129 3.3 130.3 0.5 132.1 C -1.8 132.9 -4.1 133.5 -6.5 134.1 C -7.5 134.8 -8.5 135.5 -9.5 136.1 C -11.4 136.4 -11.4 136.4 -13.6 136.4 C -14.4 136.4 -15.2 136.4 -16.1 136.4 C -17 136.4 -17.9 136.4 -18.9 136.4 C -19.9 136.4 -20.8 136.4 -21.8 136.4 C -25.1 136.4 -28.4 136.4 -31.7 136.4 C -34 136.4 -36.4 136.4 -38.7 136.4 C -45.1 136.4 -51.5 136.4 -57.9 136.4 C -63.9 136.4 -69.8 136.4 -75.8 136.5 C -88.4 136.5 -101 136.5 -113.7 136.5 C -125.2 136.5 -136.7 136.5 -148.2 136.5 C -160.1 136.5 -171.9 136.5 -183.7 136.5 C -190.4 136.5 -197 136.5 -203.7 136.5 C -209.9 136.5 -216.2 136.5 -222.4 136.5 C -224.7 136.5 -227 136.5 -229.3 136.5 C -232.5 136.5 -235.6 136.5 -238.7 136.5 C -239.6 136.5 -240.5 136.5 -241.5 136.5 C -246.6 136.5 -249.9 135.8 -254.5 133.1 C -255.8 132.9 -255.8 132.9 -257.2 132.6 C -259.5 132.1 -259.5 132.1 -261.5 129.1 C -262.5 128.8 -263.5 128.5 -264.5 128.1 C -266.2 126.8 -266.2 126.8 -267.5 125.1 C -267.5 123.8 -267.5 122.5 -267.5 121.1 C -268.4 120.9 -268.4 120.9 -269.4 120.6 C -271.5 119.1 -271.5 119.1 -272.1 115.7 C -272.2 114.5 -272.4 113.4 -272.5 112.1 C -273.1 111.2 -273.8 110.2 -274.5 109.1 C -274.9 102.8 -274.9 102.8 -272.5 99.1 C -271.9 97.1 -271.5 95 -271 92.9 C -270.9 92.3 -270.7 91.7 -270.5 91.1 C -269.8 90.8 -269.2 90.5 -268.5 90.1 C -268.1 89.4 -267.7 88.7 -267.4 88 C -263.8 82.7 -258.5 79.1 -252.5 77.1 C -250.5 75.2 -247.6 76 -245 76 Z" fill="#24263c" transform="translate(1439.5,1797.9)"/>
</g>
</svg>
