<svg width="64" height="64" viewBox="0 0 2850 2400" xmlns="http://www.w3.org/2000/svg">
	<style>
		.s0 { fill: #795441 } 
		.s1 { fill: #7a5646 } 
		.s2 { fill: #966445 } 
		.s3 { fill: #5e4745 } 
		.s4 { fill: #26273d } 
	</style>
	<g transform="matrix(1,0,0,1,0,0)" id="Layer 1">
		<path class="s0" d="M 2083 231 h 102 l 37 4 l 37 6 l 27 5 l 48 12 l 27 8 l 35 12 l 38 16 l 29 14 l 21 11 l 19 11 l 19 12 l 15 10 l 19 14 l 13 10 l 16 13 l 15 13 l 15 14 l 21 21 l 7 8 l 13 15 l 13 16 l 9 12 l 14 19 l 17 26 l 9 15 l 12 23 l 11 24 l 7 18 l 9 28 l 8 31 l 8 36 l 3 26 l 3 30 l 1 19 v 55 l -2 34 l -4 37 l -7 33 l -9 36 l -11 35 l -11 27 l -15 33 l -15 28 l -11 19 l -19 29 l -11 16 l -14 19 l -10 13 l -13 13 l -17 12 l -9 4 l -5 2 l 12 11 l 11 14 l 10 15 l 10 18 l 14 24 l 10 19 l 12 22 l 13 24 l 12 22 l 15 26 l 9 15 l 11 18 l 13 20 l 8 11 l 7 10 l 12 17 l 12 21 l 10 22 l 9 27 l 8 34 l 3 18 l 1 11 v 58 l -5 47 l -9 66 l -4 39 l -4 24 l -6 24 l -8 16 l -10 14 l -6 7 l -15 11 l -10 6 l -17 6 l -27 6 l -35 2 h -88 l -16 -3 l -2 -1 l 6 15 l 4 17 v 10 l -5 25 l -5 19 l -8 18 l -10 18 l -14 19 l -10 11 l -7 8 l -11 10 l -14 11 l -19 13 l -18 10 l -15 7 l -27 9 l -29 7 l -13 2 h -37 l -25 -5 l -20 -5 l -20 -7 l -16 -8 l -11 -7 l -13 -9 l -14 -12 l -9 -9 l -11 -14 l -10 -15 l -9 -19 l -6 -21 l -5 -23 l -1 -9 v -18 l 3 -19 l 6 -24 l -16 3 h -15 l -22 -3 l -33 -6 l -28 -7 l -12 -6 l -13 -10 l -7 -8 l -7 -11 l -4 -10 l -5 -21 l -1 -7 l -9 13 l -9 11 l -9 10 l -8 7 l -18 13 l -13 8 l -18 8 l -16 5 l -26 6 l -7 1 l -17 1 l -137 1 h -392 l -13 -2 l -20 -5 h -2 l 5 26 v 31 l -6 29 l -4 15 l -8 18 l -9 14 l -12 16 l -9 10 l -9 10 l -8 7 l -14 11 l -17 12 l -18 10 l -16 7 l -23 7 l -31 7 l -19 2 h -24 l -19 -2 l -31 -7 l -20 -6 l -12 -5 l -15 -8 l -12 -8 l -14 -11 l -8 -7 l -7 -8 l -11 -14 l -11 -19 l -7 -19 l -7 -31 l -1 -8 v -32 l 3 -18 l 6 -25 v -2 l -17 4 l -12 1 h -340 l -16 -3 l -16 -4 l -13 -7 l -12 -9 l -8 -8 l -9 -14 l -5 -12 l -5 -22 v -18 l 5 -21 l 5 -11 l 7 -11 l 9 -11 l 10 -9 l 14 -9 l 13 -6 l 19 -5 l 16 -3 l 73 -1 l 193 -1 l 33 -1 l 17 -2 l 12 -6 l 6 -10 l -1 -1 l -500 -1 l -15 -2 l -25 -6 l -13 -5 l -13 -9 l -11 -10 l -12 -16 l -6 -12 l -5 -20 v -24 l 5 -20 l 7 -14 l 10 -13 l 7 -7 l 14 -10 l 10 -6 l 13 -5 l 28 -7 l 17 -3 l 14 -1 l 608 -1 l 22 -2 l 10 -3 l 5 -3 l 1 -2 l 1 -9 l -449 -1 l -22 -3 l -24 -6 l -13 -5 l -13 -7 l -13 -11 l -9 -11 l -8 -14 l -5 -19 l -2 -9 v -16 l 6 -25 l 8 -16 l 9 -12 l 4 -5 l 17 -13 l 14 -8 l 18 -6 l 25 -6 l 7 -1 l 77 -1 h 436 l 17 -1 l 10 -5 l 4 -5 v -4 l -10 -2 l -290 -1 l -15 -3 l -20 -5 l -15 -6 l -15 -10 l -10 -9 l -11 -14 l -5 -11 l -6 -24 v -17 l 7 -28 l 7 -14 l 9 -12 l 9 -10 l 16 -12 l 9 -5 l 12 -5 l 26 -6 l 24 -1 h 356 l 44 -1 l 9 -2 l 5 -3 l 1 -3 v -8 l -5 -3 l -5 -1 l -33 -1 l -179 -1 l -17 -3 l -23 -6 l -14 -7 l -12 -9 l -5 -4 l -12 -17 l -5 -11 l -5 -21 v -22 l 6 -24 l 5 -12 l 14 -19 l 8 -7 l 16 -11 l 14 -6 l 24 -6 l 11 -1 h 303 l -3 -9 l -4 -16 l -1 -9 v -17 l 2 -32 l 4 -31 l 6 -31 l 9 -37 l 8 -29 l 11 -31 l 10 -24 l 11 -23 l 15 -29 l 12 -20 l 11 -17 l 8 -12 l 10 -14 l 13 -18 l 13 -16 l 11 -14 l 13 -15 l 13 -14 l 7 -8 l 37 -37 l 8 -7 l 14 -12 l 13 -11 l 14 -11 l 17 -13 l 10 -7 l 14 -10 l 23 -15 l 25 -15 l 27 -15 l 28 -14 l 42 -18 l 38 -14 l 46 -14 l 77 -18 l 32 -5 l 26 -4 l 35 -4 z m 37 43 l -41 2 l -40 4 l -47 7 l -34 7 l -38 9 l -40 12 l -29 10 l -28 11 l -27 12 l -27 13 l -22 12 l -27 16 l -17 11 l -16 11 l -14 10 l -17 13 l -17 14 l -14 12 l -10 9 l -10 9 l -34 34 l -7 8 l -10 11 l -9 11 l -11 13 l -10 13 l -12 16 l -16 23 l -13 21 l -9 15 l -13 24 l -14 29 l -16 41 l -10 32 l -9 40 l -5 30 l -3 27 l -1 14 v 33 l 2 9 l 7 2 l 27 3 l 28 1 l 16 -1 l 5 -4 l 5 -10 l 4 -16 l 4 -38 l 6 -35 l 7 -30 l 9 -31 l 9 -25 l 12 -28 l 10 -21 l 13 -23 l 9 -15 l 14 -21 l 14 -19 l 13 -16 l 12 -14 l 12 -13 l 28 -28 l 8 -7 l 11 -10 l 11 -9 l 16 -13 l 20 -15 l 18 -13 l 20 -13 l 21 -13 l 23 -13 l 16 -8 l 23 -11 l 24 -10 l 32 -12 l 41 -12 l 36 -8 l 35 -6 l 38 -4 l 19 -1 h 72 l 32 2 l 34 4 l 34 6 l 28 6 l 27 8 l 30 10 l 29 12 l 30 15 l 27 16 l 19 13 l 16 12 l 17 14 l 13 12 l 8 7 l 15 15 l 7 8 l 9 10 l 9 11 l 14 18 l 13 19 l 10 15 l 15 25 l 16 31 l 10 24 l 10 28 l 8 30 l 5 28 l 3 27 l 1 20 v 17 l -2 31 l -5 36 l -7 30 l -10 33 l -9 25 l -12 27 l -14 29 l -14 25 l -13 21 l -15 22 l -13 18 l -13 19 l -12 16 l -13 19 l -7 10 v 2 h 94 l 12 -4 l 11 -8 l 10 -10 l 12 -16 l 14 -20 l 10 -15 l 12 -19 l 11 -19 l 14 -27 l 7 -14 l 15 -36 l 9 -27 l 10 -37 l 6 -31 l 4 -32 l 2 -43 v -41 l -2 -38 l -4 -32 l -5 -28 l -7 -28 l -9 -29 l -10 -25 l -11 -24 l -9 -17 l -14 -23 l -14 -20 l -12 -16 l -11 -14 l -12 -14 l -11 -12 l -9 -10 l -18 -18 l -8 -7 l -11 -10 l -11 -9 l -15 -12 l -18 -13 l -15 -10 l -21 -13 l -19 -11 l -29 -15 l -31 -14 l -28 -11 l -38 -13 l -37 -10 l -32 -7 l -46 -7 l -31 -3 l -39 -2 z m -39 131 l -38 3 l -35 5 l -33 6 l -38 11 l -18 6 l -26 10 l -34 15 l -16 8 l -27 15 l -23 14 l -18 12 l -11 8 l -16 12 l -14 11 l -14 12 l -8 7 l -10 9 l -10 9 l -27 27 l -7 8 l -12 14 l -13 17 l -13 18 l -15 24 l -8 14 l -8 16 l -12 25 l -11 29 l -10 30 l -7 31 l -6 39 l -3 28 l -7 29 l -5 13 v 2 h 414 l 21 3 l 11 2 l -4 -17 l -2 -12 l 14 -128 l 7 -62 l 2 -25 l 20 -170 l 2 -14 l 5 -19 l 7 -12 l 11 -14 l 10 -8 l 14 -9 l 12 -5 l 25 -6 l 10 -1 l 16 2 l 20 5 l 12 5 l 13 9 l 9 8 l 10 15 l 4 13 l 4 18 v 10 l -5 49 l -3 42 l -11 115 l -9 86 l -3 35 v 9 l 23 12 l 23 12 l 19 10 l 22 12 l 18 10 l 25 14 l 23 13 l 25 14 l 23 13 l 16 9 l 13 10 l 8 7 l 10 13 l 5 10 l 5 20 v 12 l -6 23 l -6 11 l -10 13 l -11 13 l -9 8 l -16 11 l -10 4 l -21 5 h -14 l -26 -6 l -16 -8 l -23 -12 l -22 -12 l -35 -18 l -19 -10 l -26 -14 l -32 -17 l -22 -12 l -14 -8 l -2 1 l 7 16 l 5 17 l 4 17 l 2 19 v 22 l -2 17 l -2 16 l -8 55 l -4 36 l 5 -5 l 11 -10 l 13 -9 l 16 -8 l 17 -5 l 22 -5 l 14 -1 l 259 -1 l -2 -13 l 4 -17 l 7 -12 l 10 -14 l 13 -18 l 13 -19 l 9 -12 l 11 -16 l 7 -10 l 10 -16 l 12 -19 l 9 -17 l 10 -19 l 13 -29 l 11 -29 l 10 -33 l 5 -22 l 4 -27 l 1 -25 v -33 l -1 -24 l -4 -27 l -4 -17 l -12 -37 l -10 -23 l -11 -23 l -14 -24 l -10 -16 l -13 -19 l -10 -13 l -11 -13 l -9 -11 l -8 -8 l -7 -8 l -13 -13 l -8 -7 l -10 -9 l -10 -8 l -16 -12 l -20 -13 l -17 -10 l -27 -14 l -23 -10 l -24 -9 l -29 -9 l -18 -5 l -50 -8 l -39 -4 l -17 -1 z m 20 84 l -14 3 l -14 7 l -7 6 l -6 8 l -5 12 l -6 52 l -19 167 l -9 86 l -9 85 v 8 l 4 9 l 6 8 l 7 6 l 20 12 l 22 13 l 28 16 l 27 15 l 26 14 l 22 12 l 27 14 l 19 10 l 25 13 l 18 10 l 14 7 l 22 12 l 12 6 l 7 2 h 15 l 11 -4 l 9 -7 l 7 -6 l 9 -11 l 7 -10 l 3 -9 v -8 l -3 -9 l -9 -10 l -10 -7 l -18 -10 l -23 -13 l -23 -13 l -25 -14 l -25 -14 l -29 -16 l -32 -17 l -21 -11 l -16 -8 l -14 -10 l -7 -10 l -3 -9 l -1 -15 l 7 -67 l 14 -148 l 10 -110 v -20 l -3 -8 l -4 -6 l -6 -5 l -10 -5 l -7 -2 l -8 -1 z m -597 496 l -443 1 l -18 4 l -12 6 l -10 8 l -6 9 l -4 9 l -2 9 v 16 l 4 13 l 4 6 l 5 5 l 5 4 l 16 6 l 11 2 l 45 1 h 110 l 57 1 l 18 3 l 13 5 l 10 6 l 9 9 l 6 12 l 2 7 v 19 l -4 15 l -6 11 l -9 9 l -10 6 l -15 5 l -11 2 l -25 1 h -333 l -69 1 l -15 4 l -11 6 l -11 9 l -8 11 l -5 10 l -2 8 v 17 l 4 11 l 7 9 l 9 7 l 13 6 l 17 4 l 24 1 h 250 l 24 1 l 18 4 l 14 7 l 9 8 l 6 10 l 3 11 v 12 l -3 12 l -7 13 l -10 11 l -10 7 l -11 5 l -14 4 l -9 1 l -520 1 l -19 3 l -16 5 l -12 7 l -10 9 l -6 8 l -5 13 l -1 7 v 8 l 3 14 l 6 10 l 9 8 l 13 6 l 15 4 l 13 2 l 448 1 l 17 3 l 13 5 l 9 7 l 7 11 l 3 9 l 1 5 v 19 l -4 13 l -5 9 l -7 8 l -10 7 l -14 6 l -17 4 l -17 2 l -478 1 l -148 1 l -20 3 l -17 5 l -15 8 l -10 9 l -6 9 l -3 9 l -1 5 v 9 l 3 11 l 4 8 l 8 10 l 11 8 l 13 4 l 12 2 l 84 1 l 426 1 l 16 4 l 12 6 l 7 6 l 5 8 l 3 11 v 10 l -3 12 l -8 16 l -11 14 l -9 7 l -14 7 l -16 4 l -14 2 l -15 1 l -66 1 l -203 1 l -26 1 l -15 4 l -10 5 l -10 8 l -7 8 l -5 11 l -2 8 v 12 l 3 12 l 5 10 l 7 7 l 12 6 l 13 3 l 10 1 h 319 l 20 -2 l 17 -4 l 15 -6 l 11 -6 l 10 -8 l 9 -8 l 7 -8 l 14 -14 l 11 -9 l 16 -11 l 14 -8 l 16 -8 l 15 -6 l 26 -8 l 23 -5 l 19 -2 h 26 l 18 2 l 17 4 l 22 8 l 16 8 l 17 11 l 14 11 l 16 15 l 13 14 l 7 8 l 11 11 l 12 9 l 14 7 l 16 4 h 425 l 78 -1 l 38 -1 l 20 -3 l 17 -5 l 16 -7 l 16 -10 l 11 -10 l 5 -5 l 10 -11 l 9 -14 l 8 -16 l 7 -21 l 4 -20 l 7 -64 l 21 -200 l 14 -143 l 12 -139 l 5 -46 l 8 -57 l 4 -24 l 1 -9 v -26 l -3 -19 l -5 -16 l -8 -16 l -6 -10 l -9 -11 l -7 -7 l -13 -10 l -14 -8 l -20 -8 l -21 -5 l -8 -1 z m 1004 258 l -27 1 h -264 l -42 1 l -19 3 l -13 5 l -11 6 l -11 9 l -8 10 l -8 16 l -4 12 l -2 11 l -5 68 l -6 66 l -14 136 l -9 89 l -13 126 l -6 67 v 23 l 3 12 l 6 9 l 5 4 l 8 4 l 32 7 l 25 4 h 29 l 16 -4 l 12 -6 l 12 -11 l 12 -13 l 7 -8 l 7 -7 l 8 -7 l 15 -12 l 20 -13 l 16 -9 l 23 -11 l 25 -9 l 25 -5 l 11 -1 h 28 l 18 2 l 25 6 l 26 10 l 18 10 l 14 10 l 14 12 l 4 5 h 2 l 2 4 l 7 8 l 15 23 l 10 11 l 11 7 l 12 4 l 5 1 h 96 l 24 -2 l 16 -3 l 13 -5 l 10 -6 l 5 -4 l 7 -10 l 6 -13 l 5 -21 l 4 -40 l 7 -56 l 5 -40 l 3 -37 v -35 l -2 -23 l -4 -23 l -7 -25 l -8 -21 l -10 -19 l -12 -19 l -14 -19 l -20 -30 l -17 -28 l -15 -26 l -11 -20 l -12 -22 l -14 -26 l -12 -22 l -13 -23 l -15 -26 l -9 -12 l -10 -11 l -10 -7 l -14 -7 l -15 -4 l -9 -1 z m -148 632 l -26 4 l -22 6 l -26 11 l -18 10 l -14 10 l -12 11 l -8 8 l -10 13 l -9 15 l -7 16 l -6 21 l -2 12 v 28 l 4 20 l 6 17 l 9 16 l 8 10 l 9 10 l 10 9 l 15 10 l 17 9 l 24 8 l 20 4 l 10 1 h 23 l 22 -3 l 19 -5 l 17 -6 l 17 -8 l 14 -8 l 18 -13 l 10 -9 l 8 -7 l 9 -10 l 12 -16 l 9 -16 l 8 -20 l 4 -18 v -14 l -13 -36 l -8 -19 l -9 -14 l -12 -14 l -12 -11 l -14 -10 l -18 -10 l -17 -6 l -22 -5 l -9 -1 z m -1270 2 l -20 3 l -20 5 l -20 7 l -19 8 l -19 12 l -11 9 l -8 7 l -9 11 l -10 14 l -8 16 l -7 19 l -4 20 l -1 13 v 16 l 3 23 l 5 16 l 8 17 l 9 12 l 8 9 l 11 9 l 14 9 l 16 8 l 21 7 l 20 4 l 11 1 h 35 l 21 -3 l 23 -6 l 21 -9 l 19 -11 l 18 -14 l 8 -8 l 5 -5 l 10 -10 l 10 -14 l 9 -17 l 6 -17 l 3 -15 v -33 l -4 -19 l -6 -16 l -8 -15 l -10 -14 l -5 -6 h -2 l -2 -4 l -14 -12 l -18 -11 l -16 -7 l -16 -5 l -15 -3 l -8 -1 z"/>
		<path class="s1" d="M 179 1150 h 474 l 30 7 l 16 8 l 10 8 l 5 4 l 13 18 l 5 12 l 6 24 l 1 14 l -3 15 l -4 15 l -6 12 l -9 12 l -6 7 l -16 12 l -12 7 l -16 6 l -25 6 l -13 1 h -477 l -32 -1 l -27 -6 l -15 -5 l -11 -6 l -11 -9 l -8 -8 l -9 -13 l -5 -12 l -4 -16 v -19 l 6 -24 l 8 -17 l 10 -13 l 9 -9 l 19 -13 l 12 -6 l 17 -5 l 18 -4 l 13 -1 z m 34 44 l -63 1 l -19 1 l -16 4 l -16 8 l -9 7 l -7 8 l -6 12 l -3 11 v 12 l 3 10 l 6 8 l 9 8 l 8 4 l 16 4 l 8 1 h 514 l 14 -3 l 13 -5 l 11 -7 l 8 -7 l 7 -11 l 3 -10 v -16 l -3 -12 l -5 -10 l -9 -9 l -12 -6 l -16 -3 z"/>
		<path class="s2" d="M 488 942 h 338 l 28 1 l 29 7 l 10 4 l 14 10 l 7 6 l 9 13 l 4 8 l 6 24 l 1 5 v 19 l -6 26 l -4 10 l -7 11 l -10 12 l -14 11 l -12 7 l -18 6 l -21 5 l -8 1 l -32 1 h -37 l -285 -1 l -17 -3 l -20 -5 l -13 -5 l -12 -8 l -11 -9 l -11 -14 l -5 -12 l -5 -21 l -1 -7 v -8 l 4 -20 l 5 -17 l 7 -12 l 8 -10 l 9 -9 l 19 -13 l 15 -6 l 24 -6 z m -2 44 l -16 3 l -12 5 l -10 6 l -9 9 l -6 10 l -3 10 l -1 15 l 2 11 l 4 8 l 6 7 l 10 6 l 10 4 l 15 3 l 11 1 h 330 l 21 -1 l 17 -4 l 16 -8 l 11 -11 l 5 -10 l 3 -13 v -14 l -2 -12 l -4 -8 l -4 -5 l -10 -6 l -13 -4 l -20 -2 z"/>
		<path class="s3" d="M 233 1361 h 132 l 23 1 l 29 7 l 12 5 l 13 9 l 9 8 l 11 15 l 5 10 l 6 25 v 11 l -7 28 l -8 16 l -12 17 l -11 13 l -10 9 l -13 8 l -13 5 l -27 6 l -23 2 l -39 1 h -39 l -48 -1 l -15 -2 l -28 -7 l -12 -5 l -12 -8 l -10 -9 l -9 -11 l -7 -12 l -3 -9 l -5 -22 v -17 l 6 -25 l 8 -16 l 10 -14 l 9 -9 l 15 -11 l 16 -8 l 17 -5 l 18 -4 z m -8 45 l -15 3 l -13 5 l -13 9 l -9 10 l -6 12 l -2 7 v 21 l 3 10 l 6 10 l 9 8 l 13 6 l 12 3 l 9 1 l 33 1 h 74 l 33 -1 l 21 -3 l 12 -4 l 9 -6 l 12 -13 l 8 -13 l 5 -11 l 2 -7 v -15 l -4 -11 l -7 -9 l -10 -7 l -11 -4 l -12 -2 z"/>
		<path class="s4" d="M 1088 1942 h 18 l 16 3 l 12 5 l 11 7 l 10 9 l 8 9 l 8 16 l 2 8 v 18 l -3 12 l -8 16 l -8 10 l -9 10 l -15 11 l -16 8 l -19 5 h -24 l -15 -4 l -12 -5 l -11 -8 l -10 -10 l -8 -14 l -4 -12 l -1 -6 v -14 l 3 -14 l 6 -15 l 9 -13 l 5 -6 l 8 -7 l 14 -9 l 13 -6 l 11 -3 z"/>
		<path class="s4" d="M 2352 1942 h 21 l 15 3 l 17 8 l 9 7 l 5 4 l 8 10 l 5 9 l 3 8 l 2 10 v 13 l -3 16 l -5 12 l -9 13 l -11 12 l -16 11 l -11 5 l -12 4 l -11 2 h -19 l -17 -4 l -16 -8 l -9 -7 l -10 -10 l -8 -14 l -4 -13 v -21 l 4 -14 l 8 -15 l 9 -11 l 9 -9 l 13 -9 l 16 -8 l 10 -3 z"/>
	</g>
</svg>