<svg width="64" height="64" viewBox="0 0 66 64" fill="none" xmlns="http://www.w3.org/2000/svg">
<path d="M53.292 40.5791C56.484 40.5791 59.2093 41.6829 61.4814 43.8936C63.7534 46.1041 64.8848 48.7529 64.8848 51.8525C64.8847 54.9521 63.7533 57.6 61.4814 59.8105C59.2093 62.0213 56.4841 63.125 53.292 63.125C50.1 63.125 47.3747 62.0213 45.1025 59.8105C42.8308 57.6001 41.6993 54.952 41.6992 51.8525C41.6992 48.7529 42.8306 46.1041 45.1025 43.8936C47.3747 41.6828 50.1 40.5791 53.292 40.5791ZM11.8428 45.8408C10.197 45.8408 8.7543 46.4317 7.52539 47.6025C6.29345 48.7763 5.6709 50.1973 5.6709 51.8525C5.67097 53.4617 6.29492 54.8691 7.52344 56.0645C8.75197 57.2598 10.1954 57.8633 11.8428 57.8633C13.5374 57.8633 14.995 57.2611 16.2012 56.0625C17.4045 54.8667 18.0136 53.4599 18.0137 51.8525C18.0137 50.1992 17.4058 48.7786 16.1992 47.6045C14.9926 46.4305 13.5358 45.8408 11.8428 45.8408ZM53.292 45.8408C51.5991 45.8409 50.1421 46.4305 48.9355 47.6045C47.729 48.7786 47.1211 50.1992 47.1211 51.8525C47.1212 53.4599 47.7304 54.8668 48.9336 56.0625C50.1398 57.2611 51.5974 57.8632 53.292 57.8633C54.9867 57.8633 56.4442 57.2611 57.6504 56.0625C58.8538 54.8667 59.4638 53.4599 59.4639 51.8525C59.4639 50.1992 58.8552 48.7787 57.6484 47.6045C56.4418 46.4305 54.985 45.8408 53.292 45.8408ZM11.8428 5.51172C10.1971 5.51172 8.75426 6.10179 7.52539 7.27246C6.29347 8.44613 5.67097 9.86734 5.6709 11.5225C5.6709 13.1777 6.29345 14.5987 7.52539 15.7725C8.7543 16.9433 10.197 17.5342 11.8428 17.5342C13.5358 17.5342 14.9926 16.9445 16.1992 15.7705C17.4058 14.5964 18.0137 13.1758 18.0137 11.5225C18.0136 9.86913 17.406 8.44856 16.1992 7.27441C14.9926 6.10042 13.5358 5.51173 11.8428 5.51172ZM53.292 5.51172C51.5991 5.51176 50.1421 6.10045 48.9355 7.27441C47.7289 8.44854 47.1212 9.86916 47.1211 11.5225C47.1211 13.1758 47.729 14.5964 48.9355 15.7705C50.1421 16.9445 51.5991 17.5341 53.292 17.5342C54.985 17.5342 56.4418 16.9445 57.6484 15.7705C58.8551 14.5963 59.4639 13.1758 59.4639 11.5225C59.4638 9.86912 58.8552 8.44856 57.6484 7.27441C56.4419 6.10048 54.985 5.51172 53.292 5.51172ZM9.13184 22.4199L8.94531 22.3711C6.42945 21.712 4.35287 20.3966 2.70898 18.4209C1.06963 16.4505 0.25 14.1543 0.25 11.5225C0.250065 8.42297 1.3815 5.77495 3.65332 3.56445C5.92551 1.35366 8.65068 0.25 11.8428 0.25C14.5526 0.250013 16.9153 1.04881 18.9414 2.64453C20.9729 4.24462 22.3237 6.26473 23 8.70898L23.0508 8.8916H42.0098L42.0605 8.70898C42.7369 6.26473 44.0877 4.24462 46.1191 2.64453C48.1444 1.04938 50.5317 0.250037 53.292 0.25C56.4841 0.25 59.2093 1.35366 61.4814 3.56445C63.7533 5.77497 64.8847 8.42294 64.8848 11.5225C64.8848 14.6221 63.7534 17.2709 61.4814 19.4814C59.2093 21.6921 56.484 22.7959 53.292 22.7959C50.5316 22.7959 48.1445 21.9956 46.1191 20.4004C44.0878 18.8004 42.7369 16.7811 42.0605 14.3369L42.0098 14.1533H23.0498L23 14.3389C22.4689 16.3115 21.468 18.0122 19.9951 19.4453C18.5221 20.8786 16.7721 21.8536 14.7412 22.3711L14.5537 22.4189V40.8828L14.7402 40.9316C17.2562 41.5908 19.3326 42.907 20.9766 44.8828C22.6151 46.8523 23.4355 49.1716 23.4355 51.8525C23.4355 54.952 22.304 57.6001 20.0322 59.8105C17.7601 62.0213 15.0348 63.125 11.8428 63.125C8.65068 63.125 5.92551 62.0213 3.65332 59.8105C1.3815 57.6 0.250064 54.952 0.25 51.8525C0.25 49.1716 1.07039 46.8523 2.70898 44.8828C4.35293 42.9069 6.42927 41.5908 8.94531 40.9316L9.13184 40.8828V22.4199Z" fill="url(#paint0_linear_820_1613)" stroke="white" stroke-width="0.5"/>
<defs>
<linearGradient id="paint0_linear_820_1613" x1="33.4784" y1="0.664772" x2="33.4784" y2="62.7102" gradientUnits="userSpaceOnUse">
<stop stop-color="#FF9933"/>
<stop offset="1" stop-color="#161F3C"/>
</linearGradient>
</defs>
</svg>
