<svg width="64" height="64" viewBox="-2 0 54 54" fill="none" xmlns="http://www.w3.org/2000/svg">
<path d="M5.5918 0.25H44.7334C46.1988 0.25009 47.4502 0.801729 48.5 1.91895C49.5503 3.03683 50.0742 4.37658 50.0742 5.95117V47.6104C50.0742 49.185 49.5504 50.5247 48.5 51.6426C47.4502 52.7599 46.1988 53.3114 44.7334 53.3115H5.5918C4.12632 53.3115 2.87503 52.7598 1.8252 51.6426C0.774842 50.5247 0.25 49.185 0.25 47.6104V5.95117C0.250028 4.37658 0.77487 3.03683 1.8252 1.91895C2.87501 0.801815 4.12636 0.25 5.5918 0.25ZM5.3418 47.8604H44.9834V38.4336H36.2197L36.1445 38.5342C34.767 40.3913 33.1288 41.8296 31.2295 42.8525C29.3321 43.8744 27.3106 44.3848 25.1621 44.3848C23.0136 44.3847 20.9921 43.8744 19.0947 42.8525C17.1956 41.8296 15.5572 40.3913 14.1797 38.5342L14.1045 38.4336H5.3418V47.8604ZM5.3418 32.9824H17.1543C17.7385 34.7346 18.7491 36.1588 20.1885 37.2461C21.6753 38.3691 23.3358 38.9335 25.1621 38.9336C26.9885 38.9336 28.6489 38.3692 30.1357 37.2461C31.5754 36.1587 32.5867 34.7348 33.1709 32.9824H44.9834V5.70117H5.3418V32.9824ZM38.8916 21.8232V27.2744H11.4336V21.8232H38.8916ZM38.8916 11.4082V16.8604H11.4336V11.4082H38.8916Z" fill="url(#paint0_linear_820_1616)" stroke="white" stroke-width="0.5"/>
<defs>
<linearGradient id="paint0_linear_820_1616" x1="25.4265" y1="0.686688" x2="25.4265" y2="54.2484" gradientUnits="userSpaceOnUse">
<stop stop-color="#EE9034"/>
<stop offset="1" stop-color="#161F3C"/>
</linearGradient>
</defs>
</svg>
